<svg width="80" height="80" viewBox="0 0 80 80" fill="none" xmlns="http://www.w3.org/2000/svg">
<rect width="80" height="80" rx="20" fill="#181818"/>
<circle cx="39.5" cy="39.5" r="28.5" fill="white"/>
<path d="M48.6905 24.9502H31.5008C30.2044 24.9502 29.1534 26.0012 29.1534 27.2976V56.2204C29.1534 57.5169 30.2044 58.5679 31.5008 58.5679H48.6905C49.987 58.5679 51.038 57.5169 51.038 56.2204V27.2976C51.038 26.0012 49.987 24.9502 48.6905 24.9502Z" fill="white" stroke="black" stroke-width="0.640077" stroke-miterlimit="10"/>
<path d="M48.9015 26.1592H31.2854C30.7549 26.1592 30.3249 26.5892 30.3249 27.1197V56.4399C30.3249 56.9704 30.7549 57.4004 31.2854 57.4004H48.9015C49.432 57.4004 49.862 56.9704 49.862 56.4399V27.1197C49.862 26.5892 49.432 26.1592 48.9015 26.1592Z" fill="#00983A"/>
<path d="M42.5449 22.3203L43.6797 23.2812V24.6797H36.3203V23.2812L37.4551 22.3203H42.5449Z" fill="black" stroke="black" stroke-width="0.640077"/>
<path d="M35.2312 44.33L42.5095 31.4336L40.3111 40.0657L44.948 39.3122L37.8519 52.1507L40.2448 43.3695L35.2312 44.33Z" fill="#FFDE00"/>
</svg>
