<svg width="100" height="100" viewBox="0 0 100 100" fill="none" xmlns="http://www.w3.org/2000/svg">
<rect x="100" y="100" width="100" height="100" rx="50" transform="rotate(-180 100 100)" fill="url(#paint0_linear_332_4695)"/>
<path d="M53.3003 25.1162C52.0513 22.7386 47.8999 22.7386 46.6876 25.1162L22.5877 71.7043C21.706 73.4272 22.4775 75.4948 24.2776 76.3218C24.7919 76.563 25.343 76.6663 25.8941 76.6663C27.2534 76.6663 28.5759 75.9427 29.2005 74.7022L49.994 34.5234L65.2033 63.9511L51.941 56.2324C50.2144 55.2331 47.9366 55.7155 46.8713 57.3351C45.8059 58.9546 46.3202 61.091 48.0469 62.0903L72.1467 76.115C73.5428 76.9076 75.3429 76.7697 76.5553 75.736C77.7676 74.7022 78.135 73.0482 77.4002 71.6698L53.3003 25.1162Z" fill="white"/>
<defs>
<linearGradient id="paint0_linear_332_4695" x1="146.667" y1="207.778" x2="146.667" y2="93.3333" gradientUnits="userSpaceOnUse">
<stop offset="0.529618" stop-color="#9F9FFF"/>
<stop offset="1" stop-color="#8787D9"/>
</linearGradient>
</defs>
</svg>
