<svg width="60" height="60" viewBox="0 0 60 60" fill="none" xmlns="http://www.w3.org/2000/svg">
  <circle cx="30" cy="30" r="30" fill="#D9D9D9"/>
  <path d="M35.2598 16.5C36.3643 16.5 37.2598 17.3954 37.2598 18.5V20.459H42.5C44.7091 20.459 46.5 22.2498 46.5 24.459V40.2188C46.5 42.4279 44.7091 44.2188 42.5 44.2188H17.5C15.2909 44.2188 13.5 42.4279 13.5 40.2188L13.5 24.459C13.5 22.2498 15.2909 20.459 17.5 20.459H22.7402V18.5C22.7402 17.3954 23.6357 16.5 24.7402 16.5L35.2598 16.5ZM30.6602 25.7402C27.0154 25.7404 24.0608 28.6951 24.0605 32.3398C24.0605 35.9848 27.0153 38.9402 30.6602 38.9404C34.3052 38.9404 37.2607 35.9849 37.2607 32.3398C37.2605 28.6949 34.3051 25.7402 30.6602 25.7402ZM38.5801 23.1016C37.8511 23.1016 37.2598 23.6929 37.2598 24.4219C37.2599 25.1507 37.8512 25.7412 38.5801 25.7412H41.2197C41.9486 25.7412 42.5399 25.1507 42.54 24.4219C42.54 23.6929 41.9487 23.1016 41.2197 23.1016H38.5801Z" fill="white"/>
</svg>
