<svg width="108" height="94" viewBox="0 0 108 94" fill="none" xmlns="http://www.w3.org/2000/svg">
<path d="M99.115 81.6622L97.1648 85.213L8.8855 36.7267L10.8367 33.1759L99.115 81.6622Z" fill="black"/>
<path d="M99.9517 82.5312L96.3276 84.3437L59.5396 10.7685L63.1646 8.95599L99.9517 82.5312Z" fill="black"/>
<path d="M63.1644 10.7675L26.4056 84.3427L22.7806 82.5322L59.5394 8.95697L63.1644 10.7675Z" fill="black"/>
<path d="M26.5311 82.8489L22.6542 84.0266L7.92175 35.5403L11.7987 34.3625L26.5311 82.8489Z" fill="black"/>
<path d="M24.592 93.2993C30.0379 93.2993 34.4526 88.8846 34.4526 83.4387C34.4526 77.9929 30.0379 73.5781 24.592 73.5781C19.1462 73.5781 14.7314 77.9929 14.7314 83.4387C14.7314 88.8846 19.1462 93.2993 24.592 93.2993Z" fill="url(#paint0_linear_0_1)"/>
<path d="M61.3518 19.7212C66.7977 19.7212 71.2124 15.3065 71.2124 9.8606C71.2124 4.41474 66.7977 0 61.3518 0C55.906 0 51.4912 4.41474 51.4912 9.8606C51.4912 15.3065 55.906 19.7212 61.3518 19.7212Z" fill="url(#paint1_linear_0_1)"/>
<path d="M98.1389 93.2993C103.585 93.2993 108 88.8846 108 83.4387C108 77.9929 103.585 73.5781 98.1389 73.5781C92.6931 73.5781 88.2783 77.9929 88.2783 83.4387C88.2783 88.8846 92.6931 93.2993 98.1389 93.2993Z" fill="url(#paint2_linear_0_1)"/>
<path d="M61.3518 73.5435C66.7977 73.5435 71.2124 69.1287 71.2124 63.6829C71.2124 58.237 66.7977 53.8223 61.3518 53.8223C55.906 53.8223 51.4912 58.237 51.4912 63.6829C51.4912 69.1287 55.906 73.5435 61.3518 73.5435Z" fill="url(#paint3_linear_0_1)"/>
<path d="M9.8606 44.8091C15.3065 44.8091 19.7212 40.3943 19.7212 34.9485C19.7212 29.5026 15.3065 25.0879 9.8606 25.0879C4.41474 25.0879 0 29.5026 0 34.9485C0 40.3943 4.41474 44.8091 9.8606 44.8091Z" fill="url(#paint4_linear_0_1)"/>
<defs>
<linearGradient id="paint0_linear_0_1" x1="14.3488" y1="73.5781" x2="38.8218" y2="77.7434" gradientUnits="userSpaceOnUse">
<stop stop-color="#E1E1FD"/>
<stop offset="1" stop-color="#B2B2EF"/>
</linearGradient>
<linearGradient id="paint1_linear_0_1" x1="51.1086" y1="-1.94861e-07" x2="75.5816" y2="4.16526" gradientUnits="userSpaceOnUse">
<stop stop-color="#E1E1FD"/>
<stop offset="1" stop-color="#B2B2EF"/>
</linearGradient>
<linearGradient id="paint2_linear_0_1" x1="87.8957" y1="73.5781" x2="112.369" y2="77.7434" gradientUnits="userSpaceOnUse">
<stop stop-color="#E1E1FD"/>
<stop offset="1" stop-color="#B2B2EF"/>
</linearGradient>
<linearGradient id="paint3_linear_0_1" x1="51.1086" y1="53.8223" x2="75.5816" y2="57.9875" gradientUnits="userSpaceOnUse">
<stop stop-color="#E1E1FD"/>
<stop offset="1" stop-color="#B2B2EF"/>
</linearGradient>
<linearGradient id="paint4_linear_0_1" x1="-0.38265" y1="25.0879" x2="24.0904" y2="29.2531" gradientUnits="userSpaceOnUse">
<stop stop-color="#E1E1FD"/>
<stop offset="1" stop-color="#B2B2EF"/>
</linearGradient>
</defs>
</svg>
