<svg width="203" height="165" viewBox="0 0 203 165" fill="none" xmlns="http://www.w3.org/2000/svg">
<rect x="60" y="64" width="80" height="80" rx="20" fill="#181818"/>
<path d="M108.86 81.2715C110.956 80.0606 112.666 81.0296 112.673 83.4396L112.758 113.538C112.765 115.953 111.066 118.891 108.97 120.102L94.3061 128.573C92.2098 129.784 90.5052 128.812 90.4984 126.396L90.4131 96.2983C90.4063 93.8883 92.0998 90.9535 94.1961 89.7426L108.86 81.2715Z" fill="white"/>
<path d="M108.239 85.0868C109.339 84.4514 110.241 84.9664 110.245 86.2307L110.322 113.562C110.326 114.827 109.429 116.381 108.329 117.017L94.9322 124.756C93.8324 125.391 92.9297 124.876 92.9261 123.612L92.8486 96.2747C92.845 95.0056 93.7332 93.4662 94.8374 92.8283L96.4587 91.8917C96.6544 91.7787 96.8114 91.8732 96.812 92.0983L96.8134 92.5928C96.8145 92.9727 97.0849 93.122 97.4108 92.9338L105.679 88.1577C106.009 87.9668 106.273 87.5086 106.272 87.1287L106.271 86.6342C106.27 86.4091 106.431 86.1313 106.626 86.0184L108.239 85.0868Z" fill="white"/>
<path d="M110.319 113.562C110.327 114.83 109.427 116.382 108.333 117.02L94.9324 124.757C93.8305 125.395 92.931 124.877 92.9233 123.609L92.916 120.204C93.8305 120.527 94.7823 120.692 95.7643 120.692C102.736 120.692 109.247 111.747 109.247 101.307C109.247 96.1992 107.89 91.5644 105.679 88.1593C106.009 87.9645 106.271 87.5067 106.271 87.1317V86.6366C106.271 86.4117 106.429 86.1341 106.624 86.0217L108.243 85.0842C109.337 84.4543 110.244 84.9644 110.244 86.2315L110.319 113.562Z" fill="#E9EDF4"/>
<path d="M87.3312 124.556C87.3312 125.756 87.7585 126.596 88.4406 126.993L91.6041 128.838C90.9218 128.441 90.502 127.601 90.502 126.393L90.4121 96.2953C90.409 95.3029 90.7064 94.2255 91.1908 93.2114L88.0208 91.3672C87.5358 92.382 87.2382 93.4619 87.2414 94.458" fill="#F4C531"/>
<path d="M94.1976 89.7388L108.857 81.2737C109.914 80.6588 110.874 80.606 111.563 81.0038L108.392 79.1588C107.703 78.7611 106.743 78.8138 105.694 79.4287L91.0268 87.9011C89.7937 88.6104 88.7114 89.9197 88.0208 91.3655L91.1908 93.2097C91.8815 91.7643 92.9639 90.4529 94.1976 89.7388Z" fill="#F4C531"/>
<path d="M92.6029 129.413C92.1869 129.413 91.7999 129.314 91.456 129.117C90.6374 128.646 90.1845 127.68 90.181 126.397L90.0957 96.2987C90.0887 93.7915 91.8569 90.7267 94.0372 89.4665L108.702 80.9956C109.823 80.3488 110.894 80.2527 111.717 80.7265C112.535 81.1972 112.987 82.1604 112.991 83.4385L113.076 113.537C113.083 116.046 111.312 119.115 109.129 120.377L94.4653 128.847C93.8147 129.223 93.1811 129.413 92.6029 129.413ZM109.02 81.5462L94.3552 90.0171C92.3505 91.1749 90.7247 93.9923 90.7309 96.2971L90.8162 126.395C90.8193 127.442 91.1589 128.213 91.7724 128.566C92.3901 128.921 93.2334 128.826 94.1474 128.297L108.811 119.826C110.819 118.666 112.447 115.845 112.441 113.538L112.355 83.44C112.352 82.3977 112.013 81.63 111.4 81.2771C110.782 80.9219 109.936 81.0158 109.02 81.5462Z" fill="black"/>
<path d="M94.0392 125.349C93.7934 125.349 93.5631 125.29 93.3568 125.171C92.8764 124.894 92.6108 124.341 92.6084 123.614L92.5313 96.2766C92.527 94.8877 93.47 93.2529 94.6783 92.5542L96.2998 91.6174C96.4933 91.5065 96.6988 91.4972 96.8652 91.5934C97.0327 91.6895 97.1288 91.8741 97.1296 92.099L97.1312 92.593C97.1316 92.6643 97.1475 92.6992 97.1533 92.7062C97.149 92.7 97.1886 92.6969 97.2518 92.6597L105.52 87.8833C105.752 87.7492 105.955 87.3979 105.955 87.1311L105.953 86.6363C105.952 86.2974 106.173 85.9135 106.467 85.7445L108.08 84.8123C108.716 84.4455 109.332 84.3959 109.814 84.6735C110.295 84.9504 110.56 85.5033 110.563 86.2315L110.64 113.563C110.644 114.931 109.679 116.605 108.488 117.293L95.0912 125.032C94.7271 125.243 94.3692 125.349 94.0392 125.349ZM96.4949 92.2401L94.9962 93.1048C93.9838 93.6895 93.1629 95.1118 93.1664 96.2751L93.2436 123.612C93.2451 124.103 93.3979 124.462 93.6736 124.621C93.9512 124.78 94.3417 124.732 94.7733 124.482L108.17 116.742C109.168 116.166 110.008 114.711 110.005 113.564L109.927 86.2331C109.926 85.7414 109.773 85.3831 109.497 85.2241C109.22 85.0651 108.829 85.1132 108.398 85.3629L106.785 86.2951C106.689 86.3502 106.588 86.5246 106.588 86.6348L106.59 87.1295C106.591 87.6251 106.268 88.1858 105.838 88.4339L97.5697 93.2103C97.3119 93.3592 97.0424 93.3731 96.8303 93.2522C96.6182 93.1296 96.4964 92.89 96.496 92.5945L96.4949 92.2401Z" fill="black"/>
<path d="M91.6036 129.155C91.5494 129.155 91.4943 129.141 91.4439 129.112L88.2806 127.267C87.4636 126.79 87.0134 125.827 87.0134 124.555L86.9239 94.4576C86.9208 93.4611 87.2011 92.3444 87.7343 91.2284C87.7726 91.1486 87.8424 91.0881 87.9274 91.0625C88.0115 91.0338 88.1042 91.0454 88.1806 91.0912L91.3504 92.9361C91.4935 93.0191 91.5486 93.1982 91.4772 93.3479C90.9856 94.377 90.7269 95.3952 90.7296 96.2933L90.8196 126.391C90.8196 127.437 91.155 128.208 91.7642 128.563C91.9158 128.651 91.967 128.846 91.8786 128.997C91.8192 129.099 91.713 129.155 91.6036 129.155ZM88.1643 91.817C87.7649 92.7399 87.5567 93.6457 87.559 94.4561L87.6486 124.554C87.6486 125.592 87.9867 126.36 88.6009 126.718L90.3927 127.763C90.2554 127.364 90.1845 126.903 90.1845 126.392L90.0945 96.2948C90.0914 95.382 90.3283 94.3654 90.7816 93.3401L88.1643 91.817Z" fill="black"/>
<path d="M91.1907 93.5289C91.1352 93.5289 91.0798 93.5141 91.0309 93.4854L87.861 91.6405C87.718 91.5575 87.6629 91.3784 87.7343 91.2287C88.4877 89.6521 89.63 88.3392 90.8681 87.6265L105.535 79.1541C106.633 78.5112 107.732 78.4127 108.551 78.8842L111.723 80.7299C111.875 80.8183 111.926 81.0122 111.838 81.1634C111.75 81.3146 111.555 81.3658 111.405 81.2797C110.782 80.9199 109.934 81.0153 109.017 81.5488L94.3567 90.015C93.226 90.6703 92.1767 91.884 91.4772 93.3482C91.4392 93.428 91.369 93.4885 91.2841 93.5141C91.2535 93.5242 91.2221 93.5289 91.1907 93.5289ZM88.4376 91.2411L91.0577 92.7658C91.808 91.3272 92.8813 90.1345 94.0387 89.4652L108.698 80.999C109.154 80.7338 109.604 80.5601 110.031 80.4802L108.232 79.434C107.618 79.0789 106.751 79.1773 105.854 79.7031L91.1856 88.1771C90.1236 88.7882 89.1333 89.8956 88.4376 91.2411Z" fill="black"/>
<path d="M99.0095 90.3226C98.8997 90.3226 98.7927 90.2653 98.7342 90.1637C98.6461 90.0117 98.6985 89.817 98.8501 89.7294L103.923 86.7995C104.076 86.7134 104.27 86.7646 104.357 86.9159C104.445 87.0679 104.393 87.2625 104.241 87.3501L99.1681 90.28C99.118 90.3087 99.0634 90.3226 99.0095 90.3226Z" fill="black"/>
<path d="M88.7142 105.715C88.5491 105.715 88.4148 105.581 88.4144 105.415L88.4082 103.35C88.4075 103.184 88.5414 103.049 88.7072 103.049C88.8723 103.049 89.0074 103.182 89.0077 103.348L89.014 105.414C89.0147 105.579 88.88 105.714 88.7142 105.715C88.7146 105.715 88.7142 105.715 88.7142 105.715Z" fill="black"/>
<path d="M88.703 101.726C88.5379 101.726 88.4036 101.593 88.4032 101.427L88.3926 97.8712C88.3918 97.7054 88.5258 97.5707 88.6916 97.5703C88.8567 97.5703 88.9917 97.704 88.9921 97.8693L89.0027 101.425C89.0035 101.591 88.8688 101.726 88.703 101.726Z" fill="black"/>
<path d="M107.5 108.404L96 114.692V101.345L107.5 94.627V108.404Z" fill="#FFD63C" stroke="#231F20" stroke-width="0.597713" stroke-linecap="round" stroke-linejoin="round"/>
<path d="M96 101.345L103.065 106.115L107.5 94.627" stroke="#231F20" stroke-width="0.597713" stroke-linecap="round" stroke-linejoin="round"/>
<path d="M96 114.693L100.118 104.125" stroke="#231F20" stroke-width="0.597713" stroke-linecap="round" stroke-linejoin="round"/>
<path d="M107.5 108.404L104.631 102.062" stroke="#231F20" stroke-width="0.597713" stroke-linecap="round" stroke-linejoin="round"/>
<g clip-path="url(#clip0_27_237)">
<mask id="mask0_27_237" style="mask-type:luminance" maskUnits="userSpaceOnUse" x="13" y="0" width="53" height="53">
<path d="M65.4692 5.8324L18.8325 0L13.0001 46.6367L59.6368 52.4691L65.4692 5.8324Z" fill="white"/>
</mask>
<g mask="url(#mask0_27_237)">
<path d="M36.3185 49.5529C38.4061 27.3771 37.9228 26.7597 15.9163 23.3184C38.0921 25.406 38.7096 24.9227 42.1509 2.9162C40.0632 25.092 40.5465 25.7095 62.553 29.1508C40.3768 27.0666 39.7606 27.5397 36.3185 49.5529Z" fill="#FDDD62"/>
</g>
</g>
<g clip-path="url(#clip1_27_237)">
<mask id="mask1_27_237" style="mask-type:luminance" maskUnits="userSpaceOnUse" x="0" y="126" width="39" height="39">
<path d="M25.1766 126.001L0 139.742L13.7411 164.919L38.9177 151.178L25.1766 126.001Z" fill="white"/>
</mask>
<g mask="url(#mask1_27_237)">
<path d="M26.3294 158.048C19.4559 146.321 18.9964 146.188 6.87055 152.33C18.5975 145.457 18.731 144.997 12.5883 132.872C19.4618 144.599 19.9213 144.732 32.0472 138.589C20.3212 145.465 20.1847 145.919 26.3294 158.048Z" fill="#E5C340"/>
</g>
</g>
<g clip-path="url(#clip2_27_237)">
<mask id="mask2_27_237" style="mask-type:luminance" maskUnits="userSpaceOnUse" x="165" y="79" width="38" height="38">
<path d="M202.405 93.8223L179.822 79L165 101.582L187.582 116.405L202.405 93.8223Z" fill="white"/>
</mask>
<g mask="url(#mask2_27_237)">
<path d="M176.291 108.993C182.985 98.0819 182.892 97.6409 172.411 90.2912C183.323 96.9854 183.764 96.8925 191.113 86.4112C184.419 97.3227 184.512 97.7637 194.993 105.113C184.081 98.4209 183.643 98.5088 176.291 108.993Z" fill="#181818"/>
</g>
</g>
<defs>
<clipPath id="clip0_27_237">
<rect width="47" height="47" fill="white" transform="translate(18.8325) rotate(7.12842)"/>
</clipPath>
<clipPath id="clip1_27_237">
<rect width="28.6824" height="28.6824" fill="white" transform="translate(0 139.742) rotate(-28.6252)"/>
</clipPath>
<clipPath id="clip2_27_237">
<rect width="27.0123" height="27.0123" fill="white" transform="translate(179.822 79) rotate(33.2797)"/>
</clipPath>
</defs>
</svg>
