<svg width="140" height="140" viewBox="0 0 140 140" fill="none" xmlns="http://www.w3.org/2000/svg">
<path d="M90.8589 94.2652L90.8156 107.708L67.934 121L67.9774 107.557C67.9774 105.608 66.5921 103.249 64.9031 102.253C64.059 101.777 63.2795 101.712 62.7172 102.037L85.5982 88.7451C86.161 88.4203 86.9406 88.4637 87.7846 88.9615C89.4948 89.9357 90.8589 92.3169 90.8589 94.2652Z" fill="white"/>
<path d="M67.9332 121.823C67.7904 121.823 67.6477 121.787 67.521 121.712C67.2657 121.565 67.1088 121.292 67.1088 120.997L67.1531 107.554C67.1531 105.92 65.9307 103.816 64.4851 102.963C63.9442 102.658 63.4335 102.574 63.1319 102.749C63.1319 102.75 63.1299 102.75 63.1299 102.75C62.7399 102.976 62.2352 102.843 62.006 102.45C61.7768 102.057 61.9115 101.553 62.3036 101.325L85.1839 88.0334C86.0364 87.5418 87.1341 87.6212 88.2037 88.2515C90.15 89.3614 91.684 92.0053 91.684 94.2651V94.2682L91.6398 107.712C91.6378 108.004 91.483 108.274 91.2297 108.421L68.3474 121.711C68.2187 121.786 68.0759 121.823 67.9332 121.823ZM65.2631 101.511C65.2772 101.519 65.2933 101.527 65.3074 101.536C67.2717 102.694 68.8017 105.336 68.8017 107.557L68.7615 119.566L89.9932 107.234L90.0354 94.2651C90.0354 92.5994 88.819 90.4983 87.3774 89.677C86.8265 89.3513 86.3279 89.2729 86.0102 89.4589L65.2631 101.511Z" fill="black"/>
<path d="M67.9344 121L90.82 107.7L103.577 115.065L80.6912 128.365L67.9344 121Z" fill="white"/>
<path d="M80.6902 129.188C80.5475 129.188 80.4067 129.152 80.2781 129.077L67.523 121.712C67.2697 121.566 67.1129 121.294 67.1108 121.001C67.1108 120.707 67.2677 120.436 67.521 120.288L90.4053 106.988C90.6627 106.839 90.9743 106.838 91.2316 106.987L103.989 114.353C104.242 114.5 104.399 114.771 104.401 115.065C104.401 115.358 104.244 115.629 103.991 115.777L81.1044 129.076C80.9757 129.151 80.833 129.188 80.6902 129.188ZM69.5778 120.998L80.6882 127.412L101.934 115.068L90.8215 108.652L69.5778 120.998Z" fill="black"/>
<path d="M105.773 122.405L82.8098 135.57C83.3613 135.254 83.7061 134.578 83.7145 133.611C83.7316 131.658 82.3677 129.28 80.6736 128.288L103.637 115.124C105.331 116.115 106.695 118.493 106.678 120.447C106.67 121.413 106.325 122.089 105.773 122.405Z" fill="white"/>
<path d="M82.8093 136.393C82.5238 136.393 82.2463 136.245 82.0955 135.979C81.8683 135.585 82.0051 135.082 82.3991 134.855L82.4032 134.853C82.7088 134.676 82.8857 134.222 82.8897 133.604C82.9058 131.952 81.6995 129.843 80.2579 128.999C80.0045 128.85 79.8497 128.577 79.8497 128.284C79.8517 127.99 80.0106 127.72 80.2639 127.573L103.227 114.409C103.48 114.262 103.796 114.262 104.053 114.413C106.005 115.555 107.521 118.208 107.503 120.454C107.489 121.693 107.021 122.639 106.184 123.12L83.2194 136.285C83.0888 136.358 82.948 136.393 82.8093 136.393ZM82.1559 128.387C83.5673 129.722 84.5545 131.804 84.5384 133.619V133.63L105.364 121.69C105.669 121.515 105.848 121.059 105.854 120.438C105.869 118.936 104.869 117.054 103.605 116.092L82.1559 128.387Z" fill="black"/>
<path d="M64.9002 102.258C66.6001 103.24 67.9779 105.61 67.9724 107.564L67.9343 121L80.6911 128.365C82.391 129.346 83.7689 131.716 83.7633 133.67C83.7578 135.623 82.371 136.398 80.6711 135.416L64.8321 126.272C64.0305 125.809 63.2439 124.973 62.6649 123.986C62.1003 123.008 61.7711 121.895 61.7737 120.974L61.8218 104.013C61.8273 102.059 63.2141 101.285 64.9002 102.258Z" fill="#FFD63C"/>
<path d="M82.0674 136.662C81.4924 136.662 80.8731 136.483 80.2599 136.129L64.4206 126.984C63.5078 126.458 62.6091 125.517 61.9557 124.404C61.3123 123.291 60.9464 122.042 60.9484 120.973L60.9966 104.01C61.0006 102.767 61.4671 101.815 62.3115 101.329C63.1459 100.85 64.2437 100.928 65.3133 101.544C67.2716 102.676 68.8017 105.321 68.7976 107.566L68.7594 120.525L81.1023 127.652C83.0606 128.783 84.5927 131.427 84.5886 133.672C84.5846 134.915 84.1182 135.866 83.2757 136.35C82.9138 136.558 82.5037 136.662 82.0674 136.662ZM63.5279 102.661C63.3771 102.661 63.2424 102.693 63.1319 102.757C62.8242 102.934 62.6473 103.393 62.6453 104.015L62.597 120.977C62.595 121.753 62.8866 122.724 63.3792 123.574C63.8898 124.445 64.5714 125.17 65.245 125.558L81.0842 134.704C81.6391 135.024 82.1337 135.104 82.4554 134.923C82.761 134.746 82.938 134.289 82.94 133.667C82.944 132.016 81.7256 129.913 80.278 129.077L67.5229 121.712C67.2676 121.566 67.1108 121.292 67.1108 120.998L67.149 107.562C67.153 105.909 65.9346 103.807 64.489 102.971C64.1351 102.767 63.8014 102.661 63.5279 102.661Z" fill="black"/>
<path d="M110.876 10.4927C115.556 7.79091 119.362 9.96046 119.378 15.3376L119.523 72.1801C119.538 77.5572 115.756 84.1082 111.076 86.81L38.0142 128.992C33.3346 131.694 29.5278 129.525 29.5126 124.147L29.3675 67.305C29.3522 61.9279 33.1342 55.3769 37.8139 52.6751L110.876 10.4927Z" fill="white"/>
<path d="M20.4777 62.1357L20.6253 118.996C20.6458 121.663 21.5913 123.532 23.1028 124.414L31.9861 129.58C30.4531 128.698 29.5292 126.829 29.5087 124.141L29.361 67.3018C29.361 64.6524 30.2859 61.72 31.7749 59.1026L22.8936 53.9375C21.4016 56.5548 20.4777 59.4866 20.4777 62.1357Z" fill="#F4C531"/>
<path d="M108.03 4.74029C106.477 3.83727 104.355 3.96327 102.004 5.32825L28.9416 47.5191C26.5656 48.8826 24.4286 51.2433 22.8936 53.9375L31.7748 59.1026C33.3079 56.4088 35.4387 54.0486 37.8034 52.6853L110.865 10.4945C113.238 9.1294 115.36 9.0034 116.913 9.90655L108.03 4.74029Z" fill="#FFD63C"/>
<path d="M37.7685 67.2809C37.7603 64.9122 39.9424 61.1448 42.0137 59.9491L104.672 23.774C107.485 22.1502 111.002 24.1741 111.011 27.4218L111.122 72.2034C111.13 74.5722 108.948 78.3396 106.877 79.5353L44.216 115.711C41.4033 117.335 37.8864 115.311 37.8774 112.063L37.7685 67.2809Z" fill="white"/>
<path d="M111.119 72.2085C111.14 74.5757 108.94 78.3463 106.867 79.5403L44.2107 115.718C41.4039 117.331 37.8843 115.32 37.8843 112.073L37.8219 95.7123C47.0593 97.8071 57.6387 97.4719 68.1966 94.225C94.0677 86.2647 110.093 58.0648 103.997 38.248C102.761 34.2678 100.729 30.6856 98.0477 27.5853L104.667 23.7728C107.495 22.1597 110.994 24.1708 111.014 27.4177L111.119 72.2085Z" fill="#E9EDF4"/>
<path d="M34.2119 130.983C33.2609 130.983 32.3763 130.758 31.5881 130.305C29.7263 129.233 28.6969 127.047 28.6889 124.149L28.5441 67.3076C28.528 61.675 32.5009 54.7908 37.4027 51.9619L110.465 9.78016C113.002 8.31245 115.433 8.10134 117.301 9.18001C119.163 10.2506 120.192 12.4361 120.202 15.3354L120.347 72.1782C120.363 77.8098 116.39 84.694 111.488 87.5229L38.4261 129.706C36.9563 130.555 35.5208 130.983 34.2119 130.983ZM114.675 10.1511C113.656 10.1511 112.501 10.506 111.289 11.2057L38.227 53.3884C33.7817 55.9549 30.1767 62.1967 30.1928 67.3036L30.3375 124.145C30.3436 126.43 31.0794 128.111 32.4104 128.877C33.7535 129.65 35.5972 129.436 37.6017 128.28L110.664 86.0974C115.109 83.5309 118.714 77.2881 118.698 72.1822L118.553 15.3394C118.547 13.0534 117.809 11.3725 116.478 10.6075C115.95 10.3019 115.34 10.1511 114.675 10.1511Z" fill="black"/>
<path d="M31.9862 130.403C31.8454 130.403 31.7047 130.368 31.576 130.294C31.574 130.294 31.574 130.293 31.572 130.292C31.5599 130.285 31.5479 130.278 31.5358 130.271L22.6893 125.125C20.8496 124.053 19.8242 121.878 19.8001 119.002L19.6533 62.1373C19.6533 62.1363 19.6533 62.1384 19.6533 62.1373C19.6533 59.4442 20.55 56.3861 22.1786 53.5291C22.2872 53.3391 22.4681 53.1994 22.6812 53.1421C22.8903 53.0827 23.1175 53.1129 23.3085 53.2255L32.1892 58.3906C32.5793 58.6178 32.714 59.1175 32.4908 59.5095C31.003 62.1233 30.1847 64.8908 30.1847 67.3015L30.3335 124.138C30.3496 126.412 31.0713 128.084 32.3662 128.848L32.4003 128.868C32.7924 129.096 32.9271 129.599 32.6999 129.992C32.5471 130.256 32.2696 130.403 31.9862 130.403ZM21.302 62.1333L21.4488 118.993C21.4669 121.261 22.2027 122.935 23.5176 123.702L29.0749 126.934C28.8255 126.107 28.6928 125.172 28.6848 124.146L28.536 67.3035C28.536 64.8335 29.29 62.0589 30.6692 59.412L23.214 55.0752C21.9755 57.4668 21.302 59.9458 21.302 62.1333Z" fill="black"/>
<path d="M31.7751 59.9256C31.6303 59.9256 31.4876 59.8884 31.3609 59.814L22.4802 54.6488C22.0902 54.4216 21.9555 53.922 22.1786 53.5299C23.8575 50.5804 26.1153 48.1919 28.532 46.8046L101.592 4.61579C104.129 3.14405 106.562 2.93696 108.444 4.0287L117.327 9.19486C117.721 9.42407 117.854 9.92771 117.624 10.3208C117.395 10.7128 116.895 10.8486 116.498 10.6183L116.496 10.6163C115.151 9.83925 113.302 10.0463 111.275 11.2084L38.2149 53.3982C36.0576 54.6418 34.0249 56.8122 32.4909 59.5094C32.3823 59.7004 32.2013 59.8401 31.9902 59.8974C31.9198 59.9165 31.8475 59.9256 31.7751 59.9256ZM24.0284 53.6435L31.4836 57.9803C33.1061 55.3616 35.183 53.2454 37.3906 51.9717L110.453 9.78195C111.38 9.24814 112.292 8.88121 113.169 8.68116L107.616 5.45218C106.263 4.66605 104.419 4.87716 102.418 6.04028L29.3544 48.2321C27.376 49.3671 25.5061 51.2711 24.0284 53.6435Z" fill="black"/>
<path d="M42.1034 117.108C41.2388 117.108 40.3743 116.882 39.5861 116.428C38.0058 115.52 37.0588 113.889 37.0528 112.066L36.9442 67.2831C36.9362 64.6341 39.2865 60.5728 41.6007 59.2358L104.26 23.0616C105.838 22.1478 107.724 22.1488 109.303 23.0566C110.883 23.9653 111.83 25.5959 111.836 27.4185L111.947 72.2009C111.955 74.8498 109.604 78.9122 107.288 80.2492L44.6286 116.423C43.8385 116.88 42.9699 117.108 42.1034 117.108ZM106.785 24.0257C106.2 24.0257 105.617 24.1795 105.084 24.4871L42.425 60.6612C40.6276 61.7007 38.5849 65.2252 38.5929 67.278L38.7015 112.061C38.7035 113.289 39.3428 114.388 40.4064 115.001C41.4761 115.614 42.7427 115.613 43.8043 114.998L106.464 78.8227C108.299 77.7632 110.306 74.301 110.298 72.2059L110.187 27.4235C110.185 26.1961 109.546 25.0963 108.482 24.4841C107.952 24.1785 107.368 24.0257 106.785 24.0257Z" fill="black"/>
<path d="M93.7568 35.9784C94.6146 35.4832 95.3041 35.8928 95.3069 36.8672C95.3097 37.8531 94.6247 39.045 93.7669 39.5403C92.9141 40.0327 92.215 39.6399 92.2122 38.6539C92.2094 37.6795 92.904 36.4708 93.7568 35.9784Z" fill="black"/>
<path d="M99.5198 32.6513C100.378 32.1561 101.067 32.5657 101.07 33.5401C101.073 34.526 100.388 35.7179 99.5299 36.2131C98.677 36.7055 97.9779 36.3127 97.9751 35.3268C97.9723 34.3524 98.6669 33.1437 99.5198 32.6513Z" fill="black"/>
<path d="M105.283 29.3236C106.141 28.8284 106.83 29.238 106.833 30.2124C106.836 31.1984 106.151 32.3902 105.293 32.8855C104.44 33.3779 103.741 32.9851 103.738 31.9991C103.735 31.0248 104.43 29.816 105.283 29.3236Z" fill="black"/>
<path d="M76.5145 78.5303L76.5413 87.9599L56.9288 99.2832C54.6668 100.589 52.8267 99.5244 52.8194 96.9253C52.812 94.3262 54.64 91.1595 56.902 89.8536L76.5145 78.5303Z" fill="#FFD63C"/>
<path d="M55.0997 100.669C54.5669 100.669 54.0663 100.54 53.6159 100.281C52.5744 99.6823 51.9994 98.4911 51.9954 96.9269C51.9873 94.0206 53.9617 90.6006 56.489 89.1409L76.1021 77.8174C76.3595 77.6686 76.6711 77.6696 76.9244 77.8164C77.1798 77.9632 77.3366 78.2336 77.3386 78.5281L77.3648 87.9577C77.3648 88.2522 77.2079 88.5257 76.9526 88.6725L57.3415 99.996C56.5674 100.443 55.8054 100.669 55.0997 100.669ZM75.694 79.9546L57.3133 90.5664C55.3168 91.7195 53.636 94.6298 53.6441 96.9218C53.6461 97.8608 53.9356 98.5645 54.4382 98.854C54.9429 99.1435 55.7009 99.04 56.5172 98.5705L75.7161 87.4852L75.694 79.9546Z" fill="black"/>
<path d="M91.9479 69.6199C94.2096 68.3141 96.0638 69.3549 96.0712 71.9539C96.0785 74.553 94.2363 77.7438 91.9747 79.0495L76.5413 87.96L76.5145 78.5304L91.9479 69.6199Z" fill="white"/>
<path d="M76.5404 88.7832C76.3977 88.7832 76.2569 88.747 76.1303 88.6736C75.8749 88.5268 75.7181 88.2564 75.7161 87.9619L75.6899 78.5323C75.6899 78.2377 75.8468 77.9643 76.1021 77.8175L91.5352 68.9067C92.9044 68.1155 94.2294 68.015 95.2789 68.6162C96.3164 69.2133 96.8894 70.3975 96.8954 71.9507C96.9035 74.867 94.9231 78.2981 92.3877 79.7617L76.9526 88.6726C76.8239 88.747 76.6832 88.7832 76.5404 88.7832ZM77.3386 79.0048L77.3607 86.5354L91.5634 78.3363C93.5679 77.1792 95.2548 74.2568 95.2468 71.9567C95.2447 71.0278 94.9572 70.3312 94.4566 70.0437C93.9479 69.7521 93.1819 69.8577 92.3596 70.3322L77.3386 79.0048Z" fill="black"/>
<path d="M74.0739 54.8461C74.1985 54.8461 74.3373 54.8059 74.48 54.7235C74.9404 54.4581 75.2983 53.8408 75.2963 53.3201L75.2863 49.7272C75.2863 49.4538 75.1898 49.2467 75.0108 49.1441C74.8319 49.0416 74.6007 49.0577 74.3594 49.1984C73.899 49.4658 73.5411 50.0911 73.5431 50.6179L73.5532 54.2087C73.5532 54.4782 73.6476 54.6812 73.8226 54.7818C73.897 54.826 73.9834 54.8461 74.0739 54.8461Z" fill="black"/>
<path d="M75.061 67.1142C74.88 67.0117 74.6528 67.0298 74.4116 67.1685C73.9512 67.4339 73.5913 68.0572 73.5933 68.5859L73.6033 72.1768C73.6033 72.4502 73.7039 72.6593 73.8808 72.7599C73.9572 72.8041 74.0416 72.8262 74.1321 72.8262C74.2568 72.8262 74.3915 72.786 74.5302 72.7056C74.9906 72.4402 75.3505 71.8169 75.3485 71.2881L75.3384 67.6973C75.3384 67.4238 75.2379 67.2147 75.061 67.1142Z" fill="black"/>
<path d="M84.4182 54.5121C84.2433 54.4096 84.0161 54.4277 83.7788 54.5664L80.6403 56.378C80.188 56.6373 79.8341 57.2526 79.8341 57.7753C79.8341 58.0507 79.9346 58.2578 80.1136 58.3624C80.19 58.4046 80.2744 58.4267 80.3649 58.4267C80.4855 58.4267 80.6162 58.3885 80.7509 58.3101L83.8874 56.4986C84.3338 56.2412 84.6957 55.6079 84.6937 55.0892C84.6937 54.8178 84.5951 54.6127 84.4182 54.5121Z" fill="black"/>
<path d="M78.5152 54.3935C78.6379 54.3935 78.7706 54.3553 78.9093 54.2749C79.1264 54.1503 79.3315 53.9331 79.4843 53.6697L81.6959 49.8537C81.905 49.4938 81.9815 49.1057 81.903 48.8142C81.8608 48.6594 81.7744 48.5408 81.6517 48.4704C81.4708 48.3719 81.2395 48.392 81.0003 48.5327C80.7811 48.6574 80.5761 48.8725 80.4233 49.1379L78.2237 52.9479C78.0146 53.3078 77.9382 53.6959 78.0166 53.9874C78.0588 54.1422 78.1453 54.2608 78.2659 54.3292C78.3403 54.3734 78.4248 54.3935 78.5152 54.3935Z" fill="black"/>
<path d="M69.9824 67.6172C69.7652 67.7419 69.5582 67.959 69.4054 68.2224L67.1957 72.0505C66.9866 72.4124 66.9102 72.8005 66.9887 73.092C67.0309 73.2488 67.1173 73.3654 67.238 73.4358C67.3103 73.476 67.3948 73.4961 67.4833 73.4961C67.6099 73.4961 67.7466 73.4559 67.8854 73.3755C68.1065 73.2488 68.3136 73.0317 68.4664 72.7663L70.668 68.9563C70.9957 68.3732 70.9756 67.762 70.6258 67.5629C70.4509 67.4584 70.2196 67.4765 69.9824 67.6172Z" fill="black"/>
<path d="M69.0555 64.1166C69.0555 63.8452 68.957 63.6401 68.782 63.5396C68.6071 63.4411 68.3779 63.4551 68.1407 63.5959L65.0022 65.4054C64.5498 65.6668 64.1959 66.28 64.1959 66.8028C64.1959 67.0822 64.2965 67.2913 64.4734 67.3939C64.5478 67.4361 64.6322 67.4582 64.7207 67.4582C64.8433 67.4582 64.976 67.418 65.1127 67.3396L68.2492 65.528C68.6956 65.2707 69.0575 64.6374 69.0555 64.1166Z" fill="black"/>
<path d="M81.6959 63.7225L79.4723 62.4518C79.2913 62.3533 79.0681 62.3734 78.8289 62.5081C78.6117 62.6327 78.4067 62.8499 78.2538 63.1133C77.9261 63.6823 77.9422 64.2955 78.2941 64.5086L80.5077 65.7733C80.5821 65.8155 80.6665 65.8356 80.757 65.8356C80.8797 65.8356 81.0144 65.7954 81.1511 65.7149C81.3702 65.5903 81.5793 65.3732 81.7382 65.1037C81.9473 64.7418 82.0237 64.3538 81.9453 64.0643C81.903 63.9074 81.8166 63.7888 81.6959 63.7225Z" fill="black"/>
<path d="M67.1937 58.1854L69.4194 59.44C69.4937 59.4822 69.5782 59.5023 69.6667 59.5023C69.7893 59.5023 69.924 59.4621 70.0627 59.3837C70.2799 59.2591 70.485 59.0419 70.6378 58.7785C70.8469 58.4166 70.9233 58.0286 70.8448 57.7371C70.8026 57.5802 70.7162 57.4636 70.5955 57.3953L68.3839 56.1346C68.209 56.0301 67.9798 56.0522 67.7325 56.1929C67.5093 56.3236 67.3022 56.5388 67.1514 56.8001C66.9423 57.162 66.8659 57.5501 66.9443 57.8416C66.9866 57.9984 67.073 58.115 67.1937 58.1854Z" fill="black"/>
</svg>
