<svg width="110" height="110" viewBox="0 0 110 110" fill="none" xmlns="http://www.w3.org/2000/svg">
<path d="M55 3C83.7188 3 107 26.2812 107 55C107 83.7188 83.7188 107 55 107C26.2812 107 3 83.7188 3 55C3 26.2812 26.2812 3 55 3Z" fill="white" stroke="#181818" stroke-width="6"/>
<path d="M64.1229 76.4734L56.1695 84.4269C55.5216 85.0747 54.4716 85.0747 53.8311 84.4269L45.8777 76.4734C45.1777 75.7734 45.2373 74.6042 46.0192 74.001C48.4991 72.0723 51.6194 70.9329 55.0003 70.9329C58.3812 70.9329 61.5015 72.0797 63.9814 74.001C64.7633 74.6117 64.8304 75.7734 64.1229 76.4734Z" fill="#FFD63C"/>
<path d="M77.9297 62.6659L71.7934 68.8022C71.1753 69.4203 70.1923 69.4427 69.5295 68.8692C65.6347 65.4809 60.5633 63.4329 55.0004 63.4329C49.4375 63.4329 44.3586 65.4809 40.4713 68.8692C39.8085 69.4427 38.8255 69.4203 38.2074 68.8022L32.071 62.6659C31.4008 61.9957 31.4231 60.9009 32.1232 60.2679C38.1701 54.7944 46.1906 51.4656 55.0004 51.4656C63.8102 51.4656 71.8306 54.7944 77.8776 60.2679C78.5776 60.9009 78.6 61.9957 77.9297 62.6659Z" fill="#FFD63C"/>
<path d="M91.7067 48.8898L85.5704 55.0262C84.9448 55.6517 83.9395 55.6815 83.2916 55.0783C75.8669 48.1898 65.9252 43.9822 55.0004 43.9822C44.0756 43.9822 34.1339 48.1898 26.7092 55.0783C26.0613 55.6815 25.0485 55.6517 24.4304 55.0262L18.2941 48.8898C17.6313 48.227 17.6536 47.1398 18.3388 46.4993C27.9231 37.5108 40.8139 32 55.0004 32C69.187 32 82.0777 37.5108 91.6621 46.4993C92.3472 47.1398 92.377 48.227 91.7067 48.8898Z" fill="#FFD63C"/>
<path d="M35 82L87 30" stroke="white" stroke-width="8" stroke-miterlimit="10"/>
<path d="M5 106L106 5" stroke="#181818" stroke-width="6" stroke-miterlimit="10"/>
</svg>
