<svg width="203" height="165" viewBox="0 0 203 165" fill="none" xmlns="http://www.w3.org/2000/svg">
<rect x="60" y="64" width="80" height="80" rx="20" fill="#181818"/>
<path d="M108.861 81.2696C110.957 80.0587 112.666 81.0277 112.673 83.4377L112.758 113.536C112.765 115.952 111.067 118.889 108.971 120.1L94.3065 128.571C92.2102 129.782 90.5056 128.81 90.4988 126.394L90.4135 96.2963C90.4067 93.8863 92.1002 90.9516 94.1965 89.7406L108.861 81.2696Z" fill="white"/>
<path d="M108.239 85.0858C109.339 84.4505 110.242 84.9654 110.245 86.2297L110.323 113.562C110.326 114.826 109.43 116.38 108.33 117.016L94.9327 124.755C93.8329 125.39 92.9301 124.875 92.9265 123.611L92.8491 96.2738C92.8455 95.0046 93.7337 93.4652 94.8378 92.8273L96.4592 91.8907C96.6548 91.7777 96.8118 91.8723 96.8124 92.0973L96.8138 92.5919C96.8149 92.9717 97.0853 93.1211 97.4113 92.9328L105.679 88.1567C106.009 87.9659 106.274 87.5076 106.273 87.1278L106.271 86.6332C106.271 86.4082 106.431 86.1303 106.626 86.0174L108.239 85.0858Z" fill="white"/>
<path d="M110.319 113.561C110.326 114.829 109.427 116.381 108.333 117.019L94.9323 124.756C93.8304 125.394 92.931 124.876 92.9233 123.608L92.916 120.203C93.8304 120.526 94.7823 120.691 95.7643 120.691C102.736 120.691 109.247 111.746 109.247 101.306C109.247 96.1982 107.89 91.5634 105.679 88.1583C106.009 87.9635 106.271 87.5057 106.271 87.1307V86.6356C106.271 86.4107 106.429 86.1331 106.624 86.0207L108.243 85.0832C109.337 84.4533 110.244 84.9634 110.244 86.2305L110.319 113.561Z" fill="#E9EDF4"/>
<path d="M87.3313 124.553C87.3313 125.753 87.7586 126.593 88.4407 126.991L91.6042 128.836C90.9219 128.438 90.5021 127.598 90.5021 126.391L90.4122 96.2929C90.4091 95.3005 90.7065 94.2231 91.1909 93.209L88.0209 91.3647C87.5359 92.3795 87.2384 93.4595 87.2415 94.4556" fill="#F4C531"/>
<path d="M94.1977 89.7383L108.857 81.2732C109.914 80.6583 110.874 80.6056 111.563 81.0033L108.392 79.1583C107.703 78.7606 106.743 78.8133 105.694 79.4282L91.027 87.9006C89.7939 88.61 88.7116 89.9192 88.0209 91.365L91.1909 93.2092C91.8816 91.7638 92.9641 90.4524 94.1977 89.7383Z" fill="#F4C531"/>
<path d="M92.603 129.412C92.187 129.412 91.8 129.313 91.4561 129.116C90.6375 128.645 90.1846 127.679 90.1811 126.396L90.0958 96.2977C90.0889 93.7905 91.857 90.7257 94.0373 89.4655L108.702 80.9946C109.823 80.3479 110.894 80.2517 111.717 80.7255C112.535 81.1963 112.987 82.1594 112.991 83.4375L113.076 113.536C113.083 116.045 111.312 119.114 109.129 120.376L94.4654 128.846C93.8148 129.222 93.1812 129.412 92.603 129.412ZM109.02 81.5452L94.3553 90.0161C92.3506 91.1739 90.7248 93.9913 90.731 96.2961L90.8163 126.394C90.8194 127.441 91.159 128.212 91.7725 128.565C92.3902 128.92 93.2335 128.825 94.1475 128.296L108.811 119.825C110.819 118.665 112.447 115.844 112.441 113.537L112.356 83.439C112.352 82.3968 112.013 81.629 111.401 81.2761C110.782 80.921 109.936 81.0148 109.02 81.5452Z" fill="black"/>
<path d="M94.0397 125.346C93.7938 125.346 93.5635 125.287 93.3572 125.169C92.8768 124.892 92.6112 124.339 92.6089 123.612L92.5317 96.2742C92.5274 94.8853 93.4704 93.2505 94.6787 92.5518L96.3003 91.615C96.4937 91.5041 96.6993 91.4947 96.8656 91.5909C97.0331 91.6871 97.1293 91.8716 97.1301 92.0965L97.1316 92.5905C97.132 92.6619 97.1479 92.6968 97.1537 92.7038C97.1494 92.6976 97.189 92.6945 97.2522 92.6572L105.52 87.8809C105.753 87.7467 105.956 87.3954 105.955 87.1287L105.954 86.6339C105.953 86.295 106.174 85.9111 106.468 85.742L108.08 84.8099C108.716 84.4431 109.332 84.3934 109.815 84.6711C110.295 84.9479 110.561 85.5009 110.563 86.2291L110.64 113.56C110.644 114.929 109.679 116.603 108.489 117.29L95.0916 125.03C94.7275 125.24 94.3696 125.346 94.0397 125.346ZM96.4953 92.2377L94.9966 93.1024C93.9842 93.6871 93.1633 95.1094 93.1668 96.2726L93.244 123.61C93.2455 124.101 93.3983 124.459 93.674 124.618C93.9516 124.777 94.3421 124.73 94.7737 124.479L108.171 116.74C109.169 116.164 110.008 114.709 110.005 113.562L109.928 86.2306C109.926 85.7389 109.774 85.3807 109.498 85.2217C109.22 85.0627 108.83 85.1108 108.398 85.3605L106.785 86.2927C106.689 86.3477 106.589 86.5222 106.589 86.6323L106.59 87.1271C106.592 87.6226 106.268 88.1833 105.838 88.4315L97.5702 93.2078C97.3123 93.3567 97.0428 93.3707 96.8307 93.2497C96.6186 93.1272 96.4969 92.8876 96.4965 92.5921L96.4953 92.2377Z" fill="black"/>
<path d="M91.6038 129.154C91.5495 129.154 91.4944 129.14 91.444 129.111L88.2808 127.266C87.4638 126.789 87.0136 125.826 87.0136 124.554L86.924 94.4567C86.9209 93.4601 87.2012 92.3434 87.7344 91.2275C87.7728 91.1476 87.8426 91.0871 87.9275 91.0615C88.0117 91.0328 88.1043 91.0444 88.1807 91.0902L91.3506 92.9351C91.4937 93.0181 91.5487 93.1972 91.4774 93.3469C90.9857 94.376 90.7271 95.3943 90.7298 96.2923L90.8198 126.39C90.8198 127.436 91.1552 128.207 91.7643 128.562C91.9159 128.65 91.9671 128.845 91.8787 128.996C91.8194 129.098 91.7131 129.154 91.6038 129.154ZM88.1644 91.8161C87.765 92.7389 87.5568 93.6447 87.5591 94.4551L87.6487 124.553C87.6487 125.591 87.9868 126.359 88.601 126.717L90.3928 127.762C90.2556 127.363 90.1846 126.902 90.1846 126.391L90.0947 96.2938C90.0916 95.3811 90.3285 94.3644 90.7818 93.3392L88.1644 91.8161Z" fill="black"/>
<path d="M91.1908 93.5274C91.1354 93.5274 91.0799 93.5127 91.0311 93.484L87.8612 91.639C87.7181 91.5561 87.6631 91.3769 87.7344 91.2272C88.4878 89.6506 89.6301 88.3377 90.8682 87.625L105.535 79.1526C106.633 78.5097 107.732 78.4112 108.551 78.8827L111.723 80.7284C111.875 80.8169 111.926 81.0107 111.838 81.162C111.75 81.3132 111.556 81.3644 111.405 81.2783C110.782 80.9184 109.934 81.0138 109.017 81.5474L94.3568 90.0136C93.2261 90.6689 92.1769 91.8825 91.4774 93.3467C91.4394 93.4266 91.3692 93.4871 91.2843 93.5127C91.2536 93.5227 91.2222 93.5274 91.1908 93.5274ZM88.4378 91.2396L91.0578 92.7643C91.8081 91.3257 92.8814 90.133 94.0389 89.4637L108.698 80.9975C109.155 80.7323 109.604 80.5586 110.031 80.4787L108.233 79.4326C107.618 79.0774 106.751 79.1759 105.854 79.7017L91.1858 88.1756C90.1237 88.7867 89.1334 89.8941 88.4378 91.2396Z" fill="black"/>
<path d="M99.0091 90.3197C98.8994 90.3197 98.7923 90.2623 98.7338 90.1607C98.6458 90.0087 98.6981 89.8141 98.8497 89.7265L103.923 86.7966C104.076 86.7105 104.27 86.7617 104.357 86.9129C104.445 87.0649 104.392 87.2596 104.241 87.3472L99.1677 90.2771C99.1177 90.3058 99.063 90.3197 99.0091 90.3197Z" fill="black"/>
<path d="M88.7146 105.713C88.5496 105.713 88.4152 105.579 88.4149 105.414L88.4086 103.348C88.4079 103.182 88.5419 103.048 88.7077 103.047C88.8728 103.047 89.0078 103.181 89.0082 103.346L89.0144 105.412C89.0151 105.578 88.8804 105.713 88.7146 105.713C88.715 105.713 88.7146 105.713 88.7146 105.713Z" fill="black"/>
<path d="M88.7026 101.725C88.5375 101.725 88.4032 101.592 88.4028 101.426L88.3922 97.8702C88.3915 97.7045 88.5254 97.5697 88.6912 97.5693C88.8563 97.5693 88.9913 97.703 88.9917 97.8684L89.0023 101.424C89.0031 101.59 88.8684 101.725 88.7026 101.725Z" fill="black"/>
<path d="M104.99 95.7457C105.075 95.697 105.163 95.6543 105.251 95.6217C105.514 95.524 105.776 95.4778 106.053 95.4801C106.306 95.4814 106.542 95.5312 106.72 95.5741C107.039 95.6551 107.26 95.906 107.358 96.3007C107.429 96.5793 107.509 96.9539 107.503 97.3761C107.485 98.5238 107.243 99.8316 106.779 101.263C106.307 102.725 105.68 104.239 104.859 105.891C104.049 107.531 103.212 108.972 102.3 110.296C101.415 111.582 100.48 112.651 99.5209 113.476C99.2874 113.671 99.0344 113.848 98.7216 114.028C98.6495 114.07 98.5775 114.11 98.5054 114.149C98.1013 114.373 97.7335 114.419 97.441 114.289C97.2788 114.212 97.0708 114.108 96.8873 113.959C96.6898 113.798 96.5431 113.611 96.4422 113.386C96.2349 112.941 96.3231 112.358 96.6874 111.747C97.3006 110.717 97.9225 109.692 98.5252 108.702C98.774 108.295 99.0495 108.003 99.3465 107.831C99.6804 107.638 100.027 107.608 100.374 107.741C100.438 107.766 100.499 107.793 100.559 107.825C100.676 107.877 100.79 107.94 100.912 108.008C100.931 108.019 100.958 108.016 100.986 107.999C101.005 107.988 101.04 107.964 101.07 107.908C101.784 106.591 103.286 103.564 103.888 102.227C103.905 102.189 103.912 102.148 103.907 102.117C103.9 102.087 103.882 102.069 103.855 102.064C103.704 102.038 103.575 102.015 103.45 101.988C103.405 101.978 103.361 101.965 103.315 101.955L103.255 101.939C102.571 101.727 102.397 101.099 102.759 100.167L102.843 99.9531C103.231 98.96 103.631 97.9355 104.036 96.9283C104.253 96.3902 104.583 95.9812 104.99 95.7457Z" fill="#FFD63C"/>
<path d="M102.789 101.643C102.735 101.583 102.693 101.517 102.664 101.446C102.693 101.452 102.729 101.458 102.759 101.464C102.789 101.47 102.807 101.488 102.813 101.517C102.819 101.553 102.813 101.589 102.795 101.631C102.795 101.637 102.789 101.637 102.789 101.643Z" fill="#F4C531"/>
<path d="M107.504 97.379C107.486 98.5256 107.242 99.8335 106.776 101.261C106.31 102.724 105.678 104.241 104.86 105.889C104.048 107.531 103.213 108.971 102.3 110.296C101.416 111.58 100.479 112.649 99.5181 113.474C99.2852 113.671 99.0346 113.85 98.7242 114.029C98.6467 114.071 98.575 114.107 98.5033 114.148C98.1034 114.375 97.7333 114.417 97.441 114.286C97.2798 114.214 97.0709 114.107 96.8858 113.957C96.8083 113.898 96.7424 113.832 96.683 113.76C96.9039 113.766 97.1484 113.701 97.411 113.551C97.4827 113.509 97.5544 113.474 97.6261 113.432C97.9423 113.253 98.1929 113.073 98.4258 112.876C99.3867 112.052 100.318 110.983 101.207 109.699C102.114 108.373 102.956 106.934 103.768 105.292C104.585 103.644 105.212 102.127 105.684 100.664C106.149 99.2363 106.394 97.9284 106.412 96.7818C106.412 96.3578 106.334 95.9815 106.263 95.7008C106.245 95.6232 106.221 95.5515 106.191 95.4858C106.388 95.4978 106.579 95.5396 106.722 95.5754C107.038 95.6531 107.259 95.9039 107.355 96.298C107.427 96.5787 107.51 96.955 107.504 97.379Z" fill="#F4C531"/>
<path d="M97.7947 114.679C97.5965 114.679 97.4352 114.634 97.3119 114.579C97.1126 114.485 96.8885 114.369 96.6872 114.206C96.4472 114.009 96.2727 113.785 96.1521 113.516C95.9013 112.977 95.9939 112.29 96.4147 111.584C97.0281 110.553 97.6508 109.527 98.2538 108.537C98.5318 108.083 98.8459 107.753 99.1879 107.556C99.6035 107.316 100.053 107.278 100.488 107.445C100.564 107.474 100.638 107.506 100.711 107.546C100.762 107.568 100.818 107.596 100.877 107.627C101.54 106.365 102.861 103.702 103.496 102.321C103.458 102.314 103.42 102.306 103.383 102.298C103.38 102.297 103.309 102.28 103.305 102.279C103.303 102.279 103.174 102.246 103.171 102.245C102.799 102.13 102.53 101.911 102.385 101.61C102.191 101.208 102.217 100.685 102.462 100.053L102.547 99.8371C102.936 98.8414 103.336 97.8169 103.742 96.8096C103.985 96.2047 104.362 95.7417 104.832 95.4703C104.932 95.4129 105.036 95.3625 105.141 95.3237C105.438 95.2128 105.718 95.1414 106.055 95.1616C106.342 95.1639 106.602 95.2182 106.796 95.2655C107.232 95.3756 107.54 95.7161 107.666 96.2241C107.741 96.5187 107.827 96.9189 107.821 97.3803C107.803 98.5638 107.553 99.903 107.081 101.361C106.604 102.84 105.97 104.368 105.144 106.033C104.326 107.686 103.481 109.14 102.562 110.476C101.663 111.781 100.71 112.872 99.728 113.716C99.4744 113.929 99.2061 114.115 98.8808 114.303L98.6582 114.427C98.3197 114.614 98.0312 114.679 97.7947 114.679ZM99.9502 107.978C99.8013 107.978 99.6539 108.02 99.5054 108.106C99.2561 108.25 99.0176 108.506 98.7962 108.868C98.1944 109.856 97.5733 110.88 96.9606 111.909C96.6508 112.429 96.569 112.906 96.7303 113.252C96.8109 113.433 96.9276 113.581 97.0882 113.713C97.2363 113.833 97.4108 113.923 97.5771 114.002C97.8218 114.11 98.1339 113.992 98.3519 113.871L98.5624 113.754C98.8552 113.584 99.0948 113.419 99.3166 113.232C100.254 112.426 101.171 111.377 102.038 110.116C102.941 108.805 103.77 107.377 104.575 105.75C105.387 104.114 106.009 102.615 106.476 101.166C106.93 99.7673 107.168 98.4909 107.186 97.371C107.191 96.9848 107.116 96.6382 107.05 96.3792C106.981 96.1 106.844 95.9332 106.642 95.8821C106.482 95.8425 106.265 95.789 106.039 95.7975C105.805 95.7975 105.583 95.8371 105.361 95.9193C105.29 95.9456 105.218 95.9805 105.15 96.0201C105.15 96.0201 105.15 96.0201 105.15 96.0209C104.804 96.2202 104.521 96.5754 104.331 97.0469C103.926 98.0519 103.527 99.0748 103.14 100.065L103.055 100.283C102.878 100.737 102.844 101.1 102.957 101.334C103.026 101.476 103.154 101.575 103.349 101.636L103.46 101.663C103.639 101.704 103.763 101.725 103.91 101.75C104.034 101.772 104.186 101.919 104.215 102.042C104.236 102.156 104.221 102.261 104.177 102.358C103.575 103.696 102.068 106.734 101.349 108.059C101.301 108.149 101.234 108.221 101.149 108.272C101.052 108.331 100.856 108.342 100.757 108.285C100.641 108.221 100.536 108.162 100.43 108.115C100.36 108.078 100.312 108.057 100.262 108.038C100.156 107.998 100.053 107.978 99.9502 107.978Z" fill="black"/>
<path d="M98.1847 105.504C98.0099 105.504 97.8676 105.362 97.8672 105.187C97.8629 103.757 98.8319 102.074 100.073 101.357C100.226 101.27 100.42 101.322 100.507 101.473C100.595 101.625 100.543 101.819 100.391 101.908C99.3639 102.501 98.4988 104.002 98.5023 105.186C98.5031 105.361 98.3604 105.504 98.1847 105.504C98.1851 105.504 98.1847 105.504 98.1847 105.504Z" fill="black"/>
<path d="M95.6682 105.799C95.4933 105.799 95.351 105.657 95.3507 105.482C95.3441 103.124 97.0033 100.243 99.0494 99.0608C99.2022 98.9747 99.3961 99.0259 99.4833 99.1771C99.5713 99.3291 99.5194 99.523 99.3674 99.6114C97.4969 100.692 95.98 103.324 95.9858 105.48C95.9862 105.656 95.8439 105.798 95.6682 105.799C95.6686 105.799 95.6682 105.799 95.6682 105.799Z" fill="black"/>
<g clip-path="url(#clip0_2001_616)">
<mask id="mask0_2001_616" style="mask-type:luminance" maskUnits="userSpaceOnUse" x="13" y="0" width="53" height="53">
<path d="M65.4691 5.8324L18.8324 0L13 46.6367L59.6367 52.4691L65.4691 5.8324Z" fill="white"/>
</mask>
<g mask="url(#mask0_2001_616)">
<path d="M36.3184 49.5529C38.406 27.3771 37.9227 26.7597 15.9162 23.3184C38.092 25.406 38.7095 24.9227 42.1508 2.9162C40.0631 25.092 40.5464 25.7095 62.5529 29.1508C40.3767 27.0666 39.7605 27.5397 36.3184 49.5529Z" fill="#FDDD62"/>
</g>
</g>
<g clip-path="url(#clip1_2001_616)">
<mask id="mask1_2001_616" style="mask-type:luminance" maskUnits="userSpaceOnUse" x="0" y="126" width="39" height="39">
<path d="M25.1766 126L0 139.741L13.7411 164.918L38.9177 151.177L25.1766 126Z" fill="white"/>
</mask>
<g mask="url(#mask1_2001_616)">
<path d="M26.3294 158.047C19.4559 146.32 18.9964 146.187 6.87055 152.33C18.5975 145.456 18.731 144.996 12.5883 132.871C19.4618 144.598 19.9213 144.731 32.0472 138.588C20.3212 145.464 20.1847 145.918 26.3294 158.047Z" fill="#E5C340"/>
</g>
</g>
<g clip-path="url(#clip2_2001_616)">
<mask id="mask2_2001_616" style="mask-type:luminance" maskUnits="userSpaceOnUse" x="165" y="79" width="38" height="38">
<path d="M202.405 93.8223L179.822 79L165 101.582L187.582 116.405L202.405 93.8223Z" fill="white"/>
</mask>
<g mask="url(#mask2_2001_616)">
<path d="M176.291 108.993C182.985 98.0819 182.892 97.6409 172.411 90.2912C183.323 96.9854 183.764 96.8925 191.113 86.4112C184.419 97.3227 184.512 97.7637 194.993 105.113C184.081 98.4209 183.643 98.5088 176.291 108.993Z" fill="#181818"/>
</g>
</g>
<defs>
<clipPath id="clip0_2001_616">
<rect width="47" height="47" fill="white" transform="translate(18.8324) rotate(7.12842)"/>
</clipPath>
<clipPath id="clip1_2001_616">
<rect width="28.6824" height="28.6824" fill="white" transform="translate(0 139.741) rotate(-28.6252)"/>
</clipPath>
<clipPath id="clip2_2001_616">
<rect width="27.0123" height="27.0123" fill="white" transform="translate(179.822 79) rotate(33.2797)"/>
</clipPath>
</defs>
</svg>
