<svg width="203" height="165" viewBox="0 0 203 165" fill="none" xmlns="http://www.w3.org/2000/svg">
<rect x="60" y="64" width="80" height="80" rx="20" fill="#181818"/>
<path d="M109.834 83.1543H89.1655C83.0731 83.1543 78.1343 88.0931 78.1343 94.1855V114.855C78.1343 120.947 83.0731 125.886 89.1655 125.886H109.834C115.927 125.886 120.866 120.947 120.866 114.855V94.1855C120.866 88.0931 115.927 83.1543 109.834 83.1543Z" fill="url(#paint0_linear_2001_615)"/>
<path d="M99.5 88.998C96.8311 88.9985 94.2094 89.7018 91.8987 91.0373C89.588 92.3727 87.6698 94.2932 86.337 96.6054C85.0042 98.9177 84.3039 101.54 84.3065 104.209C84.3091 106.878 85.0146 109.499 86.3519 111.809L84.2865 119.715L92.3233 117.586C94.3597 118.677 96.6179 119.289 98.9263 119.376C101.235 119.463 103.532 119.022 105.645 118.087C107.757 117.152 109.629 115.748 111.117 113.982C112.606 112.215 113.672 110.132 114.234 107.892C114.796 105.651 114.841 103.312 114.363 101.052C113.886 98.7917 112.899 96.6702 111.479 94.8485C110.058 93.0269 108.241 91.5532 106.165 90.5394C104.09 89.5256 101.81 88.9985 99.5 88.998ZM108.436 113.129C106.395 115.168 103.719 116.448 100.851 116.757C97.9836 117.066 95.0963 116.385 92.6685 114.828L87.9997 116.066L89.193 111.506C87.7989 109.541 86.9954 107.219 86.8771 104.813C86.7588 102.407 87.3307 100.017 88.5254 97.9249C89.7201 95.833 91.4879 94.1261 93.6203 93.0054C95.7528 91.8847 98.1612 91.3968 100.562 91.5993C102.962 91.8018 105.255 92.6861 107.169 94.1482C109.084 95.6102 110.541 97.5891 111.368 99.8516C112.196 102.114 112.359 104.566 111.84 106.918C111.32 109.27 110.139 111.425 108.436 113.129Z" fill="white"/>
<path d="M107.114 108.172C107.114 108.422 107.093 108.671 107.05 108.917C107.01 109.167 106.949 109.413 106.867 109.652C106.678 110.183 105.65 110.834 105.65 110.834C104.92 111.32 104.047 111.547 103.172 111.477C102.967 111.456 102.763 111.423 102.561 111.379C102.22 111.303 102.054 111.254 102.054 111.254C101.889 111.206 101.46 111.071 101.46 111.071C101.031 110.937 100.935 110.911 100.935 110.911C100.284 110.715 99.6526 110.458 99.0502 110.143C97.6613 109.388 96.1485 108.036 96.1485 108.036C95.2528 107.24 94.443 106.352 93.7324 105.387C93.3544 104.822 93.0287 104.224 92.7593 103.6C92.7226 103.508 92.5418 103.096 92.5418 103.096C92.3582 102.684 92.2939 102.526 92.2939 102.526C92.2278 102.366 92.1103 102.035 92.1103 102.035C92.0433 101.84 91.9884 101.641 91.946 101.44C91.9122 101.258 91.8896 101.074 91.8781 100.889C91.8248 99.9231 92.3049 98.9069 92.3049 98.9069C92.8328 97.8145 93.345 97.5648 93.345 97.5648C93.5741 97.4614 93.8103 97.3746 94.0518 97.305C94.2909 97.2309 94.537 97.1817 94.7862 97.1582C94.8608 97.1509 94.9361 97.1574 95.0084 97.1775C95.2011 97.2298 95.6096 97.944 95.6096 97.944C95.7363 98.1367 95.9557 98.4947 95.9557 98.4947C96.176 98.8509 96.3605 99.1373 96.3605 99.1373C96.5441 99.4265 96.7167 99.6798 96.7167 99.6798C96.7507 99.7202 96.915 99.9323 96.915 99.9323C97.0052 100.046 97.0875 100.167 97.161 100.292C97.2114 100.383 97.2427 100.483 97.2528 100.587C97.2638 100.797 96.9829 101.128 96.9829 101.128C96.7921 101.348 96.5853 101.553 96.3642 101.742C96.146 101.927 95.939 102.125 95.7446 102.335C95.4618 102.645 95.4692 102.834 95.4692 102.834C95.4802 102.914 95.5022 102.993 95.5344 103.067C95.5949 103.206 95.6362 103.277 95.6362 103.277C95.6766 103.348 95.7969 103.521 95.7969 103.521C95.9171 103.693 95.9282 103.713 95.9282 103.713C96.4823 104.58 97.1419 105.374 97.8917 106.077C98.9777 107.048 100.462 107.765 100.462 107.765C100.484 107.774 100.669 107.875 100.669 107.875C100.852 107.976 100.928 108.008 100.928 108.008C101.004 108.041 101.149 108.085 101.149 108.085C101.226 108.111 101.306 108.124 101.387 108.124C101.576 108.114 101.854 107.798 101.854 107.798C102.04 107.581 102.214 107.354 102.373 107.116C102.537 106.876 102.717 106.648 102.914 106.434C103.212 106.118 103.422 106.106 103.422 106.106C103.526 106.105 103.629 106.124 103.725 106.163C103.858 106.223 103.986 106.291 104.11 106.367C104.34 106.507 104.385 106.536 104.385 106.536C104.661 106.679 104.966 106.83 104.966 106.83C105.274 106.981 105.652 107.16 105.652 107.16C106.03 107.339 106.236 107.443 106.236 107.443C106.992 107.77 107.062 107.955 107.062 107.955C107.09 108.025 107.107 108.098 107.114 108.172Z" fill="white"/>
<g clip-path="url(#clip0_2001_615)">
<mask id="mask0_2001_615" style="mask-type:luminance" maskUnits="userSpaceOnUse" x="13" y="0" width="53" height="53">
<path d="M65.4691 5.8324L18.8324 0L13 46.6367L59.6367 52.4691L65.4691 5.8324Z" fill="white"/>
</mask>
<g mask="url(#mask0_2001_615)">
<path d="M36.3184 49.5529C38.406 27.3771 37.9227 26.7597 15.9162 23.3184C38.092 25.406 38.7095 24.9227 42.1508 2.9162C40.0631 25.092 40.5464 25.7095 62.5529 29.1508C40.3767 27.0666 39.7605 27.5397 36.3184 49.5529Z" fill="#FDDD62"/>
</g>
</g>
<g clip-path="url(#clip1_2001_615)">
<mask id="mask1_2001_615" style="mask-type:luminance" maskUnits="userSpaceOnUse" x="0" y="126" width="39" height="39">
<path d="M25.1766 126L0 139.741L13.7411 164.918L38.9177 151.177L25.1766 126Z" fill="white"/>
</mask>
<g mask="url(#mask1_2001_615)">
<path d="M26.3294 158.047C19.4559 146.32 18.9964 146.187 6.87055 152.33C18.5975 145.456 18.731 144.996 12.5883 132.871C19.4618 144.598 19.9213 144.731 32.0472 138.588C20.3212 145.464 20.1847 145.918 26.3294 158.047Z" fill="#E5C340"/>
</g>
</g>
<g clip-path="url(#clip2_2001_615)">
<mask id="mask2_2001_615" style="mask-type:luminance" maskUnits="userSpaceOnUse" x="165" y="79" width="38" height="38">
<path d="M202.405 93.8223L179.822 79L165 101.582L187.582 116.405L202.405 93.8223Z" fill="white"/>
</mask>
<g mask="url(#mask2_2001_615)">
<path d="M176.291 108.993C182.985 98.0819 182.892 97.6409 172.411 90.2912C183.323 96.9854 183.764 96.8925 191.113 86.4112C184.419 97.3227 184.512 97.7637 194.993 105.113C184.081 98.4209 183.643 98.5088 176.291 108.993Z" fill="#181818"/>
</g>
</g>
<defs>
<linearGradient id="paint0_linear_2001_615" x1="99.5" y1="125.886" x2="99.5" y2="83.1543" gradientUnits="userSpaceOnUse">
<stop stop-color="#00D02D"/>
<stop offset="0.25" stop-color="#10D93A"/>
<stop offset="0.75" stop-color="#3AF15D"/>
<stop offset="1" stop-color="#51FE71"/>
</linearGradient>
<clipPath id="clip0_2001_615">
<rect width="47" height="47" fill="white" transform="translate(18.8324) rotate(7.12842)"/>
</clipPath>
<clipPath id="clip1_2001_615">
<rect width="28.6824" height="28.6824" fill="white" transform="translate(0 139.741) rotate(-28.6252)"/>
</clipPath>
<clipPath id="clip2_2001_615">
<rect width="27.0123" height="27.0123" fill="white" transform="translate(179.822 79) rotate(33.2797)"/>
</clipPath>
</defs>
</svg>
