<svg  viewBox="0 0 24 24"  xmlns="http://www.w3.org/2000/svg">
<path fill-rule="evenodd" clip-rule="evenodd" d="M9.15993 3C8.05536 3 7.15993 3.89543 7.15993 5V5.4C7.15993 5.48114 7.16476 5.56115 7.17416 5.63977L5 5.63977C2.79086 5.63977 1 7.43063 1 9.63977L1 17.4798C1 19.6889 2.79086 21.4798 5 21.4798L19 21.4798C21.2091 21.4798 23 19.6889 23 17.4798V9.63977C23 7.43063 21.2091 5.63977 19 5.63977H16.8257C16.8351 5.56115 16.8399 5.48114 16.8399 5.4V5C16.8399 3.89543 15.9445 3 14.8399 3L9.15993 3ZM12.44 17.9603C14.8701 17.9603 16.84 15.9903 16.84 13.5603C16.84 11.1302 14.8701 9.16027 12.44 9.16027C10.01 9.16027 8.04004 11.1302 8.04004 13.5603C8.04004 15.9903 10.01 17.9603 12.44 17.9603ZM16.84 8.28027C16.84 7.79426 17.234 7.40027 17.72 7.40027L19.48 7.40027C19.966 7.40027 20.36 7.79426 20.36 8.28027C20.36 8.76628 19.966 9.16027 19.48 9.16027L17.72 9.16027C17.234 9.16027 16.84 8.76628 16.84 8.28027Z" />
<path d="M14.737 14.043H12.8795V15.8961C12.8795 16.1973 12.6375 16.4396 12.3366 16.4396C12.0358 16.4396 11.7938 16.1973 11.7938 15.8961V14.043H9.94277C9.6419 14.0365 9.3999 13.7942 9.3999 13.493C9.3999 13.3483 9.45877 13.2115 9.55688 13.1067C9.66153 13.0085 9.79888 12.9495 9.94277 12.9495H11.7938V11.103C11.7938 10.8018 12.0358 10.5596 12.3366 10.5596C12.6375 10.5596 12.8795 10.8018 12.8795 11.103V12.9495H14.737C15.0379 12.9495 15.2799 13.1918 15.2799 13.493C15.2799 13.7942 15.0379 14.0365 14.737 14.043Z" />
</svg>
