<svg  viewBox="0 0 99 99" fill="none" xmlns="http://www.w3.org/2000/svg">
<path d="M71.1833 9.8146C64.9213 6.17587 56.2684 6.70476 46.6853 12.2264C27.6658 23.2062 12.286 49.8202 12.3496 71.674C12.3919 82.5269 16.2207 90.1641 22.3985 93.7606L14.5337 89.1618C8.35585 85.5653 4.52653 77.9281 4.4847 67.0752C4.42065 45.2213 19.8009 18.6073 38.8204 7.62748C48.4035 2.10587 57.0564 1.59815 63.3184 5.23687L71.1833 9.8146Z" fill="#FFD63C"/>
<path d="M22.3984 94.3434C22.2989 94.3434 22.198 94.3178 22.1055 94.2638L22.0984 94.2595C22.0842 94.251 22.07 94.2424 22.0558 94.2353L14.2389 89.6644C7.61496 85.8086 3.94397 77.787 3.90132 67.0783C3.83734 45.0794 19.3715 18.184 38.5283 7.12267C47.983 1.67591 56.8917 0.825695 63.611 4.73411L71.4733 9.30934C71.4747 9.30934 71.4747 9.31076 71.4762 9.31076C71.7534 9.47284 71.8487 9.82828 71.6866 10.1069C71.5259 10.3856 71.1691 10.4794 70.8904 10.3174L70.8876 10.3159C64.555 6.63785 56.0614 7.49517 46.975 12.7315C28.1409 23.6037 12.8684 50.0442 12.9323 71.672C12.9721 81.9243 16.4213 89.5762 22.643 93.2287L22.687 93.2543C22.6885 93.2557 22.6899 93.2557 22.6913 93.2572C22.9685 93.4207 23.0638 93.7761 22.9017 94.0533C22.7937 94.2396 22.5989 94.3434 22.3984 94.3434ZM54.2615 3.48154C49.6308 3.48154 44.4727 5.04264 39.1098 8.13212C20.2757 19.0057 5.00318 45.4476 5.06716 67.074C5.10697 77.3519 8.57322 85.0181 14.8261 88.6578L17.2488 90.0738C13.7086 85.7005 11.7978 79.385 11.7665 71.6763C11.7025 49.6759 27.2367 22.7819 46.3935 11.7221C53.2606 7.76815 59.8334 6.23407 65.4834 7.17101L63.0252 5.74072C60.4291 4.23081 57.4718 3.48154 54.2615 3.48154Z" fill="black"/>
<path d="M46.6828 12.2267C65.7147 1.23862 81.1631 10.0577 81.2251 31.911C81.287 53.7489 65.9391 80.3793 46.9071 91.3674C27.8892 102.347 12.4135 93.513 12.3516 71.6751C12.2897 49.8218 27.6648 23.2067 46.6828 12.2267Z" fill="white"/>
<path d="M64.7798 7.66675C74.913 20.7866 77.0463 40.2209 68.7266 57.6287C58.2304 79.6016 34.7641 90.6311 14.4556 83.9963C19.2977 96.4123 32.0339 99.9534 46.903 91.3774C65.9319 80.3698 81.2915 53.7463 81.228 31.9013C81.1853 17.6721 74.6145 8.96829 64.7798 7.66675Z" fill="#E9EDF4"/>
<path d="M31.4636 96.6849C28.0769 96.6849 24.942 95.893 22.1738 94.3006C15.4944 90.4562 11.8006 82.4218 11.7694 71.6762C11.7068 49.6758 27.2381 22.7804 46.3906 11.722C55.8112 6.28372 64.6972 5.41502 71.415 9.28079C78.0859 13.1195 81.7768 21.1553 81.8081 31.9095C81.8692 53.9184 66.3436 80.8181 47.1982 91.8723C41.6604 95.0698 36.3032 96.6849 31.4636 96.6849ZM46.9736 12.7314C28.1423 23.6036 12.8726 50.0455 12.9352 71.6733C12.9636 81.9853 16.4512 89.6628 22.7553 93.2912C29.1035 96.9451 37.5786 96.0807 46.6153 90.8628C65.4394 79.9949 80.7034 53.5501 80.6423 31.9124C80.6138 21.5918 77.1291 13.9129 70.8335 10.2902C64.4925 6.63916 56.0188 7.50643 46.9736 12.7314Z" fill="black"/>
<path d="M55.7714 28.6075C59.0523 26.713 62.337 26.3434 64.7536 27.9972C69.1478 31.0055 68.7476 39.8748 64.157 47.8261L49.1955 73.7406C48.5568 74.8468 47.7158 75.701 46.8737 76.1872C46.0317 76.6733 45.1887 76.7914 44.5458 76.4251L29.4717 67.8348C24.8511 65.2016 24.4091 56.8101 28.7869 48.7373C31.1848 44.319 34.4506 40.9176 37.7198 39.0301C40.8166 37.2422 43.9162 36.8124 46.2856 38.1625C46.4472 38.2546 46.6089 38.3635 46.7631 38.4683C46.909 38.1903 47.0695 37.8953 47.2301 37.6172C49.5856 33.5371 52.677 30.3942 55.7714 28.6075Z" fill="#FFD63C"/>
<path d="M64.1592 47.8321L49.2002 73.7401C48.5491 74.8603 47.7181 75.6913 46.8871 76.1972C46.0199 76.667 45.1889 76.7752 44.5387 76.414L29.4703 67.8503C29.0009 67.5611 28.5669 67.236 28.1699 66.8025C29.9043 67.236 31.711 67.4528 33.59 67.4528C46.7786 67.4528 57.4741 56.7933 57.4741 43.5681C57.4741 38.6539 55.9568 34.0648 53.3914 30.2346C54.1862 29.6204 54.9811 29.0786 55.7759 28.6088C59.0647 26.7298 62.3525 26.3323 64.7371 27.9944C69.1453 30.9935 68.7483 39.8826 64.1592 47.8321Z" fill="#F4C531"/>
<path d="M45.3954 77.224C44.9859 77.224 44.6006 77.1273 44.2565 76.9311L29.183 68.3408C24.1756 65.4874 23.7761 56.7549 28.2745 48.4604C30.6446 44.0941 33.8948 40.5667 37.4278 38.5251C40.8358 36.5588 44.0731 36.246 46.547 37.6422C46.6053 37.5356 46.665 37.4303 46.7233 37.328C49.0536 33.2944 52.1629 30.0187 55.4799 28.1022C59.0869 26.0236 62.5873 25.8075 65.0825 27.5164C69.6932 30.6741 69.5084 39.7222 64.6616 48.1177L49.7005 74.0321C49.0322 75.188 48.1323 76.1335 47.1655 76.6922C46.5527 77.0463 45.9499 77.224 45.3954 77.224ZM43.1461 37.9479C41.5836 37.9479 39.8349 38.481 38.0107 39.5345C34.7094 41.4411 31.5332 44.8974 29.2982 49.0148C25.1751 56.6184 25.3827 64.8348 29.7603 67.3285L44.8338 75.9188C45.2631 76.1648 45.9001 76.078 46.5825 75.6828C47.3645 75.2321 48.1323 74.4174 48.691 73.4492L63.6522 47.5348C68.1208 39.7947 68.4677 31.2457 64.4256 28.4775C62.31 27.0302 59.2646 27.2648 56.0628 29.1116C52.9193 30.9272 49.9606 34.0508 47.7342 37.9081C47.5792 38.1782 47.4214 38.4668 47.2792 38.7398C47.201 38.8862 47.0645 38.9929 46.9039 39.0341C46.7418 39.0753 46.5726 39.0426 46.4333 38.9488C46.2939 38.8521 46.1446 38.7526 45.9968 38.6687C45.1537 38.1867 44.1911 37.9479 43.1461 37.9479Z" fill="black"/>
<path d="M89.9517 52.2407C87.1053 50.5867 83.1721 50.8271 78.8161 53.337C70.1707 58.3279 63.1798 70.4253 63.2087 80.359C63.2279 85.2922 64.9683 88.7637 67.7765 90.3985L62.8849 87.5418C60.0767 85.907 58.3361 82.4355 58.3171 77.5023C58.288 67.5686 65.2791 55.4711 73.9245 50.4802C78.2805 47.9704 82.2137 47.7396 85.0601 49.3936L89.9517 52.2407Z" fill="#FFD63C"/>
<path d="M67.7767 90.981C67.6772 90.981 67.5763 90.9554 67.4838 90.9014L67.4767 90.8971C67.4753 90.8971 67.4739 90.8957 67.4739 90.8957L62.5901 88.0451C59.4793 86.2323 57.7547 82.4888 57.7348 77.5056C57.705 67.4025 64.8365 55.0531 73.633 49.976C78.0333 47.4425 82.1934 47.0529 85.3525 48.8898L90.2448 51.7376C90.5235 51.8997 90.6173 52.2551 90.4552 52.5338C90.2931 52.8124 89.9377 52.9063 89.659 52.7442C86.8838 51.1319 83.136 51.5201 79.1082 53.8418C70.6345 58.7326 63.7631 70.6271 63.7915 80.3576C63.81 84.9115 65.3285 88.2996 68.0696 89.8948C68.3469 90.0569 68.4421 90.4137 68.28 90.691C68.172 90.8772 67.9772 90.981 67.7767 90.981ZM80.9436 48.914C78.8935 48.914 76.603 49.6092 74.2159 50.9855C65.7408 55.8763 58.8708 67.7708 58.9007 77.5013C58.9177 82.0552 60.4362 85.4418 63.1773 87.0385L64.3702 87.7351C63.2413 85.8015 62.6385 83.2964 62.6257 80.3619C62.5973 70.2589 69.7302 57.9095 78.5252 52.8323C81.1484 51.3196 83.7474 50.5703 85.9738 50.5988L84.7668 49.8964C83.6365 49.2396 82.3455 48.914 80.9436 48.914Z" fill="black"/>
<path d="M78.815 53.337C87.466 48.3423 94.4881 52.351 94.5163 62.2845C94.5444 72.2109 87.568 84.3159 78.917 89.3105C70.2723 94.3015 63.2378 90.2858 63.2097 80.3594C63.1815 70.4259 70.1703 58.328 78.815 53.337Z" fill="white"/>
<path d="M87.041 51.2644C91.6471 57.2281 92.6167 66.062 88.835 73.9747C84.064 83.9625 73.3973 88.976 64.166 85.9602C66.367 91.6039 72.1563 93.2135 78.9151 89.3153C87.5647 84.3117 94.5464 72.2099 94.5176 62.2803C94.4981 55.8123 91.5114 51.856 87.041 51.2644Z" fill="#E9EDF4"/>
<path d="M71.897 92.046C70.3018 92.046 68.8246 91.672 67.5166 90.9199C64.3788 89.1143 62.6414 85.3637 62.6272 80.3605C62.5987 70.2589 69.7303 57.9095 78.5239 52.8324C82.9086 50.3016 87.0601 49.905 90.215 51.7234C93.35 53.5276 95.0845 57.2768 95.0987 62.2828C95.1272 72.3887 87.9999 84.7395 79.2091 89.8152C76.6414 91.2967 74.1519 92.046 71.897 92.046ZM85.8388 51.7646C83.7872 51.7646 81.4953 52.4627 79.1068 53.8418C70.6345 58.7327 63.7646 70.6271 63.793 80.3577C63.8058 84.9272 65.3342 88.3195 68.0981 89.9105C70.8805 91.5099 74.6197 91.119 78.6262 88.8058C87.0942 83.9163 93.9613 72.019 93.9329 62.2857C93.9215 57.7133 92.3946 54.321 89.6349 52.7329C88.5117 52.086 87.2307 51.7646 85.8388 51.7646Z" fill="black"/>
<path d="M78.8821 78.788C78.5607 78.788 78.3006 78.5278 78.2991 78.2065L78.2607 64.441C78.2607 64.1197 78.5209 63.8581 78.8422 63.8567C79.1636 63.8567 79.4252 64.1169 79.4266 64.4382L79.465 78.2037C79.465 78.525 79.2034 78.7866 78.8821 78.788Z" fill="black"/>
<path d="M72.8623 75.3702C72.6618 75.3702 72.4656 75.265 72.3576 75.0788C72.1969 74.8001 72.2922 74.4432 72.5709 74.2826L84.5719 67.3529C84.8506 67.1951 85.206 67.2875 85.3681 67.5662C85.5288 67.8448 85.4335 68.2017 85.1549 68.3624L73.1538 75.292C73.0614 75.3446 72.9618 75.3702 72.8623 75.3702Z" fill="black"/>
</svg>
