<svg width="20" height="20" viewBox="0 0 20 20" fill="none" xmlns="http://www.w3.org/2000/svg">
<g clip-path="url(#clip0_105_819)">
<path d="M1.40406 10.3261L2.7441 18.3666C2.84894 18.9956 3.39308 19.4565 4.0307 19.4565H16.1736C16.8227 19.4565 17.373 18.9792 17.4648 18.3366L18.609 10.3261H1.40406ZM6.73914 16.1957C6.73914 16.556 6.44722 16.8479 6.08695 16.8479C5.72668 16.8479 5.43476 16.556 5.43476 16.1957V12.2826C5.43476 11.9224 5.72668 11.6304 6.08695 11.6304C6.44722 11.6304 6.73914 11.9224 6.73914 12.2826V16.1957ZM10.6522 16.1957C10.6522 16.556 10.3603 16.8479 10 16.8479C9.63972 16.8479 9.34781 16.556 9.34781 16.1957V12.2826C9.34781 11.9224 9.63972 11.6304 10 11.6304C10.3603 11.6304 10.6522 11.9224 10.6522 12.2826V16.1957ZM14.5652 16.1957C14.5652 16.556 14.2733 16.8479 13.913 16.8479C13.5528 16.8479 13.2609 16.556 13.2609 16.1957V12.2826C13.2609 11.9224 13.5528 11.6304 13.913 11.6304C14.2733 11.6304 14.5652 11.9224 14.5652 12.2826V16.1957Z" fill="#CBCDD9"/>
<path d="M19.3478 6.41302H17.4439L11.7654 0.734541C11.5107 0.479814 11.098 0.479814 10.8432 0.734541C10.5885 0.989072 10.5885 1.4022 10.8432 1.65677L15.5995 6.41302H4.40047L9.15672 1.65673C9.41145 1.4022 9.41145 0.989072 9.15672 0.734502C8.90199 0.479775 8.48926 0.479775 8.23449 0.734502L2.55605 6.41302H0.652187C0.291992 6.41302 0 6.70501 0 7.0652V8.36954C0 8.7297 0.291992 9.02173 0.652187 9.02173H19.3479C19.708 9.02173 20 8.72974 20 8.36954V7.0652C20 6.70501 19.708 6.41302 19.3478 6.41302Z" fill="#CBCDD9"/>
</g>
<defs>
<clipPath id="clip0_105_819">
<rect width="20" height="20" fill="white"/>
</clipPath>
</defs>
</svg>
