<svg viewBox="0 0 24 24" fill="none" xmlns="http://www.w3.org/2000/svg">
  <path d="M20.3404 6.49036C20.5159 6.49047 20.6826 6.56688 20.7965 6.70032C20.9104 6.83377 20.9597 7.01043 20.9322 7.18372L19.8629 13.9142C19.8202 14.183 19.6015 14.3896 19.3307 14.4171L10.0006 15.3566C9.73282 15.3835 9.47957 15.2292 9.38146 14.9786L6.38146 7.30872C6.30925 7.12408 6.33319 6.91583 6.44494 6.75208C6.55673 6.58831 6.74178 6.49036 6.94006 6.49036H20.3404ZM10.3326 14.1173L18.7496 13.2687L19.6373 7.68958H7.81896L10.3326 14.1173Z" fill="#DFA543"/>
  <path d="M5.98733 3.94143L6.07131 3.95413C6.26406 3.99732 6.42573 4.13397 6.49905 4.32132L10.499 14.541C10.5721 14.728 10.5467 14.9391 10.4317 15.1035L9.13186 16.96H19.2198L19.3408 16.9717C19.6143 17.0276 19.8203 17.2696 19.8203 17.5596C19.8203 17.891 19.5511 18.1592 19.2198 18.1592H7.98049C7.75692 18.1592 7.55165 18.0351 7.44827 17.8369C7.34501 17.6386 7.36022 17.3991 7.48831 17.2158L9.26272 14.6787L5.5176 5.10745L2.45315 4.86819L2.33303 4.84573C2.06515 4.76839 1.87878 4.51151 1.90139 4.22268C1.92732 3.89236 2.21659 3.64506 2.5469 3.67092L5.98733 3.94143Z" fill="#DFA543"/>
  <path d="M10.6302 20.6611C10.6302 20.1974 10.2541 19.8205 9.79041 19.8203C9.32649 19.8203 8.94958 20.1972 8.94958 20.6611C8.94982 21.1249 9.32663 21.501 9.79041 21.501C10.254 21.5007 10.63 21.1247 10.6302 20.6611ZM11.8304 20.6611C11.8302 21.7875 10.9167 22.7009 9.79041 22.7012C8.66389 22.7012 7.7506 21.7876 7.75037 20.6611C7.75037 19.5345 8.66374 18.6211 9.79041 18.6211C10.9169 18.6213 11.8304 19.5346 11.8304 20.6611Z" fill="#DFA543"/>
  <path d="M18.9702 20.6611C18.9702 20.1974 18.5941 19.8205 18.1304 19.8203C17.6665 19.8203 17.2896 20.1972 17.2896 20.6611C17.2898 21.1249 17.6666 21.501 18.1304 21.501C18.5939 21.5007 18.97 21.1247 18.9702 20.6611ZM20.1704 20.6611C20.1702 21.7875 19.2567 22.7009 18.1304 22.7012C17.0039 22.7012 16.0906 21.7876 16.0903 20.6611C16.0903 19.5345 17.0037 18.6211 18.1304 18.6211C19.2568 18.6213 20.1704 19.5346 20.1704 20.6611Z" fill="#DFA543"/>
  <path d="M13.9101 12.18C16.7267 12.18 19.0101 9.90113 19.0101 7.09C19.0101 4.27887 16.7267 2 13.9101 2C11.0934 2 8.81006 4.27887 8.81006 7.09C8.81006 9.90113 11.0934 12.18 13.9101 12.18Z" fill="#DFA543"/>
  <path d="M16.6896 6.49036V7.68958H11.13V6.49036H16.6896Z" fill="#FFF3DD"/>
</svg>
