<svg width="49" height="49" viewBox="0 0 49 49" fill="none" xmlns="http://www.w3.org/2000/svg">
<path d="M44.7068 13.8059L44.6434 35.5793C44.6434 36.2039 44.232 36.839 43.4082 37.3154L27.1483 46.7901C25.4909 47.7535 22.7982 47.7535 21.1299 46.7901L5.54954 37.7683C4.70507 37.2813 4.28284 36.6462 4.29315 36.0004L4.34625 14.2376C4.34625 14.8728 4.76849 15.508 5.60264 15.9949L21.1933 25.0168C22.8513 25.9801 25.5538 25.9801 27.2118 25.0168L43.4607 15.5421C44.2846 15.0657 44.6965 14.4305 44.7068 13.8059Z" fill="white"/>
<path d="M21.6384 43.3176C32.7169 41.5679 41.8543 38.6884 42.4231 26.2558C42.5617 23.2284 41.2953 20.3813 39.3307 17.9453L43.4573 15.5443C44.2826 15.0664 44.7016 14.4253 44.7016 13.8076L44.6431 35.5806C44.6431 36.1984 44.2361 36.8395 43.4108 37.3174L27.1479 46.7934C25.644 47.6579 23.3105 47.7323 21.6384 47.0328V43.3176Z" fill="#E9EDF4"/>
<path d="M24.143 47.7994C23.0003 47.7994 21.8562 47.5474 20.9833 47.0432L5.40272 38.0217C4.48586 37.4927 3.98771 36.773 4.00023 35.995L4.0532 14.2362C4.05355 14.0744 4.18453 13.9438 4.34629 13.9438C4.50805 13.9438 4.63939 14.0751 4.63939 14.2369C4.63939 14.7887 5.03412 15.323 5.75057 15.7414L21.3401 24.7626C22.919 25.6794 25.4868 25.6798 27.0643 24.7629L43.313 15.2883C44.0037 14.8889 44.4049 14.3467 44.4138 13.8003C44.4163 13.6389 44.5276 13.4982 44.7098 13.5122C44.8708 13.5136 45.0007 13.645 45 13.806L44.9367 35.5795C44.9367 36.3357 44.4331 37.0608 43.5549 37.5686L27.2958 47.0428C26.4283 47.5471 25.2864 47.7994 24.143 47.7994ZM4.63617 15.6061L4.58642 36.0004C4.57748 36.5601 4.97149 37.0962 5.69582 37.5138L21.2768 46.5357C22.8611 47.4505 25.4288 47.4508 27.0009 46.5361L43.2607 37.0615C43.9536 36.661 44.3505 36.1206 44.3505 35.5788L44.4099 15.1652C44.1951 15.3985 43.9257 15.6115 43.6075 15.7954L27.3595 25.2697C25.6181 26.281 22.7866 26.281 21.046 25.2697L5.45605 16.2481C5.12752 16.0563 4.85304 15.8405 4.63617 15.6061Z" fill="black"/>
<path d="M24.0494 25.7302C23.0111 25.7087 21.9831 25.4753 21.1933 25.0163L5.60264 15.9944C4.76849 15.5074 4.34625 14.8723 4.34625 14.2371L4.29315 35.9998C4.28284 36.6456 4.70507 37.2808 5.54954 37.7678L21.1299 46.7896C21.9398 47.2574 22.992 47.4935 24.0494 47.5069L24.0494 25.7302Z" fill="#FFD63C"/>
<path d="M24.0435 41.8866V47.5045C22.9974 47.4929 21.9399 47.2598 21.1259 46.7936L5.54535 37.7715C4.70867 37.282 4.27842 36.6409 4.28977 35.9999L4.34823 14.2385C4.34823 14.8679 4.76657 15.5089 5.60381 15.9985L9.26553 18.1198C7.88224 20.4859 7.09154 23.2483 7.09154 26.1855C7.09154 35.032 15.2085 36.6862 24.0435 36.6862C24.6248 36.6862 23.4742 41.9448 24.0435 41.8866Z" fill="#F4C531"/>
<path d="M24.0496 47.8004C24.0485 47.8004 24.047 47.8004 24.0456 47.8004C22.8897 47.7857 21.8021 47.517 20.9833 47.0435L5.40272 38.022C4.48586 37.493 3.98771 36.7733 4.00023 35.9953L4.0532 14.2365C4.05355 14.0747 4.18453 13.9441 4.34629 13.9441C4.50805 13.9441 4.63939 14.0754 4.63939 14.2372C4.63939 14.789 5.03412 15.3233 5.75057 15.7417L21.3401 24.7629C22.0516 25.1766 23.016 25.416 24.0556 25.4375C24.2152 25.4407 24.3426 25.5709 24.3426 25.7305V47.5073C24.3426 47.5857 24.3112 47.6608 24.2557 47.716C24.2006 47.77 24.1265 47.8004 24.0496 47.8004ZM4.63617 15.6064L4.58642 36.0007C4.57748 36.5604 4.97149 37.0965 5.69582 37.5141L21.2768 46.536C21.941 46.9197 22.8124 47.1534 23.7565 47.2042V26.0126C22.7279 25.9535 21.7742 25.6933 21.0459 25.27L5.45605 16.2484C5.12752 16.0566 4.85304 15.8408 4.63617 15.6064Z" fill="black"/>
<path d="M43.4449 12.0453C45.1101 13.0093 45.1257 14.5741 43.4647 15.5419L27.2102 25.0129C25.556 25.9768 22.8548 25.9768 21.1896 25.0129L5.60652 15.9922C3.93476 15.0245 3.93249 13.4595 5.58673 12.4956L21.8412 3.02462C23.5022 2.05683 26.1901 2.05695 27.8618 3.02469L43.4449 12.0453Z" fill="white"/>
<path d="M43.4606 15.5444L27.2124 25.0131C25.5528 25.9734 22.8578 25.9734 21.1874 25.0131L5.60318 15.9978C3.93269 15.0264 3.93269 13.4631 5.59176 12.4917L8.79897 10.627C9.62334 16.1094 16.2651 19.9661 25.2635 19.9661C33.6269 19.9661 40.6096 16.259 42.2246 11.3347L43.4497 12.0494C45.1088 13.0096 45.1202 14.5729 43.4606 15.5444Z" fill="#E9EDF4"/>
<path d="M24.2036 26.0251C23.0603 26.0251 21.9154 25.7724 21.0426 25.2668L5.45948 16.2463C4.5555 15.7231 4.05698 15.0102 4.05591 14.239C4.05484 13.4721 4.54583 12.7628 5.43908 12.2424L21.6935 2.77139C23.4589 1.74287 26.2324 1.74287 28.0085 2.77139L43.5913 11.7919C44.4956 12.3154 44.9938 13.0287 44.9952 13.8002C44.9963 14.5664 44.5049 15.2754 43.6124 15.7957L27.3576 25.2664C26.4897 25.7721 25.3474 26.0251 24.2036 26.0251ZM24.8467 2.59066C23.8103 2.59066 22.775 2.8197 21.9884 3.27813L5.73396 12.7492C5.02932 13.16 4.64139 13.6886 4.6421 14.2383C4.64317 14.7915 5.03755 15.3248 5.75293 15.7388L21.336 24.7593C22.9203 25.6769 25.4884 25.6765 27.0627 24.7597L43.3171 15.289C44.0218 14.8781 44.4094 14.3499 44.4086 13.801C44.4079 13.247 44.0132 12.7137 43.2978 12.2993L27.7147 3.27885C26.9224 2.82006 25.8838 2.59066 24.8467 2.59066Z" fill="black"/>
<path d="M38.0803 18.6802L17.2333 5.71167L10.9561 9.36924L31.9011 22.2774L38.0803 18.6802Z" fill="#FFD63C"/>
<path d="M31.901 22.5705C31.8477 22.5705 31.7944 22.5562 31.7472 22.5268L10.8021 9.61845C10.7144 9.56441 10.6614 9.4685 10.6629 9.36544C10.6639 9.26237 10.7194 9.16753 10.8085 9.11564L17.0856 5.45821C17.179 5.40381 17.2953 5.40524 17.388 5.4625L38.235 18.431C38.3223 18.4854 38.3746 18.5817 38.3731 18.6844C38.3717 18.7871 38.3162 18.8816 38.2275 18.9335L32.0485 22.5308C32.003 22.5572 31.9519 22.5705 31.901 22.5705ZM11.5261 9.37617L31.9053 21.9356L37.5117 18.6719L17.228 6.0537L11.5261 9.37617Z" fill="black"/>
<path d="M38.0842 18.676L38.1034 25.4861C38.1048 25.9866 37.7497 26.5351 37.3728 26.7533C37.2138 26.8453 37.051 26.8786 36.9095 26.8247L35.4661 26.2934C35.3326 26.2431 35.1679 26.2747 35.0037 26.3697C34.8392 26.465 34.6752 26.6237 34.5424 26.8281L33.1067 29.026C32.966 29.2433 32.8032 29.3985 32.6445 29.4904C32.2676 29.7086 31.9106 29.5724 31.9091 29.0718L31.8899 22.2771L38.0842 18.676Z" fill="white"/>
<path d="M38.1068 25.4838C38.1068 25.9859 37.7491 26.5358 37.3755 26.7509C37.2166 26.8466 37.0495 26.8785 36.9065 26.8227L35.4679 26.2966C35.3326 26.2408 35.1657 26.2728 35.0068 26.3684C34.8399 26.464 34.673 26.6234 34.5457 26.8307L33.1069 29.0224C32.9639 29.2455 32.805 29.3969 32.646 29.4925C32.2645 29.7077 31.9068 29.5723 31.9068 29.0702L31.8987 26.1293C32.1531 26.1851 32.4155 26.209 32.6858 26.209C35.0148 26.209 36.8985 24.2723 36.8985 21.9053C36.8985 21.1003 36.6839 20.3512 36.3103 19.7056L38.0829 18.6775L38.1068 25.4838Z" fill="#E9EDF4"/>
<path d="M32.3124 29.8846C32.1911 29.8846 32.0762 29.8552 31.9739 29.7965C31.8407 29.7199 31.6167 29.5242 31.6156 29.0729L31.5967 22.278C31.5963 22.1735 31.6518 22.0765 31.7423 22.0239L37.9364 18.423C38.0273 18.3697 38.1382 18.3701 38.2298 18.422C38.3203 18.4742 38.3765 18.5708 38.3769 18.6757L38.3962 25.4856C38.398 26.0625 38.0212 26.7167 37.5198 27.0073C37.2707 27.1508 37.0238 27.183 36.8044 27.0985L35.3647 26.5689C35.3275 26.5557 35.2487 26.5675 35.1503 26.6236C35.0208 26.6988 34.892 26.828 34.7882 26.988L33.352 29.1867C33.1939 29.4308 32.9995 29.624 32.7905 29.7446C32.6302 29.8373 32.4663 29.8846 32.3124 29.8846ZM32.1836 22.4459L32.2018 29.0715C32.2022 29.2042 32.2366 29.2712 32.2659 29.288C32.3003 29.3091 32.3879 29.2998 32.4971 29.2368C32.6248 29.1635 32.7537 29.0321 32.8603 28.8671L34.2968 26.668C34.4521 26.4293 34.6457 26.2382 34.8569 26.1162C35.1027 25.9734 35.3561 25.9383 35.5698 26.0196L37.0105 26.5496C37.0606 26.57 37.1401 26.5492 37.226 26.4998C37.5087 26.3359 37.8111 25.89 37.81 25.4871L37.7921 19.185L32.1836 22.4459Z" fill="black"/>
</svg>
