<svg viewBox="0 0 24 24" fill="none" xmlns="http://www.w3.org/2000/svg">
  <path opacity="0.5" d="M13.86 17.1306L11.55 19.3106C8.80158 17.5377 6.46285 15.199 4.68994 12.4506L6.86993 10.1406C7.69065 11.5813 8.69951 12.9063 9.86993 14.0806C11.0621 15.266 12.4034 16.2912 13.86 17.1306Z" fill="#DFA543"/>
  <path d="M4.64996 12.45C2.67896 9.65673 1.76131 6.2555 2.05993 2.84995C2.09609 2.61149 2.21723 2.39415 2.401 2.23795C2.58476 2.08175 2.81877 1.99722 3.05993 1.99994H5.39996H7.85998C8.10414 1.99787 8.34057 2.08522 8.52478 2.24549C8.70899 2.40575 8.82825 2.62784 8.85998 2.86994L9.41998 6.73996C9.44382 6.89287 9.4318 7.04922 9.38494 7.19672C9.33809 7.34422 9.25767 7.47881 9.14996 7.58994L6.80993 10.0699L4.64996 12.45Z" fill="#DFA543"/>
  <path d="M21.14 21.8904C17.7385 22.1947 14.3397 21.2804 11.55 19.3104L13.86 17.1304L16.34 14.7904C16.4501 14.6841 16.583 14.6045 16.7286 14.5577C16.8743 14.5109 17.0287 14.4982 17.1801 14.5204L21.05 15.0804C21.2921 15.1121 21.5142 15.2313 21.6745 15.4155C21.8348 15.5997 21.9221 15.8362 21.92 16.0804V18.5304V20.8804C21.9281 21.1133 21.8545 21.3416 21.7121 21.526C21.5697 21.7104 21.3673 21.8392 21.14 21.8904Z" fill="#DFA543"/>
</svg>
