<svg  viewBox="0 0 20 20"  xmlns="http://www.w3.org/2000/svg">
<g clip-path="url(#clip0_124_49)">
<path d="M7.5 0H1.875C0.841063 0 0 0.841063 0 1.875V7.5C0 8.53394 0.841063 9.375 1.875 9.375H7.5C8.53394 9.375 9.375 8.53394 9.375 7.5V1.875C9.375 0.841063 8.53394 0 7.5 0Z" />
<path d="M18.125 0H12.5C11.4661 0 10.625 0.841063 10.625 1.875V7.5C10.625 8.53394 11.4661 9.375 12.5 9.375H18.125C19.1589 9.375 20 8.53394 20 7.5V1.875C20 0.841063 19.1589 0 18.125 0Z" />
<path d="M18.125 10.625H12.5C11.4661 10.625 10.625 11.4661 10.625 12.5V18.125C10.625 19.1589 11.4661 20 12.5 20H18.125C19.1589 20 20 19.1589 20 18.125V12.5C20 11.4661 19.1589 10.625 18.125 10.625Z" />
<path d="M7.5 10.625H1.875C0.841063 10.625 0 11.4661 0 12.5V18.125C0 19.1589 0.841063 20 1.875 20H7.5C8.53394 20 9.375 19.1589 9.375 18.125V12.5C9.375 11.4661 8.53394 10.625 7.5 10.625Z" />
</g>
<defs>
<clipPath id="clip0_124_49">
<rect width="20" height="20" fill="white"/>
</clipPath>
</defs>
</svg>
