<svg width="16" height="16" viewBox="0 0 16 16" fill="none" xmlns="http://www.w3.org/2000/svg">
<g clip-path="url(#clip0_94_442)">
<path d="M6.89897 11.7726L5.42815 13.2434C4.69158 13.98 3.49309 13.9803 2.75616 13.2434C2.01971 12.5069 2.01995 11.3084 2.75652 10.5718L5.70976 7.61858C6.39225 6.93609 7.4716 6.88567 8.21219 7.46807C8.27079 7.51409 8.32731 7.56426 8.38138 7.61834C8.70939 7.94622 9.21793 7.95159 9.53909 7.6303L10.4646 6.70477C10.3125 6.47393 10.1367 6.2586 9.93887 6.06073C9.65994 5.78192 9.35062 5.55157 9.02103 5.3703C7.73148 4.659 6.13664 4.69452 4.87724 5.47674C4.61565 5.63922 4.36821 5.83392 4.14116 6.06109L1.19891 9.00334C-0.399596 10.6018 -0.399596 13.2027 1.19867 14.8011C2.79729 16.3996 5.39799 16.3996 6.99662 14.8011L9.64347 12.1542C8.71891 12.2765 7.76725 12.1496 6.89897 11.7726Z" fill="#FFF3DD"/>
<path d="M14.8011 1.19876C13.2027 -0.399626 10.602 -0.399626 9.00341 1.199L6.35681 3.8456C7.28137 3.72316 8.23302 3.85012 9.10131 4.22719L10.5723 2.75625C11.3088 2.01968 12.5071 2.01968 13.2436 2.75625C13.9804 3.49306 13.9804 4.6913 13.2439 5.42787L10.2903 8.38148C9.61534 9.0564 8.54418 9.10303 7.80444 8.52344C7.74389 8.47645 7.68603 8.42505 7.63049 8.36951C7.30798 8.047 6.78344 8.04725 6.46093 8.36976L5.5354 9.29529C5.68762 9.52564 5.86365 9.74121 6.06116 9.93872C6.34204 10.2196 6.65405 10.451 6.98596 10.6333C8.28258 11.3451 9.88549 11.3035 11.1457 10.5089C11.3989 10.3494 11.6385 10.1593 11.8587 9.93897L14.8011 6.99671C16.3996 5.39809 16.3996 2.79739 14.8011 1.19876Z" fill="#FFF3DD"/>
</g>
<defs>
<clipPath id="clip0_94_442">
<rect width="16" height="16" fill="white"/>
</clipPath>
</defs>
</svg>
