<svg width="24" height="24" viewBox="0 0 24 24" xmlns="http://www.w3.org/2000/svg">
  <path d="M10.8991 15.7718L9.42827 17.2426C8.6917 17.9792 7.49321 17.9794 6.75628 17.2426C6.01983 16.506 6.02007 15.3075 6.75664 14.571L9.70988 11.6177C10.3924 10.9352 11.4717 10.8848 12.2123 11.4672C12.2709 11.5132 12.3274 11.5634 12.3815 11.6175C12.7095 11.9454 13.2181 11.9507 13.5392 11.6294L14.4648 10.7039C14.3127 10.4731 14.1369 10.2577 13.939 10.0599C13.6601 9.78106 13.3507 9.55072 13.0212 9.36944C11.7316 8.65814 10.1368 8.69366 8.87737 9.47589C8.61577 9.63836 8.36833 9.83306 8.14128 10.0602L5.19903 13.0025C3.60053 14.601 3.60053 17.2018 5.19879 18.8002C6.79742 20.3987 9.39812 20.3987 10.9967 18.8002L13.6436 16.1534C12.719 16.2757 11.7674 16.1487 10.8991 15.7718Z" />
  <path d="M18.8011 5.19876C17.2027 3.60037 14.602 3.60037 13.0034 5.199L10.3568 7.8456C11.2814 7.72316 12.233 7.85012 13.1013 8.22719L14.5723 6.75625C15.3088 6.01968 16.5071 6.01968 17.2436 6.75625C17.9804 7.49306 17.9804 8.6913 17.2439 9.42787L14.2903 12.3815C13.6153 13.0564 12.5442 13.103 11.8044 12.5234C11.7439 12.4764 11.686 12.4251 11.6305 12.3695C11.308 12.047 10.7834 12.0472 10.4609 12.3698L9.5354 13.2953C9.68762 13.5256 9.86365 13.7412 10.0612 13.9387C10.342 14.2196 10.654 14.451 10.986 14.6333C12.2826 15.3451 13.8855 15.3035 15.1457 14.5089C15.3989 14.3494 15.6385 14.1593 15.8587 13.939L18.8011 10.9967C20.3996 9.39809 20.3996 6.79739 18.8011 5.19876Z" />
</svg>
