<svg  viewBox="0 0 52 52" fill="none" xmlns="http://www.w3.org/2000/svg">
<path d="M31.5471 36.4964C31.5546 38.9129 29.8646 41.8569 27.7542 43.0728C26.6912 43.6846 25.7353 43.7381 25.0393 43.3404L21.9043 41.5128C22.5999 41.9181 23.5558 41.8569 24.6114 41.2528C26.7218 40.0293 28.4192 37.0928 28.4118 34.6764L28.3965 29.7822L31.5318 31.6099L31.5471 36.4964Z" fill="#FFD948"/>
<path d="M26.0406 43.9019C25.6224 43.9019 25.2334 43.804 24.8876 43.6061L21.7504 41.7773C21.604 41.6921 21.5547 41.5047 21.6399 41.3591C21.7242 41.2127 21.9117 41.1627 22.0581 41.2485C22.6794 41.6115 23.5322 41.5174 24.459 40.9879C26.4768 39.8177 28.113 36.9866 28.1055 34.6768L28.0906 29.7832C28.0906 29.6734 28.1488 29.5726 28.2437 29.5173C28.3392 29.4636 28.4565 29.4628 28.5506 29.5181L31.6856 31.3454C31.7797 31.4 31.8372 31.5 31.8379 31.6091L31.8536 36.4953C31.8611 39.0104 30.0912 42.0797 27.9069 43.338C27.2557 43.7129 26.6201 43.9019 26.0406 43.9019ZM23.4052 42.0334L25.193 43.0759C25.8218 43.4344 26.6762 43.3403 27.6022 42.8078C29.6162 41.6473 31.2487 38.8163 31.2412 36.4968L31.2263 31.786L28.7044 30.3156L28.7179 34.6754C28.7253 37.1793 26.9517 40.2493 24.7644 41.5174C24.2969 41.7855 23.8391 41.958 23.4052 42.0334Z" fill="black"/>
<path d="M28.3965 29.7859C30.9533 26.8311 32.8253 22.9475 33.3186 19.3114L36.4569 21.1352C35.9653 24.7586 34.1046 28.6279 31.5614 31.5789C31.5526 31.5892 31.5437 31.5994 31.5348 31.6097C30.5933 31.0626 29.338 30.333 28.3965 29.7859Z" fill="white"/>
<path d="M31.5115 31.907C31.4652 31.907 31.4197 31.8966 31.3809 31.8742L28.2429 30.0505C28.1645 30.005 28.1099 29.9265 28.095 29.8369C28.0801 29.7466 28.1055 29.6547 28.1652 29.586C30.7274 26.6243 32.5406 22.7679 33.0156 19.27C33.0298 19.1684 33.0925 19.081 33.1843 19.0362C33.2769 18.9914 33.3845 18.9959 33.4726 19.0467L36.6106 20.8711C36.7174 20.933 36.7764 21.054 36.7599 21.1765C36.2723 24.7715 34.4158 28.7347 31.7946 31.7778C31.7916 31.7808 31.7893 31.7838 31.7864 31.7868C31.7856 31.7875 31.7849 31.7883 31.7841 31.7898L31.7826 31.7905C31.7826 31.7913 31.7826 31.7913 31.7819 31.7913C31.7819 31.792 31.7811 31.792 31.7811 31.792C31.7139 31.8615 31.6094 31.907 31.5115 31.907ZM28.8926 29.6741L31.4944 31.1864C33.9072 28.3135 35.6226 24.649 36.1252 21.296L33.554 19.8017C32.9961 23.1667 31.283 26.7983 28.8926 29.6741Z" fill="black"/>
<path d="M36.4576 21.4416C36.4434 21.4416 36.4292 21.4401 36.415 21.4386C36.2477 21.4154 36.1312 21.2616 36.1536 21.0943L36.1865 20.8374C36.2067 20.6694 36.3605 20.5499 36.527 20.5701C36.6824 20.5888 36.7966 20.7209 36.7966 20.8733C36.7966 20.886 36.7959 20.8979 36.7944 20.9106L36.76 21.1772C36.7384 21.3303 36.6077 21.4416 36.4576 21.4416Z" fill="black"/>
<path d="M33.3186 19.3118C33.3304 19.2243 33.3416 19.1372 33.3518 19.0503L36.4902 20.8741C36.4799 20.961 36.4687 21.0481 36.4569 21.1356C35.4109 20.5275 34.3648 19.9196 33.3186 19.3118Z" fill="white"/>
<path d="M36.4568 21.4416C36.4038 21.4416 36.3508 21.4274 36.303 21.3998L33.165 19.5761C33.0582 19.5141 32.9992 19.3932 33.0157 19.2707L33.0463 19.0287C33.0582 18.9264 33.1225 18.8301 33.2143 18.7838C33.3054 18.739 33.4159 18.7345 33.5055 18.786L36.6443 20.6097C36.7496 20.6709 36.8086 20.7896 36.7944 20.9106L36.76 21.1765C36.7458 21.278 36.6831 21.3654 36.5913 21.4102C36.5487 21.4311 36.5024 21.4416 36.4568 21.4416Z" fill="black"/>
<path d="M33.3782 18.808C34.4243 19.4159 35.4704 20.0239 36.5165 20.6318C36.5083 20.7115 36.4996 20.7918 36.4904 20.8715L33.3521 19.0477C33.3613 18.968 33.37 18.8878 33.3782 18.808Z" fill="white"/>
<path d="M36.4904 21.178C36.4374 21.178 36.3844 21.1638 36.3366 21.1362L33.1986 19.3118C33.0941 19.2506 33.0351 19.1333 33.0485 19.0131L33.0747 18.7764C33.0851 18.6733 33.1471 18.5822 33.2397 18.5351C33.3323 18.4873 33.4413 18.4911 33.5324 18.5434L36.6704 20.3677C36.7742 20.4282 36.8332 20.544 36.8205 20.6635L36.7944 20.9062C36.7832 21.0085 36.7205 21.0988 36.6279 21.1451C36.5845 21.1668 36.5375 21.178 36.4904 21.178Z" fill="black"/>
<path d="M36.4913 21.178C36.4793 21.178 36.4666 21.1772 36.4547 21.1757C36.2993 21.1571 36.1843 21.0249 36.1843 20.8718C36.1843 20.8606 36.1851 20.8479 36.1866 20.8359L36.2149 20.5738C36.2321 20.4065 36.371 20.2871 36.5502 20.2998C36.7078 20.3162 36.8251 20.4491 36.8258 20.6037C36.8258 20.6141 36.8251 20.6246 36.8243 20.6351L36.7944 20.9076C36.7758 21.063 36.6436 21.178 36.4913 21.178Z" fill="black"/>
<path d="M33.3782 18.808C33.3791 18.7989 33.38 18.7898 33.381 18.7808L36.5193 20.6046C36.5184 20.6136 36.5174 20.6227 36.5165 20.6318C35.4704 20.0239 34.4243 19.416 33.3782 18.808Z" fill="white"/>
<path d="M36.4971 20.9309C36.45 20.9309 36.4045 20.9197 36.3626 20.8958L33.2247 19.0721C33.1223 19.0131 33.0641 18.9004 33.0738 18.7824L33.076 18.7555C33.0843 18.6509 33.1462 18.5583 33.2396 18.5098C33.3314 18.4613 33.4427 18.4628 33.5346 18.5165L36.6733 20.3402C36.7756 20.3992 36.8339 20.5119 36.8241 20.6299C36.8159 20.7345 36.7525 20.8405 36.6591 20.889C36.6091 20.9152 36.5523 20.9309 36.4971 20.9309Z" fill="black"/>
<path d="M33.4236 18.2469C34.4697 18.8549 35.5158 19.4628 36.5619 20.0708C36.557 20.1539 36.5509 20.2375 36.5446 20.3209L33.4062 18.4971C33.4126 18.4137 33.4186 18.3301 33.4236 18.2469Z" fill="white"/>
<path d="M36.5443 20.6269C36.4913 20.6269 36.4383 20.6127 36.3905 20.5851L33.2525 18.7614C33.1509 18.7024 33.0919 18.5897 33.1016 18.4724L33.1181 18.2305C33.124 18.1244 33.1845 18.0281 33.2779 17.978C33.372 17.9273 33.4847 17.9288 33.5773 17.9825L36.7161 19.8062C36.8161 19.8644 36.8744 19.9742 36.8677 20.0899L36.849 20.3453C36.8408 20.4499 36.7788 20.5432 36.6862 20.5918C36.6414 20.6149 36.5928 20.6269 36.5443 20.6269Z" fill="black"/>
<path d="M36.5442 20.6268C36.536 20.6268 36.5278 20.6261 36.5188 20.6253C36.3515 20.6119 36.2261 20.4648 36.2395 20.2968L36.2567 20.0466C36.2649 19.8778 36.4046 19.7576 36.5778 19.7568C36.7466 19.7658 36.8765 19.9092 36.8676 20.078C36.8631 20.1676 36.8564 20.2572 36.8489 20.3468C36.8354 20.5066 36.7018 20.6268 36.5442 20.6268Z" fill="black"/>
<path d="M33.4236 18.247C33.4238 18.2442 33.4239 18.2414 33.4241 18.2385L36.5624 20.0623C36.5622 20.0652 36.5621 20.068 36.5619 20.0708C35.5158 19.4629 34.4697 18.8549 33.4236 18.247Z" fill="white"/>
<path d="M36.5561 20.3745C36.5053 20.3745 36.4538 20.3618 36.4083 20.3349L33.2695 18.5113C33.1754 18.4568 33.1172 18.356 33.1172 18.2469C33.1172 18.2327 33.1187 18.2141 33.1209 18.1999C33.1209 18.0901 33.1777 18.0087 33.2733 17.9542C33.3696 17.8997 33.4839 17.9206 33.578 17.9744L36.7159 19.798C36.81 19.8525 36.8683 19.9533 36.8683 20.0624C36.8683 20.1721 36.8093 20.2767 36.7144 20.3319C36.6659 20.3596 36.6106 20.3745 36.5561 20.3745Z" fill="black"/>
<path d="M27.8761 34.7951L24.7378 32.9714C26.0487 32.1475 27.2871 31.0484 28.3964 29.7722L31.5347 31.596C30.4254 32.8722 29.187 33.9713 27.8761 34.7951Z" fill="white"/>
<path d="M27.8763 35.101C27.8233 35.101 27.7703 35.0868 27.7225 35.0592L24.5838 33.2356C24.4912 33.1818 24.4337 33.0832 24.4314 32.9764C24.4299 32.8696 24.4844 32.7688 24.5748 32.7121C25.8324 31.922 27.0407 30.8653 28.1661 29.5711C28.2632 29.4606 28.426 29.4337 28.5507 29.5076L31.6887 31.332C31.7671 31.3776 31.8216 31.4567 31.8365 31.5463C31.8515 31.6367 31.8253 31.7285 31.7656 31.7973C30.6021 33.1355 29.3482 34.231 28.0391 35.054C27.9891 35.0853 27.9331 35.101 27.8763 35.101ZM25.3201 32.9555L27.8689 34.4364C28.9801 33.7165 30.051 32.7882 31.0584 31.6733L28.4603 30.1625C27.4693 31.2745 26.4156 32.2117 25.3201 32.9555Z" fill="black"/>
<path d="M31.2338 22.3493C31.2338 23.1521 31.0504 24.0239 30.7136 24.8651C30.1173 26.3563 29.0774 27.771 27.8617 28.6504C27.7239 28.7498 27.5861 28.8416 27.4408 28.9181C26.3856 29.5299 25.4298 29.5834 24.7338 29.1781L21.5984 27.358C22.2944 27.7633 23.2503 27.7022 24.3055 27.0981C24.4433 27.0139 24.581 26.9222 24.7184 26.8304C25.9342 25.9433 26.9819 24.5363 27.5786 23.0375C27.9072 22.1963 28.0984 21.3322 28.0984 20.5216L31.2338 22.3493Z" fill="white"/>
<path d="M25.7435 29.7466C25.3223 29.7466 24.9295 29.6458 24.58 29.4427L21.4495 27.6257C21.4473 27.625 21.4458 27.6235 21.4443 27.6228C21.2987 27.5376 21.2486 27.3509 21.3338 27.2046C21.4182 27.0582 21.6056 27.0089 21.752 27.094C22.3733 27.4547 23.2261 27.3621 24.1529 26.8327C24.2813 26.755 24.4143 26.6654 24.5479 26.5758C25.6845 25.7461 26.7151 24.3787 27.2939 22.924C27.6195 22.0913 27.792 21.2594 27.792 20.5216C27.792 20.4118 27.851 20.311 27.9458 20.2565C28.0399 20.202 28.1579 20.202 28.252 20.2572L31.3877 22.0846C31.4818 22.1391 31.5401 22.2399 31.5401 22.349C31.5401 23.1831 31.3519 24.0927 30.9972 24.9784C30.3609 26.5713 29.2833 27.9999 28.0406 28.8983C27.8913 29.0058 27.7412 29.1051 27.5844 29.1888C26.9451 29.5592 26.3186 29.7466 25.7435 29.7466ZM23.1022 27.8774L24.8877 28.9139C25.5158 29.2776 26.3678 29.1858 27.2879 28.6541C27.4305 28.5779 27.5567 28.4935 27.6822 28.4024C28.8165 27.5824 29.8434 26.2173 30.4296 24.7514C30.7306 23.9986 30.9008 23.2324 30.9247 22.523L28.3797 21.0399C28.3192 21.712 28.1437 22.4319 27.8637 23.1488C27.2334 24.7305 26.1535 26.1621 24.8982 27.0776C24.7466 27.1792 24.6054 27.2733 24.4635 27.3591C23.9946 27.628 23.536 27.8012 23.1022 27.8774Z" fill="black"/>
<path d="M27.5751 23.0378C27.4816 22.9542 27.3812 22.8813 27.2744 22.8192L30.4127 24.643C30.5195 24.7051 30.6199 24.778 30.7134 24.8616L27.5751 23.0378C27.5751 23.0378 27.575 23.0378 27.5751 23.0378Z" fill="white"/>
<path d="M30.7133 25.168C30.6611 25.168 30.6081 25.1546 30.5595 25.1262L27.4215 23.3018C27.4044 23.2914 27.3864 23.2794 27.3715 23.266C27.2938 23.1973 27.2102 23.136 27.1213 23.0845L27.1206 23.0837C26.975 22.9986 26.9249 22.8119 27.0101 22.6655C27.0952 22.5184 27.2811 22.4691 27.4282 22.555L30.5662 24.3787C30.6909 24.4511 30.8089 24.537 30.9172 24.6341C31.0345 24.7386 31.0531 24.9149 30.9605 25.0418C30.9015 25.1232 30.8082 25.168 30.7133 25.168Z" fill="black"/>
<path d="M23.9164 36.2898L20.778 34.466L20.7644 29.657L23.9027 31.4808L23.9164 36.2898Z" fill="white"/>
<path d="M23.9161 36.596C23.8631 36.596 23.8101 36.5819 23.7623 36.5542L20.6243 34.7306C20.5302 34.6761 20.4727 34.576 20.4719 34.467L20.4585 29.6577C20.4585 29.5479 20.5167 29.4471 20.6116 29.3918C20.7072 29.3381 20.8229 29.3373 20.9185 29.3926L24.0565 31.2162C24.1506 31.2707 24.2081 31.3708 24.2088 31.4798L24.2223 36.2891C24.2223 36.3989 24.164 36.4997 24.0692 36.555C24.0214 36.5819 23.9691 36.596 23.9161 36.596ZM21.0836 34.29L23.6084 35.7574L23.5972 31.6568L21.0724 30.1894L21.0836 34.29Z" fill="black"/>
<path d="M31.235 22.3458L28.0966 20.522L28.083 15.7123L31.2213 17.5361L31.235 22.3458Z" fill="white"/>
<path d="M31.2352 22.6522C31.1822 22.6522 31.1292 22.638 31.0814 22.6104L27.9426 20.7867C27.8485 20.7322 27.791 20.6322 27.7903 20.5231L27.7769 15.7131C27.7769 15.6033 27.8351 15.5025 27.9299 15.4473C28.0255 15.3935 28.1413 15.3927 28.2369 15.448L31.3749 17.2716C31.469 17.3262 31.5265 17.4262 31.5272 17.5353L31.5414 22.3453C31.5414 22.4551 31.4831 22.5559 31.3883 22.6111C31.3405 22.638 31.2882 22.6522 31.2352 22.6522ZM28.4019 20.3461L30.9275 21.8136L30.9156 17.7122L28.3907 16.2448L28.4019 20.3461Z" fill="black"/>
<path d="M30.6754 32.5199C29.9488 33.2693 29.1766 33.927 28.366 34.4776C29.1691 33.9194 29.9488 33.254 30.6754 32.5199Z" fill="white"/>
<path d="M28.3663 34.7837C28.2692 34.7837 28.1736 34.7367 28.1138 34.6508C28.019 34.5119 28.0534 34.3222 28.1915 34.2266C28.9667 33.6882 29.7291 33.0415 30.458 32.3051C30.576 32.1864 30.7687 32.1834 30.8896 32.3014C31.0099 32.4194 31.0121 32.6121 30.8949 32.733C30.1466 33.5045 29.3535 34.1766 28.538 34.7307C28.4857 34.7665 28.426 34.7837 28.3663 34.7837Z" fill="black"/>
<path d="M21.2878 27.1311C21.7422 27.3953 22.1967 27.6595 22.6512 27.9236C23.2428 28.2674 23.8345 28.6112 24.4261 28.9549C24.0917 29.8001 23.9005 30.6707 23.9028 31.4808C22.9788 30.9439 22.055 30.407 21.131 29.8701L20.7644 29.6571C20.7621 28.8469 20.9534 27.9763 21.2878 27.1311Z" fill="white"/>
<path d="M23.9027 31.7868C23.8497 31.7868 23.7966 31.7726 23.7488 31.745L20.6109 29.9213C20.5168 29.8668 20.4593 29.7668 20.4585 29.6577C20.4563 28.8378 20.6445 27.9252 21.0029 27.0186C21.0358 26.9364 21.103 26.8715 21.1874 26.8424C21.2695 26.8132 21.3636 26.8214 21.4405 26.867L24.58 28.6906C24.7107 28.7668 24.766 28.9266 24.7107 29.0678C24.3799 29.9027 24.2066 30.7368 24.2089 31.4799C24.2089 31.5897 24.1506 31.6905 24.0558 31.7457C24.008 31.7726 23.9557 31.7868 23.9027 31.7868ZM21.0731 29.4822L23.6196 30.9624C23.6727 30.3619 23.8183 29.7264 24.0483 29.0894L21.448 27.5787C21.221 28.2359 21.0925 28.8856 21.0731 29.4822Z" fill="black"/>
<path d="M31.2184 17.5393L28.083 15.7116L28.0677 11.1081V11.0011C28.0221 10.4734 28.0221 10.4504 28.0143 10.4275C28.0064 10.3816 28.0064 10.351 27.999 10.328C27.8537 9.54802 27.4867 8.9898 26.9666 8.69165L30.1019 10.5116C30.6221 10.8176 30.9891 11.3681 31.1418 12.1481C31.1418 12.1787 31.1497 12.2016 31.1571 12.2475C31.1571 12.2704 31.165 12.301 31.2031 12.821C31.2109 12.8593 31.2109 12.8975 31.2109 12.9282L31.2184 17.5393Z" fill="#FFD948"/>
<path d="M31.2182 17.8452C31.1652 17.8452 31.1114 17.831 31.0644 17.8033L27.9294 15.976C27.8353 15.9214 27.7778 15.8214 27.777 15.7123L27.7352 10.7059C27.7233 10.564 27.7195 10.514 27.7158 10.4908C27.7098 10.4722 27.7061 10.4311 27.7031 10.4117C27.5747 9.71792 27.2745 9.22728 26.8294 8.96591L26.8129 8.9562C26.6673 8.87182 26.6173 8.68512 26.7017 8.53875C26.7868 8.39313 26.9727 8.34309 27.1191 8.42673C27.1258 8.43047 27.1318 8.4342 27.1385 8.43793L30.2556 10.2474C30.8665 10.6066 31.2765 11.2429 31.4422 12.089C31.446 12.1084 31.4632 12.2279 31.4632 12.2473C31.4691 12.304 31.4811 12.4295 31.5087 12.7984C31.5154 12.823 31.5169 12.8813 31.5169 12.9283L31.5244 17.5382C31.5244 17.648 31.4661 17.7496 31.3706 17.8041C31.3235 17.831 31.2712 17.8452 31.2182 17.8452ZM28.3887 15.5354L30.9113 17.0058L30.9046 12.9291C30.9023 12.9171 30.8993 12.8552 30.8978 12.8432C30.8717 12.484 30.8598 12.3615 30.8553 12.3122C30.8411 12.2226 30.8359 12.1883 30.8359 12.148C30.7104 11.5378 30.4012 11.0427 29.9464 10.7754L28.1579 9.73734C28.2169 9.90462 28.2647 10.0831 28.2998 10.272C28.3222 10.3841 28.3222 10.3841 28.3446 10.6536L28.3737 11.1084L28.3887 15.5354Z" fill="black"/>
<path d="M31.2184 17.5392C30.1326 17.6386 28.9321 18.0363 27.6853 18.7627C26.2172 19.604 24.833 20.8045 23.6094 22.2192C21.0479 25.1634 19.1743 29.0633 18.6851 32.7033C18.6007 33.3304 18.5548 33.9575 18.5548 34.5692L18.5854 43.9827C18.5933 46.8963 19.6332 48.9303 21.2925 49.871L18.1497 48.051C16.4903 47.1028 15.4579 45.0686 15.4501 42.1551L15.4194 32.7416C15.4194 32.1298 15.4654 31.5104 15.5497 30.8757C16.0389 27.2434 17.9126 23.3433 20.4744 20.3915C21.6976 18.9769 23.0822 17.7839 24.5425 16.9352C25.7967 16.2163 26.9897 15.8186 28.083 15.7115L31.2184 17.5392Z" fill="#EBC449"/>
<path d="M21.2927 50.1771C21.2411 50.1771 21.1896 50.1644 21.1418 50.1367C21.1164 50.1226 21.091 50.1076 21.0656 50.0927L17.9964 48.3153C16.166 47.2691 15.1519 45.0818 15.1437 42.1559L15.113 32.7427C15.113 32.1341 15.1571 31.5105 15.2467 30.8354C15.7344 27.2135 17.6021 23.2346 20.2434 20.1915C21.5257 18.7084 22.9207 17.524 24.3888 16.6712C25.6531 15.946 26.8853 15.5211 28.0533 15.4069C28.1183 15.4016 28.181 15.4151 28.237 15.4472L31.372 17.2746C31.487 17.3418 31.5452 17.4754 31.5169 17.6054C31.4877 17.7346 31.3787 17.8317 31.2465 17.8436C30.1622 17.9437 29.0159 18.3417 27.839 19.0273C26.4395 19.8286 25.0945 20.9696 23.8407 22.4192C21.274 25.3689 19.4608 29.2291 18.9881 32.7442C18.9037 33.3715 18.8611 33.9853 18.8611 34.5693L18.8918 43.9818C18.8985 46.6426 19.7797 48.6215 21.3763 49.5662L21.4458 49.6065C21.5914 49.6909 21.6414 49.8769 21.5578 50.0232C21.5018 50.1218 21.3987 50.1771 21.2927 50.1771ZM28.016 16.0259C26.963 16.1454 25.8458 16.5405 24.695 17.2006C23.306 18.0072 21.9267 19.1804 20.7057 20.5918C18.139 23.549 16.3251 27.4092 15.8531 30.9168C15.7672 31.5643 15.7254 32.1609 15.7254 32.7419L15.756 42.1544C15.7635 44.8518 16.6671 46.8517 18.3011 47.7851L19.366 48.402C18.6603 47.2616 18.2839 45.7591 18.2794 43.9833L18.2488 34.5701C18.2488 33.9584 18.2936 33.317 18.3817 32.662C18.8694 29.0334 20.7371 25.0545 23.3784 22.0181C24.6778 20.5171 26.0758 19.332 27.5328 18.4978C28.4797 17.9459 29.4139 17.568 30.3213 17.3702L28.016 16.0259Z" fill="black"/>
<path d="M33.7045 3.87457L30.5662 2.05078C30.6185 2.07809 30.6674 2.10463 30.7156 2.13223L33.854 3.95603C33.8057 3.92843 33.7568 3.90189 33.7045 3.87457Z" fill="white"/>
<path d="M33.8542 4.26187C33.8026 4.26187 33.7504 4.24843 33.7026 4.22155L33.5622 4.14463C33.5584 4.14313 33.5547 4.14089 33.551 4.13865L30.4122 2.31501C30.2681 2.23137 30.2181 2.04766 30.2987 1.90204C30.3794 1.75716 30.5631 1.70414 30.7087 1.78031L30.8685 1.86694L34.008 3.69133C34.1536 3.77572 34.2029 3.96241 34.1193 4.10804C34.0625 4.20661 33.9595 4.26187 33.8542 4.26187Z" fill="black"/>
<path d="M27.6826 18.7621C28.9341 18.0395 30.1306 17.6401 31.2214 17.536L31.235 22.3457C31.2373 23.1545 31.0466 24.021 30.7132 24.8616C30.014 24.2366 28.9253 24.2028 27.7001 24.9103C26.3069 25.7146 25.0869 27.2847 24.4261 28.9549C24.0917 29.8001 23.9004 30.6706 23.9027 31.4808L23.9163 36.2898L23.9294 40.8957C23.9362 43.3131 25.6532 44.285 27.7515 43.0736C29.8609 41.8557 31.5554 38.9141 31.5486 36.4967L31.5347 31.6097C34.0916 28.6549 35.9635 24.7712 36.4569 21.1352C36.7206 21.9627 36.8636 22.92 36.8667 23.996L36.8934 33.4109C36.9098 39.2258 32.8293 46.2936 27.769 49.2152C25.2443 50.6728 22.9551 50.8099 21.2895 49.8738C19.6294 48.9278 18.5929 46.8954 18.5846 43.9815L18.5579 34.5666C18.5562 33.9571 18.6001 33.333 18.6852 32.7016C19.1767 29.0641 21.0498 25.1671 23.6088 22.2171C24.8349 20.8036 26.2186 19.6073 27.6826 18.7621Z" fill="white"/>
<path d="M23.6644 50.7767C22.7481 50.7767 21.896 50.5661 21.1396 50.1404C19.3025 49.0935 18.2868 46.9069 18.2786 43.9825L18.2517 34.567C18.2503 33.9554 18.2943 33.3139 18.3824 32.6605C18.8723 29.0371 20.7393 25.0582 23.3784 22.0173C24.6711 20.5253 26.0683 19.3409 27.5298 18.497C28.7896 17.7696 30.0218 17.3432 31.192 17.2312C31.2749 17.2223 31.3623 17.2514 31.4265 17.3089C31.49 17.3671 31.5266 17.4493 31.5273 17.5352L31.5415 22.3452C31.5437 23.1622 31.3555 24.071 30.9978 24.9746C30.9612 25.0672 30.8806 25.1367 30.7835 25.1598C30.6864 25.183 30.5834 25.1561 30.5094 25.0896C29.8836 24.5318 28.9166 24.5616 27.8531 25.1755C26.5717 25.9148 25.3678 27.4069 24.7107 29.0677C24.3798 29.9026 24.2066 30.7368 24.2088 31.4798L24.2357 40.8953C24.2387 41.9445 24.5807 42.7189 25.2006 43.0759C25.8249 43.4343 26.6762 43.3417 27.5985 42.8085C29.6148 41.645 31.2495 38.814 31.2428 36.4975L31.2286 31.6105C31.2286 31.5366 31.2555 31.4656 31.3033 31.4096C33.8662 28.4479 35.6794 24.5915 36.1536 21.0943C36.173 20.9524 36.2881 20.8434 36.4299 20.8307C36.5733 20.821 36.7048 20.9061 36.7481 21.0428C37.0266 21.9173 37.17 22.9105 37.173 23.9956L37.1999 33.4103C37.2163 39.3084 33.0545 46.5171 27.9218 49.4803C26.4298 50.3413 24.9803 50.7767 23.6644 50.7767ZM30.9164 17.8817C29.9329 18.0288 28.8986 18.4134 27.836 19.0272C26.4328 19.8367 25.0885 20.9778 23.8407 22.4176C21.2762 25.3726 19.463 29.2328 18.9888 32.7426C18.9044 33.3684 18.8626 33.9816 18.8641 34.5655L18.891 43.981C18.8985 46.6769 19.8043 48.6753 21.4413 49.608C23.0857 50.5325 25.279 50.3003 27.6157 48.9501C32.5788 46.0854 36.6039 39.1149 36.5875 33.4118L36.5606 23.9971C36.5599 23.5423 36.533 23.1054 36.48 22.6887C35.7489 25.8312 34.0768 29.1095 31.841 31.7225L31.8551 36.496C31.8619 39.0074 30.0898 42.0767 27.9047 43.3387C26.7867 43.9847 25.7188 44.0788 24.8951 43.6061C24.0789 43.1356 23.6271 42.1738 23.6234 40.8968L23.5965 31.4813C23.5942 30.6614 23.7832 29.7488 24.1416 28.8422C24.8578 27.032 26.1311 25.463 27.547 24.6453C28.6813 23.9918 29.7544 23.9015 30.5662 24.3772C30.8059 23.6715 30.9314 22.9762 30.9291 22.3467L30.9164 17.8817Z" fill="black"/>
<path d="M33.4056 3.73641C33.3593 3.71344 33.3138 3.69048 33.26 3.67517H33.2679C33.3138 3.69813 33.3593 3.71344 33.4056 3.73641Z" fill="white"/>
<path d="M33.4055 4.04233C33.3645 4.04233 33.3234 4.03412 33.2846 4.01694C33.2846 4.01694 33.2838 4.01694 33.2831 4.0162C33.2831 4.0162 33.2823 4.0162 33.2816 4.0162C33.2808 4.0162 33.2808 4.01545 33.2808 4.01545C33.2808 4.01545 33.2801 4.0147 33.2793 4.0147C33.2786 4.01396 33.2778 4.01396 33.2771 4.01396C33.2764 4.01396 33.2771 4.01396 33.2764 4.01321C33.2756 4.01321 33.2749 4.01246 33.2741 4.01246C33.2734 4.01246 33.2726 4.01172 33.2726 4.01172C33.2719 4.01172 33.2599 4.00574 33.2599 4.00499C33.248 3.99977 33.2368 3.99379 33.2248 3.98857L33.2233 3.99006L33.1793 3.9699C33.1778 3.9699 33.1755 3.96915 33.174 3.9684C33.0284 3.92584 32.9358 3.78245 32.9575 3.6316C32.9851 3.43445 33.2233 3.31273 33.4033 3.40085C33.4466 3.41653 33.4869 3.43595 33.5273 3.45536C33.5295 3.45611 33.5318 3.4576 33.5347 3.4591C33.537 3.45984 33.5385 3.46059 33.5385 3.46059C33.6908 3.53452 33.7543 3.71748 33.6811 3.86908C33.6281 3.97886 33.5191 4.04233 33.4055 4.04233Z" fill="black"/>
<path d="M33.7035 3.87399C33.6576 3.85103 33.6042 3.82807 33.5504 3.79754C33.5049 3.77458 33.4511 3.75171 33.4055 3.7364C33.3592 3.71344 33.3137 3.69813 33.2678 3.67516C33.2599 3.67516 33.2599 3.67516 33.2599 3.67516C33.2371 3.66751 33.2144 3.65985 33.1912 3.6522C33.0994 3.61402 33.0075 3.59106 32.916 3.56053C32.8623 3.54522 32.8089 3.52991 32.7555 3.5146C32.6558 3.49164 32.5565 3.46868 32.4571 3.45337C32.3193 3.42284 32.1819 3.39988 32.0442 3.39223C31.8224 3.36936 31.6006 3.35405 31.3713 3.3617H31.3328C31.1036 3.36936 30.8665 3.39223 30.6294 3.42284C29.7426 3.55288 28.7867 3.86634 27.7924 4.39394L27.777 4.38629C27.6624 4.44752 27.5478 4.50876 27.4328 4.57746C27.41 4.58512 27.3947 4.60043 27.3719 4.60808C27.3719 4.60808 27.3719 4.60808 27.3641 4.61574C22.3095 7.53696 18.2261 14.6028 18.2414 20.4146L18.272 29.8281C18.272 30.914 18.4172 31.8699 18.685 32.7034L15.5496 30.8758C15.2819 30.0499 15.1366 29.0863 15.1366 28.0082L15.106 18.5946C15.0907 12.7828 19.1741 5.71696 24.2291 2.78817C24.2291 2.78817 24.2365 2.78817 24.2365 2.78052C24.2519 2.77286 24.2746 2.76521 24.2899 2.7499C24.4352 2.67335 24.573 2.59699 24.7108 2.5281C24.7261 2.51279 24.7488 2.50514 24.772 2.49749C25.3989 2.17637 26.0031 1.93927 26.5841 1.78636C26.8977 1.6946 27.196 1.63346 27.494 1.59519C27.5631 1.57988 27.6396 1.57222 27.7083 1.56457C27.7849 1.55691 27.8614 1.54926 27.9376 1.5416C28.274 1.51864 28.5955 1.52629 28.9088 1.56457C29.0772 1.57988 29.2452 1.60284 29.4058 1.64111C29.4289 1.64111 29.4595 1.64877 29.4823 1.66398C29.6201 1.68695 29.75 1.72513 29.8725 1.77105C29.9106 1.77105 29.9487 1.78636 29.9871 1.80933C30.0331 1.81698 30.079 1.83229 30.1171 1.8475L30.1249 1.85516L30.1555 1.87047C30.2011 1.87812 30.2317 1.89343 30.2702 1.90865L30.3236 1.93927C30.3542 1.94692 30.3848 1.96223 30.4154 1.97754C30.4688 2.0005 30.5147 2.02347 30.5681 2.05399L33.7035 3.87399Z" fill="#FFD948"/>
<path d="M18.6849 33.0093C18.6318 33.0093 18.5788 32.9951 18.531 32.9675L15.396 31.1401C15.3311 31.102 15.2818 31.0415 15.2586 30.9698C14.9748 30.0954 14.8307 29.0991 14.8307 28.0081L14.8001 18.5956C14.7844 12.717 18.9291 5.52395 24.0453 2.5413C24.0632 2.52711 24.0834 2.51441 24.105 2.50396L24.5725 2.25453L24.5732 2.25603C24.6076 2.23586 24.6449 2.21794 24.6666 2.20973C25.2752 1.89608 25.9062 1.64889 26.5067 1.49057C26.8196 1.39872 27.1325 1.333 27.4551 1.29193C27.5088 1.27923 27.5955 1.26878 27.6731 1.26056L27.9046 1.23741C28.2736 1.21202 28.6111 1.22098 28.9457 1.26056C29.1204 1.27699 29.3026 1.30164 29.4774 1.3442C29.4841 1.33375 29.5311 1.34943 29.5804 1.37034C29.7066 1.39499 29.8261 1.42934 29.9411 1.47041C29.9912 1.47788 30.0419 1.49431 30.0927 1.51895C30.136 1.52941 30.1808 1.5436 30.2294 1.56301C30.2436 1.56824 30.2578 1.57496 30.2712 1.58317C30.2906 1.58616 30.3354 1.60483 30.369 1.61902C30.4564 1.65711 30.5057 1.681 30.5423 1.69893C30.5998 1.72357 30.6535 1.7512 30.717 1.7863L33.8572 3.60994C33.9999 3.69284 34.0514 3.87505 33.9723 4.02068C33.8923 4.1663 33.7116 4.22081 33.5645 4.14688L33.7034 3.87431L33.5496 4.13867L33.5234 4.12373L33.5219 4.12597C33.4824 4.1073 33.4405 4.08714 33.3987 4.06324C33.3786 4.05353 33.339 4.0371 33.3061 4.02516C33.2994 4.02291 33.2292 3.9923 33.2232 3.99006L33.1777 3.96915C33.1724 3.9684 33.168 3.96691 33.1627 3.96541C33.1553 3.96243 33.0791 3.93703 33.0724 3.93405C33.0216 3.91314 32.9708 3.8982 32.92 3.88252L32.6691 3.80784C32.5735 3.78693 32.4914 3.76826 32.4092 3.75557C32.2688 3.72495 32.1479 3.70479 32.0261 3.69732C31.8051 3.67566 31.5945 3.65998 31.3824 3.66745C31.1233 3.67491 30.8955 3.69657 30.6692 3.7257C29.7835 3.85638 28.862 4.17227 27.936 4.6644C27.9091 4.67859 27.88 4.68905 27.8501 4.69427C27.7575 4.74431 27.6731 4.78986 27.5895 4.84064C27.5731 4.85035 27.4954 4.88918 27.4775 4.8959L27.4767 4.89366C22.5024 7.84122 18.5325 14.7542 18.5475 20.4141L18.5781 29.8273C18.5781 30.8496 18.7117 31.7853 18.9761 32.6098C19.0149 32.73 18.9754 32.8622 18.8768 32.9413C18.8208 32.9862 18.7528 33.0093 18.6849 33.0093ZM15.806 30.6711L18.1965 32.0646C18.0434 31.3724 17.9657 30.6233 17.9657 29.828L17.9351 20.4156C17.9202 14.5227 22.0812 7.31623 27.2109 4.35075C27.2609 4.32088 27.293 4.30221 27.3356 4.28728C27.3894 4.2477 27.5021 4.18646 27.6149 4.12597C27.6433 4.11104 27.6746 4.09983 27.7082 4.09311C28.6761 3.58605 29.6439 3.25821 30.5848 3.12005C30.8373 3.0872 31.0844 3.06405 31.3234 3.05658C31.4534 3.0506 31.5751 3.05359 31.6893 3.05882L30.4146 2.31801C30.3757 2.29635 30.3384 2.27768 30.2943 2.25827C30.266 2.25155 30.1958 2.21869 30.1704 2.2045C30.139 2.19927 30.0442 2.15745 30.0158 2.14326C30.0091 2.13953 30.0009 2.13505 29.9912 2.12907C29.9463 2.11862 29.8605 2.08949 29.8306 2.07232C29.6596 2.0178 29.5491 1.98494 29.4318 1.96553C29.3997 1.9603 29.3683 1.94984 29.34 1.93416C29.1555 1.89906 29.0181 1.88189 28.8807 1.86919C28.5775 1.8326 28.2795 1.82513 27.9577 1.84679L27.7381 1.86919C27.6814 1.87517 27.6171 1.88189 27.5581 1.89384C27.2422 1.93566 26.96 1.99465 26.6702 2.07979C26.1041 2.22914 25.5149 2.46064 24.9115 2.76981L24.4351 3.01924C24.4261 3.02521 24.4164 3.03044 24.4082 3.03567C24.3992 3.04164 24.391 3.04762 24.3821 3.05284C19.4204 5.92721 15.3968 12.8984 15.4125 18.5941L15.4431 28.0074C15.4431 28.9886 15.5648 29.884 15.806 30.6711ZM29.3429 1.93491C29.3676 1.94536 29.3892 1.9476 29.4057 1.9476C29.384 1.94312 29.3631 1.93864 29.3429 1.93491Z" fill="black"/>
<path d="M27.7925 4.39395C30.0101 3.22402 32.0137 3.07868 33.5505 3.79755C33.6043 3.82807 33.6577 3.85104 33.7036 3.874C33.7574 3.90462 33.803 3.92758 33.8567 3.95811C35.5161 4.89877 36.5485 6.93282 36.556 9.83874L36.5866 19.2599V19.5122C36.5791 19.6117 36.5791 19.6957 36.5791 19.7799C36.5713 19.8792 36.5713 19.9634 36.5638 20.0475C36.556 20.147 36.5485 20.2311 36.5485 20.3228C36.5332 20.4222 36.5254 20.5064 36.5179 20.5905C36.5101 20.6899 36.5026 20.7816 36.4873 20.8734C36.4794 20.9576 36.472 21.0493 36.4567 21.1335C35.9671 24.7735 34.0938 28.6581 31.532 31.5946C31.2564 31.9157 30.9659 32.2217 30.6754 32.5199C29.9488 33.2539 29.1692 33.9193 28.366 34.4775C28.2055 34.5846 28.0371 34.6993 27.8765 34.7987V34.791C27.7391 34.8829 27.6013 34.9745 27.4635 35.0587C26.2018 35.7852 25.0088 36.1905 23.9156 36.2899L23.9002 31.4799C23.9002 30.6693 24.0914 29.7975 24.4278 28.9564C25.1239 29.5911 26.2171 29.6292 27.4407 28.9181C27.586 28.8417 27.7238 28.7499 27.8616 28.6505C29.0773 27.7711 30.1172 26.3564 30.7135 24.8651C31.0503 24.024 31.2337 23.1522 31.2337 22.3493L31.2183 17.5393L31.2109 12.9282C31.2109 12.8976 31.2109 12.8593 31.203 12.821C31.165 12.3011 31.1571 12.2705 31.1571 12.2475C31.1496 12.2017 31.1418 12.1787 31.1418 12.1482C30.8207 10.4658 29.4671 9.81578 27.8078 10.5652C27.7925 10.5575 27.7772 10.5575 27.7697 10.5499C27.6472 10.6111 27.5173 10.6799 27.3948 10.7487C25.2919 11.9646 23.5866 14.9163 23.5944 17.3252L23.6094 22.2193C21.0479 25.1635 19.1742 29.0634 18.6851 32.7034C18.4174 31.8699 18.2721 30.914 18.2721 29.8281L18.2415 20.4146C18.2262 14.6028 22.3174 7.52932 27.372 4.60809C27.4938 4.53453 27.6319 4.46302 27.7925 4.39395Z" fill="white"/>
<path d="M23.9153 36.5961C23.8392 36.5961 23.766 36.5677 23.7092 36.5162C23.6457 36.4587 23.6099 36.3765 23.6092 36.2906L23.5942 31.4806C23.5942 30.6539 23.7847 29.7421 24.1439 28.843C24.1812 28.7496 24.2611 28.6809 24.3589 28.6585C24.4575 28.6361 24.5598 28.663 24.6337 28.7302C25.2573 29.2993 26.2244 29.2701 27.2871 28.654C27.4304 28.5779 27.5567 28.4935 27.6821 28.4024C28.8165 27.5824 29.8433 26.2173 30.4295 24.7514C30.7559 23.9366 30.9276 23.1062 30.9276 22.3489L30.9045 12.929C30.9022 12.9171 30.8993 12.8551 30.8978 12.8431C30.8716 12.4839 30.8597 12.3615 30.8552 12.3122C30.841 12.2226 30.8358 12.1882 30.8358 12.1479C30.7073 11.5019 30.3787 10.9971 29.8918 10.7439C29.3706 10.4736 28.6753 10.5095 27.9338 10.844C27.8949 10.8619 27.8531 10.8709 27.812 10.8716C27.7224 10.9172 27.6313 10.9665 27.544 11.015C25.5291 12.1808 23.8929 15.0118 23.9004 17.3246L23.9153 22.2183C23.9153 22.2922 23.8885 22.3639 23.8399 22.4199C21.274 25.3689 19.4608 29.2291 18.9881 32.7442C18.9686 32.8853 18.8544 32.9951 18.7118 33.0078C18.5714 33.0182 18.4377 32.9331 18.3936 32.7964C18.1098 31.9123 17.9657 30.9131 17.9657 29.828L17.9351 20.4155C17.9202 14.5197 22.085 7.31023 27.2191 4.34326C27.3438 4.26784 27.4902 4.19092 27.6605 4.11773C29.8754 2.95201 32.0127 2.74141 33.6795 3.52031L33.7856 3.57408C33.7923 3.57706 33.8483 3.60469 33.855 3.60843L34.0081 3.69207C35.8407 4.73159 36.8548 6.91444 36.8623 9.83809L36.8929 19.5119C36.8847 19.6262 36.8855 19.7031 36.8855 19.78L36.8683 20.0742C36.8601 20.1833 36.8548 20.2505 36.8548 20.3229C36.8362 20.4611 36.8295 20.5387 36.8227 20.6149C36.8138 20.7262 36.8056 20.824 36.7891 20.9226C36.7802 21.0219 36.772 21.1078 36.7578 21.187C36.2724 24.7969 34.4039 28.7676 31.7625 31.7958C31.484 32.1199 31.1897 32.4305 30.8948 32.7337C30.1375 33.4984 29.3459 34.169 28.5409 34.7284L28.4334 34.8001C28.3019 34.8882 28.1668 34.9785 28.0368 35.0585C28.0226 35.0674 28.007 35.0756 27.992 35.0816C27.8688 35.1637 27.7456 35.2451 27.6216 35.3198C26.3342 36.0621 25.0982 36.4893 23.943 36.5946C23.934 36.5953 23.9243 36.5961 23.9153 36.5961ZM24.5733 29.4426C24.3328 30.1454 24.2066 30.8429 24.2066 31.4799L24.22 35.9456C25.1923 35.8022 26.2304 35.4162 27.311 34.7933C27.4394 34.7157 27.5731 34.6261 27.706 34.5365C27.7262 34.523 27.7478 34.5126 27.7702 34.5043C27.8763 34.4371 27.9861 34.3632 28.0936 34.2915L28.1966 34.2228C28.9666 33.6881 29.729 33.0414 30.4579 32.3051C30.7417 32.0123 31.0284 31.7121 31.2995 31.3955C33.8677 28.4524 35.6816 24.6012 36.1536 21.0921C36.1671 21.0167 36.173 20.948 36.179 20.883C36.1992 20.7419 36.2051 20.659 36.2126 20.5701C36.2216 20.4715 36.2298 20.3812 36.2462 20.2751C36.2425 20.2348 36.2485 20.1527 36.2559 20.0608L36.2746 19.7546C36.2731 19.6882 36.2738 19.5978 36.2821 19.4895L36.25 9.83959C36.2432 7.14519 35.3396 5.15053 33.7057 4.22378L33.5518 4.14014C33.4824 4.10728 33.4406 4.08712 33.3987 4.06322C31.9283 3.37693 29.9792 3.58528 27.9353 4.66438C27.9278 4.66811 27.9203 4.67185 27.9129 4.67558C27.7672 4.73756 27.6418 4.80253 27.5313 4.86974C22.5599 7.74187 18.5325 14.7138 18.5475 20.414L18.5781 29.8272C18.5781 30.2873 18.605 30.7294 18.6587 31.152C19.3883 27.9946 21.0619 24.711 23.303 22.1055L23.288 17.3261C23.2806 14.8184 25.0542 11.7491 27.2415 10.4833C27.3714 10.4109 27.5059 10.3392 27.6328 10.2765C27.6791 10.2533 27.7292 10.2339 27.7792 10.2443C28.6596 9.87095 29.5072 9.85527 30.1741 10.201C30.8335 10.5438 31.2719 11.1965 31.4422 12.0904C31.4459 12.1098 31.4631 12.2278 31.4631 12.2472C31.469 12.304 31.481 12.4294 31.5086 12.7983C31.5153 12.823 31.5168 12.8812 31.5168 12.9283L31.54 22.3482C31.54 23.1831 31.3518 24.0927 30.9971 24.9784C30.3608 26.5713 29.2832 27.9999 28.0406 28.8982C27.8912 29.0058 27.7411 29.1051 27.5843 29.1887C26.4753 29.8325 25.3813 29.9198 24.5733 29.4426Z" fill="black"/>
</svg>
