<svg  viewBox="0 0 20 20" xmlns="http://www.w3.org/2000/svg">
<path d="M17.5184 14.8462C17.9112 14.8457 18.2878 14.6895 18.5655 14.4117C18.8433 14.134 18.9995 13.7574 19 13.3646V2.48154C18.9995 2.08874 18.8433 1.71217 18.5655 1.43442C18.2878 1.15667 17.9112 1.00044 17.5184 1H6.63535C6.24255 1.00044 5.86597 1.15667 5.58823 1.43442C5.31048 1.71217 5.15425 2.08874 5.15381 2.48154V3.76923H13.3646C14.1243 3.77073 14.8524 4.07318 15.3896 4.61036C15.9268 5.14755 16.2292 5.87569 16.2307 6.63538V14.8462H17.5184Z" />
<path d="M13.3646 5.15405H2.48154C1.66331 5.15405 1 5.81736 1 6.63559V17.5187C1 18.3369 1.66331 19.0002 2.48154 19.0002H13.3646C14.1828 19.0002 14.8462 18.3369 14.8462 17.5187V6.63559C14.8462 5.81736 14.1828 5.15405 13.3646 5.15405Z" />
</svg>
