<svg  viewBox="0 0 18 18" xmlns="http://www.w3.org/2000/svg">
<path fill-rule="evenodd" clip-rule="evenodd" d="M7.24411 0.211792C6.60087 0.211792 6.07941 0.733245 6.07941 1.37649C6.07941 1.69812 5.81868 1.95885 5.49706 1.95885H5.4H2.77941C2.29698 1.95885 1.90588 2.34995 1.90588 2.83238C1.90588 3.31481 2.29698 3.70591 2.77941 3.70591H5.4H5.49706H12.2898H12.2912H12.3882H15.0088C15.4913 3.70591 15.8824 3.31481 15.8824 2.83238C15.8824 2.34995 15.4913 1.95885 15.0088 1.95885H12.2905C11.9692 1.95847 11.7088 1.69789 11.7088 1.37649C11.7088 0.733245 11.1874 0.211792 10.5441 0.211792H7.24411Z" />
<path fill-rule="evenodd" clip-rule="evenodd" d="M3.65295 5.45294C3.40867 5.45294 3.17555 5.55523 3.01013 5.735C2.84473 5.91476 2.76215 6.15557 2.78244 6.39902L3.45572 14.4784C3.60663 16.2894 5.12052 17.6824 6.93777 17.6824H10.8505C12.6678 17.6824 14.1816 16.2894 14.3325 14.4784L15.0058 6.39902C15.0261 6.15557 14.9435 5.91476 14.7781 5.735C14.6127 5.55523 14.3796 5.45294 14.1353 5.45294H3.65295Z" />
</svg>
