<svg  viewBox="0 0 18 18" xmlns="http://www.w3.org/2000/svg">
<path d="M9.07209 16.5812L9.07209 16.5812L9.06917 16.5828C9.04813 16.594 9.02435 16.6 9 16.6C8.97565 16.6 8.95187 16.594 8.93083 16.5828L8.92791 16.5812C8.76714 16.4968 6.63088 15.3419 4.54243 13.5277C2.42695 11.6901 0.50014 9.296 0.5 6.74206C0.501413 5.5657 0.973124 4.43709 1.81299 3.60402C2.653 2.77082 3.79275 2.30139 4.98244 2.29999C6.49718 2.30007 7.79734 2.94382 8.60134 4.00594L9 4.53261L9.39866 4.00594C10.2027 2.94382 11.5028 2.30007 13.0176 2.29999C14.2073 2.30139 15.347 2.77082 16.187 3.60402C17.0269 4.43716 17.4987 5.56588 17.5 6.74235C17.4997 9.29618 15.573 11.6901 13.4576 13.5277C11.3691 15.3419 9.23286 16.4968 9.07209 16.5812Z" />
</svg>
