<svg width="23" height="23" viewBox="0 0 23 23" fill="none" xmlns="http://www.w3.org/2000/svg">
<path d="M11.6752 18.768L11.6752 18.768L11.6722 18.7695C11.6451 18.784 11.6146 18.7917 11.5833 18.7917C11.5521 18.7917 11.5215 18.784 11.4944 18.7695L11.4915 18.768C11.3192 18.6775 9.04207 17.4464 6.81559 15.5123C4.5621 13.5548 2.50014 10.9971 2.5 8.26237C2.50151 7.00109 3.00727 5.79107 3.90768 4.89796C4.80823 4.0047 6.03006 3.5015 7.30535 3.5C8.92765 3.50008 10.322 4.1897 11.1847 5.32938L11.5833 5.85604L11.982 5.32938C12.8447 4.1897 14.239 3.50008 15.8613 3.5C17.1366 3.50149 18.3584 4.0047 19.259 4.89796C20.1595 5.79114 20.6652 7.00128 20.6667 8.26266C20.6664 10.9973 18.6045 13.5549 16.3511 15.5123C14.1246 17.4464 11.8474 18.6775 11.6752 18.768Z" fill="#DFA543" stroke="#DFA543"/>
</svg>
