<svg viewBox="0 0 24 24" fill="none" xmlns="http://www.w3.org/2000/svg">
  <path d="M12.1059 19.4728L12.103 19.4743C12.0716 19.4911 12.0362 19.5 12 19.5C11.9638 19.5 11.9284 19.4911 11.897 19.4743L11.8941 19.4728C11.7136 19.378 9.33577 18.0924 7.01071 16.0727C4.65863 14.0296 2.50014 11.3551 2.5 8.49116C2.50158 7.16922 3.03167 5.90105 3.97531 4.96504C4.9191 4.0289 6.19956 3.50156 7.53601 3.5C9.23513 3.50008 10.6967 4.22247 11.6013 5.41753L12 5.94419L12.3987 5.41753C13.3033 4.22247 14.7649 3.50008 16.464 3.5C17.8004 3.50156 19.0809 4.0289 20.0247 4.96504C20.9684 5.90111 21.4985 7.16941 21.5 8.49145C21.4997 11.3553 19.3413 14.0296 16.9893 16.0727C14.6642 18.0924 12.2864 19.378 12.1059 19.4728Z" fill="white" stroke="#181818"/>
</svg>
