<svg width="24" height="24" viewBox="0 0 24 24" fill="none" xmlns="http://www.w3.org/2000/svg">
  <path d="M22 12C22 6.47715 17.5228 2 12 2C6.47715 2 2 6.47715 2 12C2 17.5228 6.47715 22 12 22V24C5.37258 24 0 18.6274 0 12C0 5.37258 5.37258 0 12 0C18.6274 0 24 5.37258 24 12C24 18.6274 18.6274 24 12 24V22C17.5228 22 22 17.5228 22 12Z" fill="#D9D9D9"/>
  <path d="M14.6625 9.5C14.6625 10.2583 14.3375 10.975 13.6875 11.65C13.5875 11.7583 13.4458 11.8958 13.2625 12.0625C13.1542 12.1625 13.05 12.2667 12.95 12.375C12.85 12.475 12.7708 12.575 12.7125 12.675C12.6042 12.8583 12.5375 13.0125 12.5125 13.1375C12.4875 13.2625 12.475 13.4625 12.475 13.7375H10.8875C10.8875 13.1042 11.0083 12.575 11.25 12.15C11.3417 11.9667 11.4417 11.8167 11.55 11.7C11.6583 11.5833 11.8125 11.4458 12.0125 11.2875C12.3125 11.0292 12.525 10.8333 12.65 10.7C12.8083 10.525 12.9167 10.3458 12.975 10.1625C13.0417 9.97917 13.075 9.77083 13.075 9.5375C13.075 9.25417 13.0083 9.02083 12.875 8.8375C12.65 8.55417 12.3042 8.4125 11.8375 8.4125C11.4458 8.4125 11.1458 8.50417 10.9375 8.6875C10.6875 8.8875 10.5708 9.17083 10.5875 9.5375H9C9.04167 9.1125 9.15417 8.725 9.3375 8.375C9.52917 8.01667 9.775 7.73333 10.075 7.525C10.3083 7.35 10.5708 7.22083 10.8625 7.1375C11.1625 7.04583 11.4667 7 11.775 7C12.2583 7 12.7 7.075 13.1 7.225C13.5 7.375 13.8292 7.60417 14.0875 7.9125C14.2708 8.12083 14.4125 8.36667 14.5125 8.65C14.6125 8.925 14.6625 9.20833 14.6625 9.5ZM10.8875 14.5125H12.475V16.175H10.8875V14.5125Z" fill="#A4A4A4"/>
</svg>
