<svg  viewBox="0 0 20 20" xmlns="http://www.w3.org/2000/svg">
<path d="M10.063 0.135003L1.29378 6.20375C0.733238 6.59303 1.02775 7.41147 1.73081 7.41147H2.30086C2.39073 7.40469 2.481 7.41665 2.56647 7.44663C2.65194 7.4766 2.73094 7.52399 2.79892 7.58614C2.86689 7.64828 2.92252 7.72395 2.96259 7.80875C3.00266 7.89354 3.02641 7.98582 3.03243 8.08028V19.2894C3.04702 19.4792 3.13175 19.6555 3.26847 19.7805C3.4052 19.9055 3.58305 19.9692 3.76398 19.9582H7.48825C7.57813 19.965 7.66842 19.9531 7.7539 19.9231C7.83937 19.8931 7.91836 19.8457 7.98634 19.7835C8.05432 19.7214 8.10994 19.6458 8.15001 19.561C8.19008 19.4762 8.2138 19.3839 8.21983 19.2894V13.7298C8.23442 13.54 8.31914 13.3637 8.45587 13.2387C8.59259 13.1137 8.77044 13.05 8.95138 13.061H12.0486C12.1385 13.0542 12.2288 13.0661 12.3142 13.0961C12.3997 13.1261 12.4787 13.1735 12.5467 13.2357C12.6147 13.2978 12.6703 13.3734 12.7104 13.4582C12.7504 13.543 12.7741 13.6353 12.7802 13.7298V19.3294C12.7948 19.5191 12.8795 19.6954 13.0162 19.8204C13.1529 19.9454 13.3308 20.0092 13.5117 19.9982H17.236C17.3259 20.0049 17.4162 19.993 17.5016 19.963C17.5871 19.933 17.6661 19.8856 17.7341 19.8235C17.8021 19.7613 17.8577 19.6857 17.8978 19.6009C17.9378 19.5161 17.9616 19.4238 17.9676 19.3294V8.08028C17.9822 7.89049 18.0669 7.71423 18.2036 7.58924C18.3404 7.46426 18.5182 7.40042 18.6991 7.41147H19.2692C19.9722 7.41147 20.2668 6.59303 19.7062 6.20375L10.937 0.135003C10.8067 0.0468832 10.655 0 10.5 0C10.345 0 10.1933 0.0468832 10.063 0.135003Z"/>
</svg>
