<svg  viewBox="0 0 20 20" xmlns="http://www.w3.org/2000/svg">
<path d="M16.9788 7.86015L15.5925 1.57048C15.4949 1.12597 15.2491 0.728162 14.8955 0.442723C14.5419 0.157284 14.1017 0.00127932 13.6478 0.000544549H5.72913C5.26667 -0.0102743 4.81482 0.140403 4.45095 0.426793C4.08709 0.713183 3.83383 1.11749 3.7345 1.57048L2.34822 7.86015C2.3148 8.00851 2.31559 8.1626 2.35051 8.31063C2.38542 8.45865 2.45357 8.59672 2.54974 8.71435C2.64591 8.83199 2.76756 8.92611 2.90547 8.98949C3.04337 9.05287 3.19388 9.08386 3.34554 9.08012H15.9815C16.1332 9.08386 16.2837 9.05287 16.4216 8.98949C16.5595 8.92611 16.6812 8.83199 16.7773 8.71435C16.8735 8.59672 16.9416 8.45865 16.9765 8.31063C17.0114 8.1626 17.0122 8.00851 16.9788 7.86015ZM8.63131 2.54046H6.28762C6.26808 2.54031 6.24915 2.54733 6.23445 2.56023C6.21974 2.57314 6.21029 2.59096 6.20785 2.6104L5.79895 4.46035L4.80163 4.25034L5.21054 2.39044C5.26306 2.14883 5.39668 1.93263 5.58909 1.77792C5.78151 1.62322 6.02105 1.53942 6.26768 1.54051H8.61134L8.63131 2.54046ZM14.6152 18.7797L13.219 12.4899C13.1214 12.0454 12.8754 11.6476 12.5219 11.3622C12.1683 11.0767 11.7281 10.9207 11.2742 10.92H3.31562C2.86167 10.9207 2.42156 11.0767 2.06797 11.3622C1.71438 11.6476 1.46848 12.0454 1.37088 12.4899L0.0244982 18.7596C-0.00892237 18.908 -0.00813621 19.062 0.0267809 19.2101C0.061698 19.3581 0.129812 19.4962 0.225982 19.6138C0.322151 19.7315 0.443837 19.8255 0.581743 19.8889C0.719649 19.9523 0.870153 19.9833 1.02181 19.9796H13.6578C13.8026 19.9715 13.944 19.9319 14.0721 19.8635C14.2001 19.795 14.3117 19.6994 14.399 19.5832C14.4864 19.4671 14.5474 19.3332 14.5779 19.191C14.6083 19.0487 14.6074 18.9015 14.5753 18.7596L14.6152 18.7797ZM6.37737 13.4499H4.01375C3.99303 13.4494 3.97277 13.4561 3.95641 13.4688C3.94005 13.4816 3.92859 13.4996 3.92399 13.5199L3.51509 15.3798L2.51778 15.1598L2.92668 13.3099C2.97754 13.0647 3.11177 12.8449 3.30643 12.688C3.50109 12.5312 3.74409 12.447 3.99381 12.4499H6.32752L6.37737 13.4499ZM14.8844 19.9996H18.9834H15.9117C16.1288 19.5169 16.1848 18.9768 16.0713 18.4597L14.685 12.1699C14.5851 11.7215 14.3987 11.2969 14.1365 10.92H16.6198C17.0823 10.9092 17.5341 11.0599 17.8979 11.3463C18.2618 11.6327 18.5151 12.0369 18.6144 12.4899L19.9707 18.7596C20.0077 18.9094 20.0097 19.0657 19.9764 19.2163C19.9431 19.3669 19.8756 19.5077 19.779 19.6278C19.6824 19.7478 19.5595 19.8439 19.4197 19.9084C19.28 19.9729 19.1272 20.0041 18.9734 19.9996H14.8844Z" />
</svg>
