<svg  viewBox="0 0 18 18" xmlns="http://www.w3.org/2000/svg">
<g clip-path="url(#clip0_105_1110)">
<path d="M11.2499 9.7501C10.8352 9.7501 10.4999 10.0861 10.4999 10.5V13.5001C10.4999 13.9133 10.1639 14.25 9.74985 14.25H7.49988V3.00017C7.49988 2.35967 7.09188 1.78743 6.47843 1.57443L6.25637 1.50014H9.74985C10.1639 1.50014 10.4999 1.83686 10.4999 2.25022V4.5002C10.4999 4.9141 10.8352 5.25014 11.2499 5.25014C11.6646 5.25014 11.9998 4.9141 11.9998 4.5002V2.25022C11.9998 1.00974 10.9903 0.000244141 9.74985 0.000244141H1.68748C1.65892 0.000244141 1.63502 0.0130156 1.60728 0.0167235C1.57117 0.0137023 1.5367 0.000244141 1.50003 0.000244141C0.672768 0.000244141 0 0.672875 0 1.50014V15C0 15.6405 0.408 16.2127 1.02144 16.4257L5.53499 17.9303C5.68797 17.9775 5.84013 18.0001 5.99998 18.0001C6.82724 18.0001 7.49988 17.3273 7.49988 16.5V15.7501H9.74985C10.9903 15.7501 11.9998 14.7406 11.9998 13.5001V10.5C11.9998 10.0861 11.6646 9.7501 11.2499 9.7501Z" />
<path d="M17.78 6.96987L14.7799 3.96995C14.5656 3.75545 14.243 3.6909 13.9626 3.80708C13.6828 3.9234 13.4998 4.19709 13.4998 4.50017V6.75015H10.4998C10.0858 6.75015 9.74976 7.08605 9.74976 7.5001C9.74976 7.91414 10.0858 8.25004 10.4998 8.25004H13.4998V10.5C13.4998 10.8031 13.6828 11.0768 13.9626 11.1931C14.243 11.3093 14.5656 11.2447 14.7799 11.0304L17.78 8.03032C18.0732 7.73712 18.0732 7.26307 17.78 6.96987Z" />
</g>
<defs>
<clipPath id="clip0_105_1110">
<rect width="18" height="18" fill="white"/>
</clipPath>
</defs>
</svg>
