<svg viewBox="0 0 20 20" xmlns="http://www.w3.org/2000/svg">
  <path d="M18.1737 18.3275C19.1822 18.3275 19.9997 17.5077 19.9997 16.4963C19.9997 15.4851 19.1822 14.6653 18.1737 14.6653C17.1652 14.6653 16.3477 15.4851 16.3477 16.4963C16.3477 17.5077 17.1652 18.3275 18.1737 18.3275Z" />
  <path d="M4.55504 18.3275C5.56353 18.3275 6.38108 17.5077 6.38108 16.4963C6.38108 15.4851 5.56353 14.6653 4.55504 14.6653C3.54655 14.6653 2.729 15.4851 2.729 16.4963C2.729 17.5077 3.54655 18.3275 4.55504 18.3275Z" />
  <path d="M11.3609 4.66218C12.3695 4.66218 13.187 3.84238 13.187 2.83109C13.187 1.81981 12.3695 1 11.3609 1C10.3525 1 9.53491 1.81981 9.53491 2.83109C9.53491 3.84238 10.3525 4.66218 11.3609 4.66218Z" />
  <path d="M11.3609 14.6572C12.3695 14.6572 13.187 13.8374 13.187 12.826C13.187 11.8148 12.3695 10.995 11.3609 10.995C10.3525 10.995 9.53491 11.8148 9.53491 12.826C9.53491 13.8374 10.3525 14.6572 11.3609 14.6572Z" />
  <path d="M1.82604 9.32392C2.83453 9.32392 3.65207 8.50411 3.65207 7.49283C3.65207 6.48154 2.83453 5.66174 1.82604 5.66174C0.817544 5.66174 0 6.48154 0 7.49283C0 8.50411 0.817544 9.32392 1.82604 9.32392Z" />
  <path d="M19.3242 17.6787L11.123 13.2637L11.1162 13.2598L7.67969 11.3359L4.43945 17.8398L0.987305 6.44531L7.25195 9.95117L11.3604 1.70703L19.3242 17.6787ZM8.12598 10.4395L11.5977 12.3828L17.0215 15.3027L11.3604 3.94727L8.12598 10.4395ZM4.66699 15.1396L6.80566 10.8477L2.66309 8.5293L4.66699 15.1396Z" />
</svg>
