<svg width="54" height="54" viewBox="0 0 54 54" fill="none" xmlns="http://www.w3.org/2000/svg">
<path d="M35.8607 4.26959C37.9568 3.05869 39.6662 4.02769 39.673 6.43768L39.7583 36.5359C39.7652 38.9515 38.0669 41.889 35.9707 43.0999L21.3065 51.5709C19.2102 52.7819 17.5057 51.8101 17.4988 49.3945L17.4135 19.2963C17.4067 16.8863 19.1002 13.9516 21.1965 12.7406L35.8607 4.26959Z" fill="white"/>
<path d="M35.2393 8.08553C36.3391 7.45021 37.2417 7.96515 37.2453 9.22946L37.3227 36.5613C37.3263 37.8259 36.4296 39.38 35.3297 40.0153L21.9327 47.7544C20.8329 48.3897 19.9302 47.8751 19.9266 46.6105L19.8491 19.2735C19.8455 18.0043 20.7337 16.4649 21.8379 15.8271L23.4592 14.8905C23.6548 14.7775 23.8118 14.872 23.8125 15.0971L23.8139 15.5916C23.815 15.9715 24.0854 16.1208 24.4113 15.9325L32.6791 11.1565C33.0095 10.9656 33.2738 10.5074 33.2728 10.1275L33.2714 9.63297C33.2707 9.40792 33.431 9.1301 33.6265 9.01716L35.2393 8.08553Z" fill="white"/>
<path d="M37.319 36.5612C37.3265 37.8287 36.427 39.381 35.3326 40.0186L21.9323 47.7561C20.8304 48.3936 19.931 47.8758 19.9233 46.6083L19.916 43.2033C20.8304 43.5259 21.7823 43.6907 22.7643 43.6907C29.7355 43.6907 36.2471 34.7462 36.2471 24.3058C36.2471 19.1982 34.8903 14.5634 32.679 11.1583C33.0088 10.9635 33.2712 10.5057 33.2712 10.1307V9.63558C33.2712 9.41073 33.4286 9.13313 33.6235 9.02071L35.2426 8.0832C36.3371 7.4533 37.2441 7.96344 37.2441 9.23055L37.319 36.5612Z" fill="#E9EDF4"/>
<path d="M14.3313 47.5534C14.3313 48.7531 14.7587 49.5932 15.4407 49.9909L18.6042 51.8359C17.9219 51.4382 17.5021 50.5981 17.5021 49.3907L17.4123 19.2929C17.4091 18.3005 17.7065 17.2231 18.1909 16.209L15.0209 14.3647C14.5359 15.3795 14.2384 16.4595 14.2415 17.4556" fill="#F4C531"/>
<path d="M21.1978 12.7383L35.8573 4.27317C36.9144 3.65829 37.8737 3.60556 38.5633 4.00326L35.3925 2.15827C34.7029 1.76056 33.7434 1.8133 32.6941 2.42817L18.027 10.9006C16.7939 11.61 15.7116 12.9192 15.0209 14.365L18.191 16.2092C18.8816 14.7638 19.9641 13.4524 21.1978 12.7383Z" fill="#F4C531"/>
<path d="M19.6031 52.4115C19.187 52.4115 18.8 52.313 18.4561 52.1153C17.6375 51.6446 17.1846 50.6791 17.1812 49.3956L17.0958 19.2974C17.0889 16.7902 18.857 13.7254 21.0374 12.4652L35.7018 3.9944C36.8232 3.34762 37.8937 3.25146 38.7173 3.72529C39.5347 4.19603 39.9872 5.1592 39.9907 6.43724L40.076 36.5354C40.083 39.0449 38.3125 42.1136 36.1295 43.3753L21.4654 51.8462C20.8148 52.2215 20.1812 52.4115 19.6031 52.4115ZM36.0197 4.545L21.3553 13.0159C19.3506 14.1737 17.7248 16.9911 17.731 19.2959L17.8163 49.394C17.8194 50.441 18.1591 51.2118 18.7725 51.5647C19.3902 51.9199 20.2335 51.8245 21.1475 51.2956L35.8115 42.8247C37.8189 41.6646 39.4471 38.8441 39.4409 36.5369L39.3556 6.43879C39.3525 5.39651 39.0132 4.62876 38.4005 4.2759C37.7821 3.92072 36.936 4.01456 36.0197 4.545Z" fill="black"/>
<path d="M21.0397 48.3463C20.7938 48.3463 20.5635 48.2874 20.3572 48.1687C19.8768 47.8919 19.6112 47.339 19.6089 46.6115L19.5317 19.2742C19.5274 17.8853 20.4704 16.2505 21.6787 15.5518L23.3003 14.615C23.4937 14.5041 23.6993 14.4947 23.8656 14.5909C24.0331 14.6871 24.1293 14.8716 24.1301 15.0965L24.1316 15.5905C24.132 15.6619 24.1479 15.6968 24.1537 15.7038C24.1494 15.6976 24.189 15.6945 24.2522 15.6572L32.5202 10.8809C32.7525 10.7467 32.9557 10.3954 32.9553 10.1287L32.9538 9.63388C32.9526 9.29498 33.1736 8.91111 33.4679 8.74205L35.0802 7.80989C35.7165 7.44308 36.3322 7.39344 36.8146 7.67107C37.295 7.94793 37.5606 8.50086 37.563 9.22906L37.6401 36.5602C37.6444 37.929 36.6793 39.6025 35.4889 40.2904L22.0916 48.0299C21.7275 48.2401 21.3696 48.3463 21.0397 48.3463ZM23.4953 15.2377L21.9966 16.1024C20.9842 16.6871 20.1633 18.1094 20.1668 19.2726L20.244 46.61C20.2455 47.1009 20.3983 47.4592 20.674 47.6181C20.9516 47.7771 21.3421 47.7298 21.7737 47.4793L35.1709 39.7398C36.1686 39.1636 37.0085 37.7087 37.005 36.5618L36.9278 9.23062C36.9263 8.73895 36.7735 8.38066 36.4978 8.22168C36.2202 8.0627 35.8297 8.11079 35.3981 8.3605L33.7855 9.29266C33.6893 9.34772 33.5885 9.52221 33.5889 9.63233L33.5904 10.1271C33.5916 10.6226 33.2682 11.1833 32.8382 11.4315L24.5702 16.2078C24.3123 16.3567 24.0428 16.3707 23.8307 16.2497C23.6186 16.1272 23.4969 15.8876 23.4965 15.5921L23.4953 15.2377Z" fill="black"/>
<path d="M18.6038 52.1541C18.5495 52.1541 18.4945 52.1401 18.4441 52.1107L15.2808 50.2657C14.4638 49.7888 14.0136 48.8256 14.0136 47.5538L13.924 17.4564C13.9209 16.4599 14.2013 15.3432 14.7344 14.2272C14.7728 14.1473 14.8426 14.0869 14.9275 14.0613C15.0117 14.0326 15.1044 14.0442 15.1807 14.09L18.3506 15.9349C18.4937 16.0179 18.5488 16.197 18.4774 16.3467C17.9857 17.3758 17.7271 18.394 17.7298 19.292L17.8198 49.3902C17.8198 50.4356 18.1552 51.2064 18.7644 51.5616C18.916 51.65 18.9671 51.8447 18.8787 51.9959C18.8194 52.0975 18.7132 52.1541 18.6038 52.1541ZM15.1645 14.8158C14.7651 15.7387 14.5568 16.6445 14.5592 17.4549L14.6487 47.553C14.6487 48.5906 14.9869 49.3584 15.6011 49.7167L17.3929 50.7621C17.2556 50.3627 17.1846 49.902 17.1846 49.391L17.0947 19.2936C17.0916 18.3808 17.3285 17.3641 17.7818 16.3389L15.1645 14.8158Z" fill="black"/>
<path d="M18.1909 16.5274C18.1354 16.5274 18.08 16.5127 18.0311 16.484L14.8612 14.639C14.7181 14.5561 14.6631 14.3769 14.7344 14.2272C15.4878 12.6506 16.6302 11.3377 17.8683 10.625L32.535 2.15262C33.6327 1.50972 34.7324 1.41124 35.5509 1.88274L38.7231 3.72845C38.8748 3.81685 38.9259 4.01073 38.8383 4.16195C38.7503 4.31318 38.5556 4.36436 38.4048 4.27828C37.7821 3.91844 36.9341 4.01383 36.017 4.54738L21.3569 13.0136C20.2262 13.6689 19.1769 14.8825 18.4774 16.3467C18.4394 16.4266 18.3692 16.4871 18.2843 16.5127C18.2537 16.5227 18.2223 16.5274 18.1909 16.5274ZM15.4378 14.2396L18.0579 15.7643C18.8082 14.3257 19.8815 13.133 21.0389 12.4637L35.6983 3.99755C36.1547 3.73232 36.6037 3.55861 37.031 3.47873L35.2326 2.43258C34.6184 2.07739 33.7514 2.17588 32.8545 2.70168L18.1858 11.1756C17.1238 11.7867 16.1334 12.8941 15.4378 14.2396Z" fill="black"/>
<path d="M26.0091 13.32C25.8994 13.32 25.7923 13.2626 25.7338 13.161C25.6458 13.009 25.6981 12.8143 25.8497 12.7267L30.9227 9.79684C31.0759 9.71076 31.2697 9.76194 31.3566 9.91317C31.4446 10.0652 31.3923 10.2598 31.2407 10.3475L26.1677 13.2773C26.1177 13.306 26.063 13.32 26.0091 13.32Z" fill="black"/>
<path d="M15.7147 28.713C15.5496 28.713 15.4153 28.5794 15.4149 28.414L15.4087 26.3482C15.408 26.1825 15.5419 26.0477 15.7077 26.0474C15.8728 26.0474 16.0079 26.181 16.0082 26.3464L16.0144 28.4122C16.0152 28.5779 15.8805 28.7127 15.7147 28.713C15.715 28.713 15.7147 28.713 15.7147 28.713Z" fill="black"/>
<path d="M15.7026 24.7253C15.5375 24.7253 15.4032 24.5917 15.4028 24.4263L15.3922 20.8702C15.3915 20.7045 15.5254 20.5697 15.6912 20.5693C15.8563 20.5693 15.9914 20.703 15.9917 20.8684L16.0024 24.4245C16.0031 24.5902 15.8684 24.725 15.7026 24.7253Z" fill="black"/>
<path d="M31.9905 18.7455C32.0749 18.6967 32.1628 18.654 32.2507 18.6215C32.5144 18.5237 32.7765 18.4776 33.0529 18.4798C33.3063 18.4811 33.5423 18.531 33.7203 18.5739C34.0391 18.6548 34.2598 18.9058 34.3577 19.3005C34.4289 19.5791 34.5092 19.9536 34.5033 20.3759C34.4855 21.5235 34.2428 22.8314 33.7786 24.2631C33.3075 25.7251 32.6799 27.2391 31.8591 28.8911C31.0488 30.5309 30.2116 31.9717 29.3 33.2956C28.4148 34.582 27.4796 35.6504 26.521 36.4754C26.2874 36.671 26.0344 36.8475 25.7217 37.0282C25.6496 37.0698 25.5776 37.1094 25.5055 37.149C25.1013 37.3724 24.7336 37.4189 24.441 37.2883C24.2788 37.212 24.0709 37.1076 23.8874 36.9586C23.6898 36.7975 23.5432 36.611 23.4422 36.386C23.235 35.9411 23.3231 35.358 23.6875 34.7468C24.3006 33.7167 24.9226 32.6917 25.5253 31.702C25.774 31.2952 26.0496 31.0025 26.3465 30.831C26.6804 30.6381 27.0271 30.6078 27.3742 30.7412C27.4377 30.7653 27.4993 30.7924 27.5593 30.8245C27.6756 30.8767 27.7901 30.9401 27.9118 31.0074C27.9312 31.0184 27.9576 31.0154 27.9857 30.9991C28.005 30.9879 28.0402 30.9636 28.07 30.9079C28.7843 29.5907 30.286 26.564 30.8877 25.2268C30.9051 25.1884 30.9121 25.148 30.9067 25.1167C30.8996 25.0864 30.8819 25.0683 30.8555 25.0633C30.7041 25.0374 30.5755 25.0146 30.4505 24.9876C30.4047 24.9777 30.3606 24.9647 30.3149 24.9547L30.255 24.9387C29.5714 24.7265 29.3972 24.0986 29.7589 23.1672L29.8427 22.9528C30.2307 21.9597 30.6309 20.9353 31.0363 19.928C31.2531 19.39 31.5828 18.9809 31.9905 18.7455Z" fill="#FFD63C"/>
<path d="M29.789 24.6429C29.735 24.5831 29.6934 24.5175 29.6636 24.4458C29.6934 24.4517 29.7292 24.4577 29.7589 24.4637C29.789 24.4697 29.8067 24.4876 29.8129 24.5175C29.8187 24.5533 29.8129 24.5891 29.7948 24.6309C29.7948 24.6369 29.789 24.6369 29.789 24.6429Z" fill="#F4C531"/>
<path d="M34.5042 20.3788C34.4861 21.5254 34.2416 22.8332 33.7762 24.2606C33.3105 25.7237 32.6777 27.2406 31.86 28.8889C31.0483 30.5312 30.2127 31.9704 29.2996 33.2962C28.416 34.5802 27.479 35.6492 26.5181 36.4733C26.2853 36.6704 26.0346 36.8496 25.7242 37.0287C25.6467 37.0705 25.575 37.1064 25.5033 37.1482C25.1035 37.3751 24.7333 37.4169 24.441 37.2855C24.2799 37.2138 24.0709 37.1064 23.8858 36.9571C23.8083 36.8974 23.7424 36.8317 23.683 36.76C23.9039 36.7659 24.1484 36.7003 24.411 36.551C24.4827 36.5092 24.5544 36.4733 24.6261 36.4315C24.9423 36.2524 25.1929 36.0732 25.4258 35.8761C26.3867 35.052 27.3178 33.983 28.2073 32.699C29.1143 31.3732 29.956 29.934 30.7679 28.2917C31.5854 26.6434 32.2123 25.1265 32.6839 23.6634C33.1493 22.236 33.3941 20.9282 33.4119 19.7816C33.4119 19.3575 33.3344 18.9813 33.2627 18.7006C33.2449 18.623 33.221 18.5513 33.191 18.4856C33.388 18.4976 33.5792 18.5394 33.7223 18.5752C34.0385 18.6528 34.2594 18.9036 34.355 19.2978C34.4267 19.5785 34.51 19.9547 34.5042 20.3788Z" fill="#F4C531"/>
<path d="M24.7947 37.6785C24.5965 37.6785 24.4352 37.6335 24.3119 37.5785C24.1126 37.4846 23.8885 37.3691 23.6872 37.2055C23.4472 37.0092 23.2727 36.7844 23.1521 36.516C22.9013 35.9771 22.9939 35.29 23.4147 34.5842C24.0281 33.5528 24.6508 32.5268 25.2538 31.5365C25.5318 31.0828 25.8459 30.7532 26.1879 30.5555C26.6035 30.3159 27.0529 30.2779 27.4884 30.4446C27.5636 30.4733 27.6381 30.5059 27.7106 30.5454C27.7617 30.5679 27.8176 30.5958 27.8769 30.6268C28.5396 29.3651 29.861 26.702 30.4962 25.3208C30.4578 25.3139 30.4202 25.3061 30.383 25.2976C30.3799 25.2968 30.3089 25.2797 30.3054 25.279C30.3035 25.279 30.1736 25.2456 30.1712 25.2448C29.7986 25.1293 29.5303 24.9106 29.3849 24.6097C29.191 24.208 29.2174 23.6845 29.4624 23.0525L29.547 22.8369C29.9359 21.8411 30.336 20.8167 30.7416 19.8093C30.9851 19.2044 31.362 18.7414 31.8316 18.47C31.9316 18.4126 32.0359 18.3622 32.1406 18.3234C32.4384 18.2125 32.7176 18.1412 33.055 18.1614C33.3423 18.1637 33.6017 18.218 33.7956 18.2653C34.2318 18.3754 34.5397 18.7159 34.6661 19.2238C34.7413 19.5185 34.8274 19.9187 34.8208 20.3801C34.8026 21.5635 34.5532 22.9028 34.0806 24.3608C33.604 25.8396 32.9704 27.3682 32.1437 29.0324C31.3264 30.6858 30.4814 32.1399 29.5617 33.4753C28.6633 34.7812 27.7098 35.8716 26.728 36.7161C26.4744 36.9286 26.2061 37.1147 25.8808 37.3032L25.6582 37.4272C25.3197 37.6141 25.0312 37.6785 24.7947 37.6785ZM26.9502 30.9774C26.8013 30.9774 26.6539 31.02 26.5054 31.1061C26.2561 31.2496 26.0176 31.5055 25.7962 31.8676C25.1944 32.8556 24.5733 33.8801 23.9606 34.9092C23.6508 35.4288 23.569 35.9057 23.7303 36.2516C23.8109 36.4323 23.9276 36.5812 24.0882 36.713C24.2363 36.8332 24.4108 36.9224 24.5771 37.0015C24.8218 37.1101 25.1339 36.9914 25.3519 36.8712L25.5624 36.7533C25.8552 36.5835 26.0948 36.4183 26.3166 36.2314C27.2542 35.4257 28.1708 34.3764 29.0382 33.1154C29.9409 31.8048 30.7703 30.3771 31.5745 28.7501C32.3872 27.1138 33.0092 25.6147 33.4761 24.1653C33.9297 22.7671 34.1682 21.4906 34.1856 20.3708C34.1911 19.9846 34.1159 19.6379 34.0499 19.3789C33.9805 19.0997 33.8436 18.933 33.6424 18.8818C33.4819 18.8423 33.2647 18.7887 33.0394 18.7973C32.8049 18.7973 32.5831 18.8368 32.3613 18.919C32.2895 18.9454 32.2182 18.9803 32.1499 19.0198C32.1499 19.0198 32.1496 19.0198 32.1496 19.0206C31.8041 19.2199 31.521 19.5751 31.331 20.0466C30.9262 21.0517 30.5268 22.0746 30.1398 23.0649L30.0545 23.2828C29.8785 23.7372 29.8444 24.1002 29.9568 24.3336C30.0258 24.4755 30.1542 24.5748 30.3492 24.6353L30.4597 24.6632C30.6389 24.7035 30.7633 24.7252 30.9099 24.7501C31.0344 24.7718 31.1856 24.9191 31.2155 25.0416C31.236 25.1556 31.2209 25.2603 31.1775 25.3573C30.5749 26.6958 29.0685 29.7335 28.3492 31.0588C28.3015 31.1488 28.2336 31.2209 28.1487 31.2713C28.0518 31.331 27.8564 31.3419 27.7567 31.2845C27.6408 31.2209 27.5365 31.1619 27.4298 31.1146C27.3604 31.0782 27.3116 31.0565 27.2615 31.0379C27.1561 30.9975 27.0529 30.9774 26.9502 30.9774Z" fill="black"/>
<path d="M25.1848 28.5044C25.0099 28.5044 24.8676 28.3625 24.8672 28.1872C24.8629 26.7572 25.8319 25.0743 27.0735 24.357C27.2263 24.2701 27.4202 24.3221 27.5074 24.4733C27.5954 24.6253 27.5435 24.8192 27.3915 24.9076C26.3639 25.5009 25.4989 27.0022 25.5023 28.1857C25.5031 28.3609 25.3604 28.5036 25.1848 28.5044C25.1852 28.5044 25.1848 28.5044 25.1848 28.5044Z" fill="black"/>
<path d="M22.6682 28.7989C22.4934 28.7989 22.3511 28.657 22.3507 28.4817C22.3441 26.1234 24.0033 23.2432 26.0494 22.0605C26.2022 21.9744 26.3961 22.0256 26.4833 22.1768C26.5714 22.3288 26.5194 22.5227 26.3674 22.6111C24.4969 23.6914 22.98 26.3242 22.9858 28.4801C22.9862 28.6554 22.8439 28.7981 22.6682 28.7989C22.6686 28.7989 22.6682 28.7989 22.6682 28.7989Z" fill="black"/>
</svg>
