<svg width="140" height="140" viewBox="0 0 140 140" fill="none" xmlns="http://www.w3.org/2000/svg">
<path d="M95.8795 7.2385C101.541 3.96955 106.159 6.58546 106.177 13.0915L106.407 94.3452C106.426 100.867 101.839 108.797 96.1767 112.066L53.5415 136.681C47.8791 139.95 43.2749 137.327 43.2564 130.805L43.0261 49.5517C43.0076 43.0456 47.5819 35.123 53.2443 31.8538L95.8795 7.2385Z" fill="white"/>
<path d="M99.8189 94.4125C99.8399 97.8294 97.4079 102.022 94.4523 103.741L55.2288 126.375C52.7758 127.779 50.7005 127.108 50.0301 124.907C49.8832 124.446 49.7993 123.901 49.7993 123.293L49.7783 114.09H49.7993C52.2727 114.971 54.8301 115.411 57.4719 115.411C76.3168 115.411 96.9258 89.5072 96.9258 61.3335C96.9258 48.9867 90.8259 32.5939 85.2705 22.6995L89.7987 20.0792L94.2011 17.5428C95.8567 16.5995 97.324 16.5995 98.3306 17.3751C98.498 17.5008 98.6449 17.6476 98.7708 17.8153C98.9176 17.9829 99.022 18.1507 99.127 18.3603C99.3368 18.7586 99.4837 19.2198 99.5461 19.7648C99.5881 20.0374 99.6091 20.3307 99.6091 20.6243L99.8189 94.4125Z" fill="#E9EDF4"/>
<path d="M34.7007 125.835C34.7007 129.074 35.8549 131.342 37.6972 132.416L46.2421 137.396C44.3993 136.323 43.2653 134.055 43.2653 130.795L43.0226 49.5426C43.0142 46.8633 43.8174 43.9548 45.1259 41.2172L36.5633 36.2384C35.2533 38.9779 34.4495 41.8934 34.458 44.5826" fill="#F4C531"/>
<path d="M53.2476 31.8467L95.8704 7.24741C98.7256 5.58748 101.317 5.44512 103.179 6.51878L94.6148 1.538C92.7522 0.464334 90.1605 0.606698 87.326 2.26663L44.683 26.8857C41.3522 28.8007 38.4288 32.3351 36.5632 36.2383L45.1259 41.2171C46.9914 37.3149 49.9154 33.7746 53.2476 31.8467Z" fill="#F4C531"/>
<path d="M48.9411 138.95C47.8166 138.95 46.7695 138.684 45.8398 138.149C43.6305 136.878 42.4076 134.271 42.3971 130.807L42.1668 49.5536C42.148 42.7867 46.9245 34.513 52.8151 31.1112L95.4501 6.49667C98.4802 4.74813 101.37 4.48952 103.596 5.77003C105.805 7.04008 107.026 9.63985 107.036 13.0898L107.267 94.3434C107.284 101.122 102.501 109.405 96.606 112.808L53.971 137.423C52.2141 138.438 50.5011 138.95 48.9411 138.95ZM100.482 6.68409C99.2215 6.68409 97.7996 7.1207 96.3086 7.98135L53.6736 32.5959C48.2563 35.7245 43.8651 43.329 43.8839 49.5494L44.1143 130.803C44.1206 133.628 45.0378 135.709 46.6942 136.662C48.3652 137.623 50.6435 137.366 53.1124 135.939L95.7474 111.323C101.169 108.192 105.566 100.578 105.55 94.3475L105.319 13.094C105.313 10.2817 104.396 8.20856 102.742 7.25681C102.076 6.87465 101.316 6.68409 100.482 6.68409Z" fill="black"/>
<path d="M52.7984 127.966C52.3084 127.966 51.8435 127.882 51.4121 127.71C50.3672 127.295 49.584 126.389 49.2092 125.157C49.0438 124.55 48.9621 123.93 48.9621 123.293L48.7527 49.4856C48.7318 45.7634 51.2739 41.3481 54.5428 39.4362L93.7749 16.7994C95.6805 15.7126 97.5295 15.676 98.8551 16.6958C99.077 16.8633 99.2844 17.0685 99.4582 17.2999C99.6006 17.4612 99.7492 17.6852 99.8937 17.9773C100.153 18.4695 100.327 19.0432 100.398 19.6662C100.442 19.9489 100.468 20.2871 100.468 20.6242L100.677 94.4104C100.698 98.0938 98.0991 102.612 94.8847 104.483L55.6589 127.118C54.6768 127.68 53.6989 127.966 52.7984 127.966ZM96.604 17.6695C96.0176 17.6695 95.3475 17.8768 94.6272 18.2883L55.4055 40.9198C52.6665 42.5207 50.4489 46.3612 50.4698 49.4782L50.6792 123.291C50.6792 123.778 50.7379 124.245 50.8572 124.681C51.0059 125.168 51.3389 125.836 52.0445 126.115C52.7649 126.402 53.747 126.233 54.8045 125.631L94.0241 102.998C96.717 101.432 98.9786 97.5012 98.9598 94.4177C98.9598 94.4167 98.9598 94.4156 98.9598 94.4146L98.7504 20.6263C98.7504 20.375 98.7336 20.1269 98.698 19.8945C98.6457 19.4463 98.5389 19.0851 98.3693 18.7605C98.2792 18.5825 98.2143 18.4799 98.1263 18.3794C98.007 18.2265 97.919 18.1386 97.8164 18.0611C97.4772 17.7994 97.0668 17.6695 96.604 17.6695Z" fill="black"/>
<path d="M46.2419 138.253C46.0953 138.253 45.9466 138.216 45.8105 138.137C45.8084 138.135 45.8042 138.134 45.8021 138.132L37.2667 133.156C35.0596 131.871 33.843 129.271 33.843 125.835L33.6 44.5841C33.5917 41.8901 34.3497 38.8768 35.7904 35.8676C35.893 35.652 36.0815 35.4886 36.3098 35.4185C36.5464 35.3483 36.7893 35.3766 36.9945 35.497L45.5571 40.4756C45.9424 40.6997 46.0932 41.1834 45.9005 41.5865C44.5708 44.3653 43.8735 47.1159 43.8819 49.5397L44.1248 130.793C44.1248 133.616 45.0294 135.698 46.6732 136.655C47.0837 136.893 47.2219 137.419 46.9832 137.827C46.824 138.102 46.5371 138.253 46.2419 138.253ZM36.9505 37.456C35.8721 39.9437 35.3088 42.3906 35.3172 44.5789L35.5601 125.832C35.5601 128.634 36.4731 130.708 38.1295 131.674L42.9709 134.497C42.6003 133.418 42.4076 132.174 42.4076 130.795L42.1647 49.545C42.1585 47.0782 42.7971 44.3339 44.0201 41.5666L36.9505 37.456Z" fill="black"/>
<path d="M45.1257 42.0746C44.975 42.0746 44.8263 42.0358 44.6944 41.9583L36.1318 36.9797C35.7465 36.7556 35.5957 36.2719 35.7883 35.8688C37.8259 31.6095 40.9104 28.0643 44.2567 26.1419L86.8959 1.5242C89.859 -0.208629 92.8304 -0.480856 95.0438 0.794424L103.611 5.77723C104.019 6.01491 104.159 6.53842 103.921 6.94781C103.684 7.35929 103.158 7.49436 102.75 7.26192C101.071 6.29132 98.7796 6.55203 96.3024 7.98855L53.6779 32.5906C50.6247 34.3559 47.7894 37.6352 45.9005 41.5866C45.7958 41.8034 45.6074 41.9657 45.3791 42.0369C45.2954 42.062 45.2116 42.0746 45.1257 42.0746ZM37.6897 35.9013L44.7677 40.0161C46.7947 36.1295 49.6929 32.912 52.8193 31.1048L95.4417 6.50491C96.6751 5.7877 97.8876 5.31968 99.0414 5.10399L94.1832 2.27911C92.5268 1.32527 90.1814 1.58912 87.7586 3.00679L45.1132 27.6277C42.2443 29.2767 39.5681 32.266 37.6897 35.9013Z" fill="black"/>
<path d="M38.4371 74.9727C37.9912 74.9727 37.6284 74.6119 37.6274 74.1655L37.6106 68.5886C37.6086 68.1412 37.9705 67.7774 38.4183 67.7764C38.8642 67.7764 39.229 68.1373 39.23 68.5836L39.2468 74.1606C39.2488 74.6079 38.885 74.9717 38.4371 74.9727C38.4381 74.9727 38.4371 74.9727 38.4371 74.9727Z" fill="black"/>
<path d="M38.4044 64.2073C37.9585 64.2073 37.5957 63.8465 37.5947 63.4001L37.566 53.7999C37.5641 53.3525 37.9259 52.9887 38.3738 52.9877C38.8196 52.9877 39.1845 53.3486 39.1854 53.795L39.2141 63.3952C39.2161 63.8425 38.8523 64.2064 38.4044 64.2073Z" fill="black"/>
<path d="M82.7667 42.8948C85.2218 41.4773 87.3088 42.3683 87.6423 44.983L89.5421 60.2806C89.9417 63.4374 87.6573 67.7506 84.6985 69.4589L64.7628 80.9688C61.8039 82.6771 59.5027 81.0114 59.883 77.4043L61.6901 59.9665C62.0077 56.9759 64.0828 53.6819 66.5547 52.2547L82.7667 42.8948Z" fill="#FFD63C"/>
<path d="M84.6981 69.4603L64.7564 80.9752C61.7964 82.6693 59.5024 81.0182 59.8887 77.3944L60.6604 69.8464C62.633 70.5754 64.7564 70.9829 67.0075 70.9829C76.593 70.9829 84.3766 63.6705 84.3766 54.643C84.3766 50.6975 82.8752 47.0735 80.4094 44.2431L82.7684 42.8922C85.2122 41.477 87.3146 42.3776 87.636 44.9937L89.5448 60.2828C89.9521 63.4349 87.657 67.745 84.6981 69.4603Z" fill="#F4C531"/>
<path d="M62.5546 82.497C61.8782 82.497 61.25 82.3222 60.7077 81.9704C59.4177 81.1338 58.8063 79.4365 59.0303 77.3142L60.8375 59.8781C61.1851 56.5977 63.409 53.0797 66.125 51.5123L82.3372 42.1519C83.8449 41.2849 85.3233 41.1279 86.5001 41.7142C87.5953 42.2566 88.301 43.379 88.4916 44.8752L90.393 60.1744C90.8307 63.6432 88.3701 68.3297 85.1285 70.2018L65.191 81.7107C64.2864 82.2342 63.3839 82.497 62.5546 82.497ZM83.1957 43.6366L66.9835 52.997C64.7429 54.2911 62.8331 57.3265 62.542 60.0571L60.7349 77.4922C60.582 78.9507 60.9129 80.0585 61.6416 80.5317C62.2908 80.9485 63.2666 80.8417 64.3325 80.226L84.27 68.716C86.9399 67.1748 89.0465 63.2055 88.6926 60.3869L86.7912 45.0888C86.7096 44.4491 86.4604 43.6083 85.7379 43.2502C85.0971 42.9298 84.1862 43.0659 83.1957 43.6366Z" fill="black"/>
<path d="M68.0266 56.5696C67.5533 56.5696 67.1701 56.1874 67.168 55.7152L67.1429 48.9954C67.1303 44.3989 70.2525 38.99 74.2522 36.6813C76.3253 35.4824 78.3188 35.3139 79.8663 36.2038C81.4034 37.0886 82.2536 38.8811 82.2619 41.2526L82.2871 47.9714C82.2871 48.4446 81.906 48.831 81.4327 48.832C81.4306 48.832 81.4285 48.832 81.4285 48.832C80.9553 48.832 80.572 48.4499 80.5699 47.9777L80.5448 41.2578C80.5406 39.524 79.9962 38.2571 79.012 37.6906C78.0152 37.12 76.631 37.2875 75.1107 38.166C71.6514 40.1626 68.8474 45.0188 68.86 48.9901L68.8851 55.7089C68.8851 56.1822 68.504 56.5685 68.0307 56.5696C68.0286 56.5696 68.0266 56.5696 68.0266 56.5696Z" fill="black"/>
<path d="M74.6844 83.384C80.0749 80.2718 84.4504 82.7696 84.4679 88.9592C84.4855 95.1445 80.1384 102.687 74.7479 105.799C69.3614 108.909 64.9782 106.407 64.9606 100.222C64.9431 94.0322 69.2978 86.4939 74.6844 83.384Z" fill="white"/>
<path d="M79.8101 82.0926C82.6801 85.8086 83.2843 91.3131 80.9279 96.2436C77.9551 102.467 71.3086 105.591 65.5565 103.712C66.928 107.228 70.5353 108.231 74.7467 105.802C80.1364 102.685 84.4867 95.1439 84.4688 88.9567C84.4567 84.9265 82.5956 82.4613 79.8101 82.0926Z" fill="#E9EDF4"/>
<path d="M70.3738 107.999C69.2933 107.999 68.2902 107.744 67.3961 107.23C65.2811 106.013 64.1126 103.524 64.1021 100.224C64.0853 93.7714 68.6399 85.8831 74.2541 82.6415C77.1502 80.9726 79.908 80.7255 82.0356 81.9494C84.1485 83.165 85.317 85.6538 85.3275 88.9572C85.3442 95.4111 80.7917 103.3 75.1776 106.542C73.5002 107.511 71.8648 107.999 70.3738 107.999ZM75.1126 84.1262C69.9717 87.0945 65.8025 94.3138 65.8192 100.22C65.8255 102.883 66.6904 104.845 68.2525 105.743C69.8293 106.651 71.982 106.408 74.319 105.057C79.4599 102.089 83.6271 94.8687 83.6103 88.9614C83.604 86.2967 82.7392 84.3335 81.1791 83.4362C79.6044 82.5305 77.4496 82.7766 75.1126 84.1262Z" fill="black"/>
<path d="M74.7272 99.7365C74.2539 99.7365 73.8707 99.3543 73.8686 98.881L73.8435 90.3038C73.8435 89.8305 74.2267 89.4452 74.7 89.4442C75.1732 89.4442 75.5585 89.8263 75.5606 90.2996L75.5858 98.8769C75.5858 99.3501 75.2005 99.7354 74.7272 99.7365Z" fill="black"/>
<path d="M70.9747 97.6067C70.6794 97.6067 70.3904 97.4527 70.2313 97.1784C69.9947 96.768 70.135 96.2434 70.5454 96.0068L78.0233 91.6889C78.4337 91.4512 78.9572 91.5925 79.1959 92.0019C79.4326 92.4124 79.2923 92.9369 78.8818 93.1735L71.404 97.4915C71.2678 97.57 71.1213 97.6067 70.9747 97.6067Z" fill="black"/>
</svg>
