<svg width="24" height="24" viewBox="0 0 24 24" fill="none" xmlns="http://www.w3.org/2000/svg">
  <path d="M20.6922 21C21.7295 21 22.5704 20.1483 22.5704 19.0977C22.5704 18.047 21.7295 17.1953 20.6922 17.1953C19.655 17.1953 18.8141 18.047 18.8141 19.0977C18.8141 20.1483 19.655 21 20.6922 21Z" fill="#DFA543"/>
  <path d="M6.68429 21C7.72155 21 8.56242 20.1483 8.56242 19.0977C8.56242 18.047 7.72155 17.1953 6.68429 17.1953C5.64702 17.1953 4.80615 18.047 4.80615 19.0977C4.80615 20.1483 5.64702 21 6.68429 21Z" fill="#DFA543"/>
  <path d="M13.6859 6.80472C14.7231 6.80472 15.564 5.95301 15.564 4.90236C15.564 3.85172 14.7231 3 13.6859 3C12.6486 3 11.8077 3.85172 11.8077 4.90236C11.8077 5.95301 12.6486 6.80472 13.6859 6.80472Z" fill="#DFA543"/>
  <path d="M13.6859 17.1895C14.7231 17.1895 15.564 16.3378 15.564 15.2871C15.564 14.2365 14.7231 13.3848 13.6859 13.3848C12.6486 13.3848 11.8077 14.2365 11.8077 15.2871C11.8077 16.3378 12.6486 17.1895 13.6859 17.1895Z" fill="#DFA543"/>
  <path d="M3.87814 11.6465C4.9154 11.6465 5.75627 10.7948 5.75627 9.74416C5.75627 8.69351 4.9154 7.8418 3.87814 7.8418C2.84087 7.8418 2 8.69351 2 9.74416C2 10.7948 2.84087 11.6465 3.87814 11.6465Z" fill="#DFA543"/>
  <path d="M22.0677 20.5264L13.3988 15.8115L13.39 15.8066L9.93689 13.8545L6.54822 20.7285L2.87537 8.48438L9.42224 12.1855L13.6859 3.54492L22.0677 20.5264ZM10.4691 12.7773L13.972 14.7578L19.3168 17.6631L13.6859 6.25586L10.4691 12.7773ZM6.8197 17.4609L8.89099 13.2627L4.88025 10.9961L6.8197 17.4609Z" fill="#DFA543"/>
</svg>
