<svg  viewBox="0 0 24 24" xmlns="http://www.w3.org/2000/svg">
<path d="M14.7825 19.3391C14.7825 20.329 14.2547 21.0866 13.3977 21.5818C12.5409 22.0767 11.4851 22.0767 10.6299 21.5818C9.77258 21.0866 9.24512 20.329 9.24512 19.3391" />
<path d="M12.0132 2.05542C12.7684 2.05542 13.3767 2.52102 13.3767 3.23702C13.3767 3.68769 13.3924 4.02395 13.6756 4.11009C16.0839 4.83729 17.6281 6.54182 17.6281 8.75542V12.476C17.6281 14.1805 18.3255 14.5256 19.2031 15.1776C20.474 16.1202 20.1839 18.0832 18.7255 18.0818H5.30145C3.84305 18.0832 3.55292 16.1202 4.82385 15.1776C5.70039 14.5256 6.39879 14.1805 6.39879 12.476V8.75542C6.39879 6.54182 7.94305 4.83729 10.3513 4.11009C10.6337 4.02395 10.6503 3.68769 10.6503 3.23702C10.6505 2.52102 11.2591 2.05542 12.0132 2.05542Z" />
</svg>
