<svg width="18" height="18" viewBox="0 0 18 18" fill="none" xmlns="http://www.w3.org/2000/svg">
<g clip-path="url(#clip0_105_1115)">
<path d="M11.116 3.02319L1.21212 12.9278C1.16229 12.9777 1.12631 13.0408 1.10918 13.1087L0.0114342 17.5148C-0.0214026 17.6474 0.0175732 17.7885 0.11437 17.8853C0.187611 17.9585 0.287406 17.999 0.389485 17.999C0.420752 17.999 0.452732 17.9952 0.483855 17.9873L4.88998 16.8894C4.95865 16.8723 5.02104 16.8365 5.07087 16.7867L14.9756 6.8828L11.116 3.02319Z" fill="#DFA543"/>
<path d="M17.4291 1.67288L16.3267 0.57042C15.5899 -0.166408 14.3057 -0.165695 13.5697 0.57042L12.2192 1.92087L16.0787 5.78033L17.4291 4.42988C17.7972 4.06197 17.9999 3.57227 17.9999 3.05145C17.9999 2.53063 17.7972 2.04094 17.4291 1.67288Z" fill="#DFA543"/>
</g>
<defs>
<clipPath id="clip0_105_1115">
<rect width="18" height="18" fill="white"/>
</clipPath>
</defs>
</svg>
