<svg width="16" height="16" viewBox="0 0 16 16" fill="none" xmlns="http://www.w3.org/2000/svg">
<path d="M4.40324 16C3.70949 15.9719 3.16574 15.4 3.16887 14.7063C3.15949 14.0656 3.17824 13.3969 3.16574 12.75C2.95324 12.7594 2.69699 12.7594 2.47512 12.7531C1.30012 12.7656 0.762616 11.2844 1.60637 10.5063C1.85949 10.2719 2.15324 10.1562 2.47512 10.1625C2.67512 10.1656 2.96574 10.1625 3.16887 10.1625C3.16574 9.95625 3.16887 9.73125 3.16887 9.51562C2.92512 9.50937 2.65949 9.50938 2.42824 9.52188C1.76262 9.52188 1.19699 8.92813 1.19074 8.225C1.17512 7.5625 1.75012 6.9125 2.43449 6.92812C2.67199 6.9375 2.93137 6.93437 3.16574 6.92812C3.17512 5.10938 3.16262 3.14375 3.16887 1.33438C3.15324 0.5125 3.74387 -0.028125 4.50012 0.00625H4.74074C5.71887 0.00625 6.69699 0 7.67512 0C8.70637 0 9.50324 0.00625 10.2564 0.01875C11.4314 0.040625 12.4689 0.484375 13.3376 1.34375C16.2282 4.01875 14.6032 9 10.7126 9.4625C10.1001 9.5375 9.46887 9.51562 8.86887 9.51562C7.98137 9.53125 6.67824 9.5125 5.77512 9.52188C5.77512 9.73438 5.77199 9.95 5.77824 10.1625L5.78762 10.1656C5.82512 10.1719 5.87199 10.1625 5.90949 10.1625H10.1782C10.8939 10.1469 11.4876 10.7156 11.5001 11.4312V11.5063C11.4907 12.1188 10.997 12.7563 10.1907 12.7563C9.59699 12.75 9.00324 12.7469 8.40949 12.75C7.53137 12.75 6.65637 12.7531 5.77824 12.7531V14.0531C5.77824 14.3 5.77824 14.5531 5.76887 14.8031C5.74074 15.5406 5.05949 16 4.44387 16H4.40324ZM5.79699 6.93125C7.00012 6.92812 8.77199 6.94062 9.95637 6.92812C11.3189 6.98438 12.5345 5.90625 12.3564 4.54688C12.2314 3.47813 11.4032 2.67188 10.3907 2.63125C9.50949 2.59375 8.60949 2.59063 7.76574 2.59063C7.22199 2.59687 6.30637 2.59063 5.77199 2.5875C5.78137 3.0375 5.77199 6.40625 5.77512 6.93125H5.79699Z" fill="#DFA543"/>
</svg>
