<svg width="140" height="140" viewBox="0 0 140 140" fill="none" xmlns="http://www.w3.org/2000/svg">
<path d="M110.129 19.8284L119.8 25.4481C116.677 23.6337 112.383 23.8377 107.628 26.4666L97.9574 20.8469C102.713 18.218 107.007 18.014 110.129 19.8284Z" fill="#FFD63C"/>
<path d="M107.627 27.2914C107.484 27.2914 107.341 27.2532 107.213 27.1788L97.5438 21.5593C97.2885 21.4105 97.1316 21.135 97.1337 20.8395C97.1377 20.5419 97.3005 20.2705 97.5599 20.1277C102.423 17.4376 107.032 17.0757 110.544 19.1164L120.203 24.7299C120.207 24.7319 120.209 24.734 120.213 24.736C120.605 24.9652 120.74 25.4678 120.511 25.8619C120.281 26.256 119.779 26.3907 119.385 26.1595L119.375 26.1534C116.391 24.4243 112.36 24.7923 108.025 27.1869C107.9 27.2572 107.764 27.2914 107.627 27.2914ZM99.679 20.8958L107.641 25.5241C110.106 24.2253 112.496 23.5276 114.706 23.4392L109.716 20.5399C107.036 18.9837 103.511 19.1164 99.679 20.8958Z" fill="black"/>
<path d="M94.8725 5.06987L104.543 10.6896C101.971 9.19518 98.4094 9.40563 94.4826 11.6728C91.0369 13.6622 87.8871 16.8922 85.4411 20.6739L75.7709 15.0542C78.217 11.2725 81.3668 8.04248 84.8125 6.05313C88.7393 3.78596 92.301 3.57551 94.8725 5.06987Z" fill="#F4C531"/>
<path d="M85.4402 21.4989C85.2994 21.4989 85.1567 21.4627 85.026 21.3863L75.3572 15.7668C75.1621 15.6542 75.0234 15.4652 74.9711 15.246C74.9189 15.0289 74.9571 14.7977 75.0797 14.6087C77.6653 10.6077 80.9767 7.31636 84.4007 5.33997C88.4701 2.98961 92.3364 2.64179 95.2859 4.35881L104.957 9.97835C105.349 10.2076 105.484 10.7102 105.254 11.1043C105.027 11.4963 104.522 11.631 104.128 11.4018C101.71 9.99444 98.4264 10.3443 94.8939 12.387C91.693 14.2347 88.5807 17.337 86.1318 21.1229C85.975 21.3642 85.7096 21.4989 85.4402 21.4989ZM76.9415 14.7836L85.1828 19.5728C87.7021 15.8693 90.8365 12.8273 94.0695 10.9595C96.0942 9.79137 98.0686 9.11783 99.9042 8.94693L94.4576 5.7823C92.0389 4.3749 88.7596 4.72474 85.225 6.76748C82.2273 8.49657 79.3079 11.3254 76.9415 14.7836Z" fill="black"/>
<path d="M29.8749 105.953L20.2047 100.333C17.0367 98.4923 15.073 94.5761 15.0572 89.0087C15.0255 77.802 22.8982 64.1656 32.651 58.5348C32.8993 58.3914 33.1623 58.2396 33.425 58.1215L43.0951 63.7411C42.8325 63.8593 42.5695 64.0111 42.3211 64.1545C32.5683 69.7853 24.6956 83.4217 24.7274 94.6284C24.7431 100.196 26.7068 104.112 29.8749 105.953Z" fill="#F4C531"/>
<path d="M29.8741 106.777C29.7333 106.777 29.5906 106.741 29.4599 106.665L19.791 101.045C16.2223 98.9702 14.2499 94.6977 14.2338 89.0098C14.2017 77.5617 22.2781 63.5721 32.2385 57.8219C32.5099 57.665 32.7974 57.5002 33.0869 57.3715C33.3262 57.2589 33.6057 57.275 33.8389 57.4097L43.5097 63.0292C43.7771 63.1841 43.934 63.4756 43.9179 63.7832C43.9018 64.0908 43.7148 64.3643 43.4333 64.4909C43.1961 64.5995 42.9609 64.7362 42.7377 64.8649C33.2277 70.3558 25.5192 83.7039 25.5513 94.6274C25.5654 99.702 27.2462 103.47 30.2842 105.239L30.2882 105.241C30.6803 105.47 30.815 105.973 30.5858 106.367C30.433 106.63 30.1575 106.777 29.8741 106.777ZM33.3966 59.0584C33.284 59.1207 33.1734 59.185 33.0648 59.2474C23.5568 64.7342 15.8503 78.0844 15.8825 89.0058C15.8946 94.0825 17.5774 97.8523 20.6194 99.6216L25.6036 102.519C24.4978 100.39 23.9127 97.7196 23.9027 94.6314C23.8705 83.3682 31.6916 69.642 41.4308 63.7249L33.3966 59.0584Z" fill="black"/>
<path d="M79.9895 13.6731C75.8503 11.2719 70.1335 11.6153 63.8226 15.2508C51.2907 22.5002 41.1605 40.0394 41.2063 54.446C41.2292 58.1274 41.8925 61.2376 43.1045 63.7301L33.4316 58.1274C32.2196 55.6352 31.5563 52.5249 31.5334 48.8204C31.5105 34.437 41.6178 16.8746 54.1491 9.64843C60.4606 5.98969 66.1774 5.66951 70.3166 8.04782L79.9895 13.6731Z" fill="#FFD63C"/>
<path d="M43.1036 64.5553C42.9609 64.5553 42.8201 64.5171 42.6914 64.4427L33.0186 58.8392C32.8758 58.7568 32.7612 58.6341 32.6909 58.4874C31.4001 55.8294 30.7346 52.5803 30.7084 48.8266C30.6863 34.1635 41.0166 16.2694 53.7375 8.93486C60.0849 5.25551 66.1186 4.68652 70.7268 7.33444L80.4037 12.962C80.7958 13.1912 80.9305 13.6939 80.7013 14.0879C80.4721 14.482 79.9674 14.6147 79.5753 14.3855C75.5281 12.0352 70.0794 12.5941 64.2327 15.9638C51.9481 23.0712 41.9857 40.3339 42.03 54.4441C42.0521 57.9324 42.6633 60.9382 43.8435 63.371C44.0023 63.6967 43.9299 64.0868 43.6646 64.3341C43.5077 64.4789 43.3067 64.5553 43.1036 64.5553ZM34.0641 57.5424L41.459 61.8269C40.7613 59.6575 40.3994 57.1865 40.3813 54.4521C40.3371 39.8132 50.6674 21.9091 63.4104 14.5363C67.2385 12.3327 70.9138 11.249 74.2875 11.3093L69.9025 8.75994C65.8291 6.41762 60.3824 6.9846 54.5618 10.3604C42.2954 17.4335 32.335 34.6862 32.3571 48.8185C32.3792 52.2144 32.9522 55.1498 34.0641 57.5424Z" fill="black"/>
<path d="M63.8261 15.2568C73.8712 9.4573 82.4041 12.0424 85.4411 20.674C87.8871 16.8923 91.0369 13.6622 94.4826 11.6729C102.279 7.17168 108.636 10.7776 108.661 19.7363C108.667 21.9005 108.294 24.1998 107.628 26.4665C117.206 21.1718 124.911 25.7135 124.942 36.7694C124.974 47.9761 117.101 61.6125 107.348 67.2432C97.6103 72.8656 52.1747 99.0978 42.4362 104.72C32.6833 110.351 24.7591 105.835 24.7274 94.6284C24.6956 83.4217 32.5683 69.7853 42.3211 64.1546C42.5695 64.0112 42.8325 63.8594 43.0951 63.7412C41.8888 61.245 41.2223 58.1344 41.2118 54.4436C41.171 40.0494 51.2994 22.4892 63.8261 15.2568Z" fill="white"/>
<path d="M124.947 36.7695C124.97 47.9744 117.103 61.6033 107.339 67.2518C97.6202 72.8542 52.1828 99.1063 42.4413 104.732C32.6768 110.357 24.7648 105.829 24.719 94.6241C24.719 90.6909 25.6792 86.4376 27.3714 82.3442C35.169 84.2424 43.722 84.7912 52.5256 83.6933C84.3117 79.6915 107.453 55.7494 104.252 30.2292C103.337 23.049 100.456 16.4858 96.0425 10.8834C103.109 7.68189 108.642 11.3635 108.665 19.7331C108.665 21.9057 108.3 24.1924 107.636 26.4563C117.195 21.1738 124.901 25.7244 124.947 36.7695Z" fill="#E9EDF4"/>
<path d="M34.5104 107.976C32.6868 107.976 30.9939 107.547 29.4961 106.685C25.9052 104.62 23.9208 100.339 23.9027 94.6314C23.8705 83.1832 31.949 69.1916 41.9093 63.4414C41.9475 63.4193 41.9857 63.3971 42.0259 63.375C40.9483 60.8437 40.3974 57.844 40.3873 54.4461C40.3471 39.7991 50.6774 21.899 63.4144 14.5423C68.8952 11.3817 74.2775 10.5171 78.5741 12.1075C81.6884 13.2596 84.1052 15.6059 85.6272 18.9354C88.066 15.5194 91.0235 12.7187 94.0695 10.9595C98.1269 8.61917 101.985 8.26531 104.929 9.96223C107.854 11.6451 109.473 15.1153 109.487 19.7336C109.491 21.3843 109.288 23.1214 108.881 24.9169C113.156 22.9947 117.141 22.9284 120.253 24.76C123.792 26.839 125.75 31.1034 125.766 36.7672C125.798 48.2133 117.722 62.2049 107.762 67.9571L42.8483 105.434C39.9229 107.123 37.086 107.976 34.5104 107.976ZM64.2387 15.9698C51.9561 23.0611 41.9958 40.3198 42.036 54.4421C42.044 57.9204 42.6512 60.9302 43.8375 63.3831C43.934 63.5821 43.946 63.8133 43.8696 64.0224C43.7932 64.2315 43.6364 64.4004 43.4333 64.4909C43.1961 64.5995 42.9609 64.7362 42.7377 64.8649C33.2277 70.3557 25.5192 83.7039 25.5513 94.6273C25.5654 99.7221 27.2583 103.498 30.3164 105.257C33.4026 107.031 37.5585 106.586 42.0239 104.007L106.937 66.5296C116.443 61.0408 124.15 47.6906 124.118 36.7712C124.105 31.7146 122.435 27.9528 119.419 26.1795C116.429 24.4223 112.382 24.7801 108.025 27.1868C107.733 27.3496 107.371 27.3155 107.112 27.1104C106.851 26.9013 106.742 26.5555 106.837 26.2338C107.508 23.9558 107.844 21.7703 107.838 19.7376C107.828 15.7326 106.503 12.767 104.108 11.3897C101.688 9.99641 98.4164 10.3523 94.8939 12.387C91.693 14.2347 88.5807 17.337 86.1318 21.1229C85.9609 21.3863 85.6573 21.5351 85.3437 21.4928C85.032 21.4546 84.7666 21.2435 84.6641 20.948C83.3854 17.3149 81.0813 14.7916 78.0031 13.6516C74.1709 12.2281 69.2832 13.0545 64.2387 15.9698Z" fill="black"/>
<path d="M85.8823 106.73L85.7976 130.288C85.7936 131.716 84.8538 133.141 82.9802 134.23C79.2012 136.426 73.0685 136.432 69.2645 134.236C67.3569 133.135 66.4035 131.687 66.4076 130.241L66.4922 106.684C66.4881 108.13 67.4416 109.577 69.3492 110.679C73.1531 112.875 79.2859 112.869 83.0649 110.673C84.9385 109.584 85.8783 108.159 85.8823 106.73Z" fill="#FFD63C"/>
<path d="M85.8776 106.735L85.7979 130.294C85.7979 131.712 84.8579 133.145 82.9784 134.229C79.2034 136.427 73.0704 136.427 69.2631 134.229C67.3995 133.161 66.444 131.744 66.4121 130.342C68.1167 131.728 70.0759 132.524 72.1624 132.524C78.55 132.524 83.727 125.101 83.727 115.958C83.727 114.094 83.5201 112.31 83.106 110.637C84.9536 109.554 85.8776 108.137 85.8776 106.735Z" fill="#F4C531"/>
<path d="M76.1232 136.717C73.5094 136.717 70.8957 136.128 68.853 134.949C66.7399 133.729 65.5798 132.056 65.5838 130.239L65.6682 106.683C65.6702 106.228 66.0382 105.86 66.4926 105.86C66.9469 105.862 67.3169 106.232 67.3169 106.687C67.3129 107.891 68.1814 109.053 69.7617 109.964C73.3245 112.027 79.1089 112.021 82.6515 109.962C84.1996 109.061 85.0541 107.913 85.0582 106.733V106.729C85.0602 106.275 85.4281 105.907 85.8825 105.907C86.3369 105.909 86.7068 106.279 86.7068 106.733L86.6224 130.289C86.6164 132.084 85.4703 133.737 83.3934 134.941C81.3587 136.124 78.741 136.717 76.1232 136.717ZM67.3028 110.185L67.2324 130.243C67.2284 131.445 68.097 132.609 69.6773 133.522C73.24 135.581 79.0224 135.577 82.5651 133.518C84.1152 132.617 84.9717 131.469 84.9737 130.285L85.0461 110.229C84.6058 110.648 84.083 111.036 83.4799 111.386C79.4085 113.75 73.0209 113.748 68.9374 111.392C68.3061 111.028 67.7592 110.622 67.3028 110.185Z" fill="black"/>
<path d="M83.0202 102.734C86.8241 104.93 86.8337 108.483 83.0649 110.673C79.2859 112.869 73.1531 112.875 69.3492 110.679C65.5557 108.489 65.5357 104.93 69.3147 102.734C73.0835 100.544 79.2267 100.544 83.0202 102.734Z" fill="white"/>
<path d="M76.2096 113.159C73.5939 113.159 70.9781 112.57 68.9374 111.392C66.8323 110.175 65.6722 108.508 65.6682 106.699C65.6662 104.895 66.8142 103.235 68.9012 102.022C72.8982 99.7041 79.4145 99.7001 83.4316 102.02C85.5387 103.239 86.7028 104.905 86.7048 106.715C86.7088 108.514 85.5628 110.173 83.4799 111.385C81.4432 112.568 78.8274 113.159 76.2096 113.159ZM76.1574 101.904C73.8271 101.904 71.4989 102.418 69.7296 103.446C68.1714 104.351 67.3149 105.505 67.3149 106.697C67.3169 107.895 68.1855 109.055 69.7617 109.964C73.3225 112.025 79.1069 112.019 82.6515 109.962C84.2057 109.057 85.0602 107.905 85.0582 106.717C85.0561 105.519 84.1856 104.359 82.6073 103.448C80.8259 102.418 78.4896 101.904 76.1574 101.904Z" fill="black"/>
<path d="M69.7006 94.4639L69.6652 104.303C69.6625 105.266 70.2968 106.229 71.5666 106.962C74.0979 108.423 78.1786 108.419 80.6936 106.958C81.94 106.233 82.5658 105.285 82.5681 104.334L82.6039 94.4639H69.7006Z" fill="white"/>
<path d="M76.1292 108.884C74.3418 108.884 72.5524 108.482 71.1551 107.676C69.6612 106.811 68.8389 105.615 68.8409 104.302L68.8771 94.4604C68.8791 94.0081 69.247 93.6401 69.7014 93.6401H82.6033C82.8224 93.6401 83.0315 93.7286 83.1863 93.8834C83.3411 94.0382 83.4276 94.2493 83.4276 94.4665L83.3934 104.336C83.3874 105.633 82.5751 106.817 81.1074 107.67C79.7141 108.48 77.9227 108.884 76.1292 108.884ZM70.5217 95.2888L70.4895 104.308C70.4876 104.994 71.0304 105.702 71.9794 106.248C74.2333 107.553 78.0373 107.547 80.279 106.246C81.222 105.7 81.7427 105.018 81.7447 104.33L81.7769 95.2888H70.5217Z" fill="black"/>
<path d="M100.437 38.7326C95.7218 35.9928 89.2066 36.391 81.991 40.5486C67.6702 48.8159 56.09 68.8549 56.1378 85.3098C56.1697 93.4815 59.0526 99.2319 63.7042 101.94L56.9662 98.0214C52.3146 95.3134 49.4313 89.563 49.3998 81.3912C49.3515 64.9363 60.9322 44.8972 75.2529 36.6299C82.4686 32.4724 88.9838 32.0901 93.6988 34.8299L100.437 38.7326Z" fill="#FFD63C"/>
<path d="M63.7039 102.764C63.5632 102.764 63.4204 102.728 63.2897 102.652L56.5523 98.7329C51.4394 95.7573 48.6065 89.5989 48.5764 81.3958C48.5281 64.706 60.3101 44.3048 74.8404 35.9167C82.0785 31.7468 88.9225 31.1054 94.1138 34.1172L100.835 38.0117C100.837 38.0137 100.837 38.0137 100.841 38.0157L100.849 38.0217C101.241 38.2509 101.378 38.7536 101.149 39.1477C100.92 39.5417 100.413 39.6744 100.025 39.4452L99.9927 39.4271C95.3503 36.747 89.1054 37.3985 82.4002 41.2628C68.3262 49.3895 56.9142 69.1474 56.9625 85.3083C56.9906 92.9043 59.534 98.558 64.1181 101.228C64.5121 101.457 64.6448 101.962 64.4156 102.354C64.2628 102.617 63.9874 102.764 63.7039 102.764ZM86.8797 33.894C83.4598 33.894 79.6417 35.0521 75.6628 37.3442C61.5888 45.4689 50.1768 65.2288 50.225 81.3897C50.2532 88.9857 52.7945 94.6394 57.3807 97.3094L58.4845 97.9508C56.4337 94.7078 55.3339 90.4051 55.3138 85.3144C55.2655 68.6266 67.0475 48.2254 81.5779 39.8353C86.1057 37.2296 90.4807 36.0092 94.3731 36.17L93.2874 35.5407C91.3915 34.4409 89.2301 33.894 86.8797 33.894Z" fill="black"/>
<path d="M81.9891 40.5489C96.3192 32.2754 107.951 38.9157 107.998 55.3702C108.044 71.8131 96.4881 91.8645 82.158 100.138C67.8384 108.405 56.1859 101.754 56.1393 85.3107C56.0927 68.8562 67.6694 48.8163 81.9891 40.5489Z" fill="white"/>
<path d="M70.5298 104.527C67.912 104.527 65.4873 103.914 63.344 102.68C58.1909 99.7141 55.3399 93.5456 55.3158 85.3124C55.2675 68.6246 67.0495 48.2234 81.5779 39.8353C88.7978 35.6694 95.6217 35.0159 100.803 37.9976C105.95 40.9592 108.799 47.1276 108.823 55.3689C108.869 72.0627 97.0934 92.466 82.5711 100.852C78.3408 103.293 74.2413 104.527 70.5298 104.527ZM93.6252 37.8046C90.2032 37.8046 86.3811 38.9647 82.4022 41.2628C68.3282 49.3875 56.9162 69.1454 56.9645 85.3083C56.9846 92.9304 59.542 98.5922 64.1643 101.252C68.8228 103.932 75.0656 103.281 81.7467 99.4245C95.8147 91.3038 107.221 71.542 107.174 55.373C107.152 47.7449 104.597 42.0811 99.9806 39.4251C98.0987 38.3414 95.9534 37.8046 93.6252 37.8046Z" fill="black"/>
<path d="M82.1272 89.2713C91.2211 84.0209 98.5712 71.2798 98.5415 60.8303C98.5119 50.3809 91.1137 46.165 82.0199 51.4154C72.9263 56.6656 65.5762 69.3964 65.6058 79.8458C65.6354 90.2952 73.0336 94.5214 82.1272 89.2713Z" fill="white"/>
<path d="M98.5345 60.833C98.5811 71.2898 91.215 84.0238 82.1288 89.2755C75.9246 92.8542 70.5101 92.0175 67.6985 87.8115C68.3492 87.8813 68.9999 87.9046 69.6506 87.9046C82.2684 87.9046 92.5159 76.8668 92.5159 63.2496C92.5159 58.0212 91.0057 53.1879 88.4493 49.2143C94.375 48.6798 98.5113 53.002 98.5345 60.833Z" fill="#E9EDF4"/>
<path d="M74.7439 92.3574C73.0309 92.3574 71.4406 91.9553 70.0332 91.1451C66.6614 89.2069 64.7976 85.1938 64.7816 79.8477C64.7514 69.1514 72.2991 56.0767 81.608 50.7024C86.2886 48.0022 90.732 47.5881 94.1198 49.5383C97.4875 51.4765 99.3493 55.4856 99.3654 60.8277C99.3955 71.5299 91.8479 84.6107 82.5389 89.985C79.8066 91.5613 77.1526 92.3574 74.7439 92.3574ZM89.405 49.9746C87.2859 49.9746 84.9094 50.6984 82.4324 52.1299C73.5778 57.2408 66.4001 69.6722 66.4302 79.8436C66.4423 84.5765 68.0146 88.083 70.8535 89.7176C73.7125 91.3642 77.5708 90.95 81.7146 88.5575C90.5691 83.4466 97.7469 71.0092 97.7167 60.8317C97.7046 56.1028 96.1364 52.5984 93.2995 50.9658C92.1474 50.3023 90.8345 49.9746 89.405 49.9746Z" fill="black"/>
<path d="M80.7857 76.9102C80.651 76.9102 80.5163 76.876 80.3957 76.8117L76.5273 74.7267C76.1272 74.5096 75.9764 74.011 76.1915 73.6109C76.4067 73.2068 76.9133 73.06 77.3074 73.2751L80.4238 74.9559L86.1057 63.3791C86.3047 62.9689 86.8013 62.802 87.2075 63.0011C87.6176 63.2022 87.7845 63.6947 87.5854 64.1029L81.5256 76.4478C81.4271 76.6488 81.2501 76.8017 81.037 76.87C80.9546 76.8961 80.8701 76.9102 80.7857 76.9102Z" fill="black"/>
</svg>
