<svg width="50" height="50" viewBox="0 0 50 50" fill="none" xmlns="http://www.w3.org/2000/svg">
<g clip-path="url(#clip0_44_252)">
<path d="M23.1926 20.567C23.0798 20.567 22.9708 20.5049 22.9164 20.3967C22.7794 20.1273 22.6939 19.8428 22.6621 19.5522C22.6432 19.3819 22.7658 19.229 22.936 19.2101C23.1048 19.1881 23.2592 19.3145 23.2781 19.484C23.3023 19.7005 23.3659 19.9139 23.4688 20.1167C23.5467 20.2696 23.4855 20.4557 23.3326 20.5329C23.2879 20.5556 23.2403 20.567 23.1926 20.567Z" fill="white"/>
<path d="M25.8844 22.1275C25.8837 22.1275 25.8821 22.1275 25.8814 22.1275C25.8004 22.1259 25.7187 22.1222 25.6377 22.1154C25.136 22.0775 24.6297 21.9231 24.1749 21.6673C24.0258 21.5833 23.9728 21.3949 24.0568 21.2451C24.1401 21.096 24.3285 21.0415 24.4791 21.127C24.8552 21.3381 25.2722 21.466 25.6861 21.4978C25.755 21.5031 25.8216 21.5069 25.8874 21.5069C26.0585 21.5092 26.1962 21.6492 26.1947 21.8202C26.1924 21.9905 26.0539 22.1275 25.8844 22.1275ZM27.4835 21.8558C27.3548 21.8558 27.2345 21.7748 27.1906 21.6462C27.1346 21.4842 27.2209 21.3079 27.3828 21.2526C27.8346 21.0975 28.2955 20.8773 28.7935 20.5799C28.9372 20.4906 29.131 20.5382 29.218 20.6866C29.3066 20.8334 29.2589 21.0233 29.1113 21.1111C28.577 21.432 28.0768 21.6696 27.5841 21.8384C27.5508 21.8505 27.5168 21.8558 27.4835 21.8558ZM30.2987 20.2386C30.2041 20.2386 30.111 20.1954 30.0505 20.1137C29.9475 19.9767 29.9763 19.7822 30.1133 19.6801C30.4735 19.4114 30.8269 19.1344 31.1803 18.8567L31.3975 18.6864C31.53 18.5827 31.726 18.6039 31.8327 18.7401C31.9379 18.8748 31.9144 19.0693 31.7789 19.1753L31.5633 19.344C31.2053 19.6248 30.8481 19.9056 30.4841 20.1765C30.4281 20.2181 30.363 20.2386 30.2987 20.2386ZM32.8891 18.2596C32.7923 18.2596 32.6969 18.2142 32.6364 18.1287C32.5372 17.9887 32.5705 17.7957 32.7098 17.6966C32.8498 17.5974 32.992 17.499 33.1351 17.4037C33.4628 17.1857 33.795 16.9859 34.1211 16.8096C34.271 16.7286 34.4602 16.7839 34.5412 16.9345C34.6229 17.0851 34.5669 17.2735 34.4163 17.3545C34.0939 17.5285 33.7798 17.7193 33.4786 17.9198C33.3402 18.0121 33.2039 18.106 33.0685 18.2021C33.014 18.2407 32.9512 18.2596 32.8891 18.2596ZM40.3827 17.4718C40.3116 17.4718 40.2397 17.4468 40.1814 17.3976C39.806 17.0775 39.3535 16.8232 38.8714 16.6613C38.7087 16.6068 38.6217 16.4312 38.6762 16.2693C38.7299 16.1066 38.9055 16.0173 39.0682 16.074C39.6244 16.2602 40.1489 16.5546 40.584 16.9254C40.7142 17.0366 40.7293 17.2319 40.6188 17.3628C40.5575 17.4347 40.4705 17.4718 40.3827 17.4718ZM35.7649 16.7513C35.6332 16.7513 35.5106 16.6666 35.469 16.5341C35.4175 16.3707 35.5083 16.1966 35.6718 16.1452C36.2447 15.9651 36.8107 15.8629 37.3526 15.8417C37.3564 15.8409 37.3609 15.8409 37.3647 15.8409C37.5304 15.8409 37.6681 15.9719 37.6742 16.1391C37.681 16.3101 37.5478 16.4539 37.3768 16.4607C36.8894 16.4797 36.3786 16.5727 35.8579 16.737C35.8269 16.7468 35.7959 16.7513 35.7649 16.7513Z" fill="white"/>
<path d="M41.5383 19.5355C41.3817 19.5355 41.2477 19.4174 41.2303 19.2593C41.2054 19.033 41.1486 18.8082 41.0616 18.5895C40.9988 18.4306 41.0759 18.2505 41.2356 18.1869C41.3923 18.1271 41.5747 18.2013 41.6382 18.361C41.7457 18.6304 41.8153 18.9104 41.8463 19.1911C41.8653 19.3614 41.7427 19.5143 41.5724 19.5332C41.561 19.5347 41.5489 19.5355 41.5383 19.5355Z" fill="white"/>
<path d="M41.118 31.0622L49.1182 19.2556L49.1589 33.6019L41.118 31.0622Z" fill="white"/>
<path d="M32.3435 36.1289L36.0049 37.2866C36.2217 37.3538 36.4817 37.2999 36.7413 37.1499C37.0011 36.9999 37.2604 36.7539 37.4761 36.4369L41.1181 31.0622L49.1589 33.6019C49.1623 34.8109 48.3098 36.2879 47.258 36.8953L26.2543 49.0258C25.2025 49.6333 24.3478 49.1422 24.3444 47.9332L32.3435 36.1289Z" fill="white"/>
<path d="M24.3037 33.587L32.3435 36.129L24.3444 47.9333L24.3037 33.587Z" fill="white"/>
<path d="M47.205 18.1649C48.2568 17.5574 49.1148 18.0465 49.1183 19.2555L41.1181 31.0622L37.4762 36.4369C37.2604 36.7539 37.0011 36.9999 36.7414 37.1499C36.4817 37.2998 36.2217 37.3538 36.0049 37.2866L32.3435 36.1289L24.3037 33.5869C24.3003 32.3778 25.1494 30.9028 26.2013 30.2953L47.205 18.1649Z" fill="white"/>
<path d="M45.7143 32.5138C46.3836 30.9892 46.7423 29.3391 46.7423 27.6173C46.7423 26.2601 46.5211 24.9508 46.0967 23.7132L49.121 19.2531L49.1569 33.6018L45.7143 32.5138Z" fill="#E9EDF4"/>
<path d="M49.1569 33.6018C49.1629 34.8095 48.3083 36.2863 47.2562 36.8961L26.2542 49.0268C25.2023 49.6306 24.3477 49.1404 24.3417 47.9327L28.603 41.6491C29.135 41.691 29.6788 41.7149 30.2288 41.7149C37.335 41.7149 43.3895 37.8886 45.7143 32.5138L49.1569 33.6018Z" fill="#E9EDF4"/>
<path d="M28.6029 41.6491L24.3416 47.9327L24.3236 40.7822C25.6743 41.2246 27.1087 41.5235 28.6029 41.6491Z" fill="#E9EDF4"/>
<path d="M49.1209 19.2531L46.0967 23.7132C45.6485 22.368 44.9672 21.1065 44.0886 19.9646L47.2025 18.165C48.2544 17.5552 49.115 18.0454 49.1209 19.2531Z" fill="#E9EDF4"/>
<path d="M21.4545 31.9534L21.4956 46.3024C21.4956 46.9031 21.7112 47.324 22.0549 47.5243L24.9015 49.1586C24.5578 48.9584 24.3473 48.5323 24.3422 47.9316L24.3012 33.5877C24.3012 33.0306 24.486 32.4205 24.7818 31.8625L21.9339 30.2326C21.6388 30.7905 21.4545 31.3994 21.4545 31.9534Z" fill="#EBC449"/>
<path d="M45.7142 16.403C45.3652 16.1976 44.8878 16.2284 44.3541 16.5313L23.3533 28.6626C22.7843 28.9902 22.2812 29.5756 21.9338 30.2327L24.7817 31.8625C25.129 31.207 25.6316 30.6242 26.1999 30.2969L47.2058 18.1657C47.7345 17.8577 48.2118 17.832 48.5608 18.0322L45.7142 16.403Z" fill="#FFD948"/>
<path d="M49.1591 33.9119C49.1281 33.9119 49.0963 33.9066 49.066 33.8976L41.0253 31.3578C40.9314 31.3283 40.858 31.2564 40.8255 31.1641C40.7937 31.071 40.8066 30.9688 40.8618 30.8879L48.8617 19.0814C48.9381 18.9687 49.0766 18.9187 49.209 18.9588C49.3384 18.999 49.4277 19.1185 49.4285 19.2547L49.4694 33.6009C49.4694 33.7 49.4224 33.7931 49.343 33.8514C49.2885 33.8908 49.2242 33.9119 49.1591 33.9119ZM41.608 30.8917L48.848 33.1786L48.811 20.2613L41.608 30.8917Z" fill="black"/>
<path d="M25.4009 49.5976C25.1663 49.5976 24.9461 49.5416 24.7501 49.4281C24.29 49.164 24.0365 48.6335 24.0342 47.9342C24.0342 47.8722 24.0531 47.8109 24.0879 47.7594L32.087 35.9553C32.1642 35.8425 32.308 35.7941 32.4366 35.8334L36.0979 36.9905C36.2235 37.0284 36.3968 36.9905 36.586 36.8816C36.8116 36.7506 37.0371 36.5312 37.2202 36.2625L40.8618 30.8879C40.939 30.7744 41.082 30.7275 41.2114 30.7661L49.2522 33.3058C49.3808 33.3467 49.4686 33.4662 49.4694 33.6009C49.4724 34.9314 48.5695 36.4964 47.4132 37.1638L26.4097 49.2942C26.0601 49.4955 25.7172 49.5976 25.4009 49.5976ZM24.6562 48.0258C24.6752 48.4458 24.8167 48.7516 25.0589 48.8908C25.3215 49.0414 25.69 48.9937 26.0994 48.7569L47.1029 36.6265C47.9883 36.1157 48.7436 34.8761 48.839 33.8257L41.2455 31.4275L37.7325 36.6114C37.4949 36.9603 37.2058 37.2388 36.8971 37.4181C36.5512 37.6187 36.2107 37.6754 35.9133 37.5823L32.4707 36.4948L24.6562 48.0258Z" fill="black"/>
<path d="M24.3444 48.2437C24.3142 48.2437 24.2839 48.2391 24.2536 48.2301C24.1242 48.19 24.0349 48.0704 24.0342 47.9342L23.9933 33.588C23.9933 33.4889 24.0402 33.3958 24.1197 33.3375C24.1999 33.2792 24.302 33.2626 24.3966 33.2913L32.4366 35.8333C32.5305 35.8629 32.6039 35.9348 32.6364 36.0278C32.6682 36.1202 32.6553 36.2223 32.6001 36.3033L24.601 48.1075C24.5419 48.1937 24.4451 48.2437 24.3444 48.2437ZM24.6146 34.011L24.6517 46.9277L31.8539 36.2995L24.6146 34.011Z" fill="black"/>
<path d="M36.2023 37.6254C36.1024 37.6254 36.0056 37.611 35.9132 37.5823L24.2105 33.8831C24.0818 33.8423 23.9941 33.7227 23.9933 33.588C23.9903 32.2584 24.8923 30.6941 26.0464 30.0266L47.0499 17.8963C47.6606 17.5444 48.2509 17.4967 48.7126 17.7623C49.1727 18.0265 49.4262 18.557 49.4285 19.2547C49.4285 19.3168 49.4095 19.3781 49.3747 19.4295L37.7325 36.6113C37.4949 36.9602 37.2058 37.2387 36.897 37.418C36.6587 37.5558 36.4233 37.6254 36.2023 37.6254ZM24.6237 33.3632L36.0979 36.9905C36.2235 37.0283 36.3968 36.9905 36.586 36.8815C36.8115 36.7506 37.0371 36.5311 37.2202 36.2624L48.8064 19.1639C48.7875 18.7439 48.646 18.4389 48.4038 18.2997C48.1412 18.1475 47.7704 18.1952 47.3602 18.4336L26.3567 30.5639C25.4728 31.074 24.7183 32.3136 24.6237 33.3632Z" fill="black"/>
<path d="M24.9014 49.4689C24.8485 49.4689 24.7955 49.4553 24.747 49.4273L21.9008 47.7926C21.4392 47.5247 21.1857 46.9958 21.1857 46.3025L21.144 31.9541C21.144 31.3797 21.3272 30.716 21.6602 30.0871C21.6995 30.013 21.7669 29.9577 21.8478 29.935C21.9281 29.9108 22.0158 29.9222 22.0877 29.9638L24.9355 31.5939C25.0808 31.6764 25.1338 31.8603 25.0558 32.0078C24.769 32.5482 24.6116 33.1089 24.6116 33.588L24.6524 47.9311C24.6562 48.3988 24.8 48.7409 25.0573 48.8907C25.2049 48.977 25.2556 49.1662 25.1693 49.3138C25.1126 49.4129 25.0081 49.4689 24.9014 49.4689ZM21.7646 31.9526L21.8062 46.3018C21.8062 46.7657 21.95 47.1047 22.2111 47.2561L24.0629 48.3201C24.044 48.1983 24.0334 48.0696 24.0319 47.9349L23.991 33.5887C23.991 33.084 24.1235 32.5353 24.3747 31.9867L22.0681 30.6661C21.8713 31.1141 21.7646 31.5613 21.7646 31.9526Z" fill="black"/>
<path d="M24.7819 32.1728C24.7281 32.1728 24.6752 32.1585 24.6282 32.1312L21.7805 30.5011C21.6352 30.4186 21.5822 30.2355 21.6602 30.0879C22.056 29.3395 22.6016 28.7379 23.1979 28.3943L44.1992 16.2624C44.8197 15.912 45.4115 15.8666 45.8701 16.1353L48.7126 17.7624C48.7133 17.7624 48.7133 17.7624 48.7141 17.7631L48.7148 17.7639C48.8632 17.8494 48.9154 18.0386 48.8299 18.1869C48.7451 18.3352 48.5552 18.3875 48.4076 18.3012L48.4046 18.2997C48.1382 18.1498 47.7689 18.1967 47.3617 18.4336L26.3552 30.5655C25.8656 30.8477 25.3918 31.3729 25.0558 32.0079C25.0165 32.082 24.9483 32.1373 24.8681 32.16C24.8401 32.1683 24.8106 32.1728 24.7819 32.1728ZM22.3572 30.1175L24.6661 31.4395C25.0429 30.8228 25.525 30.3278 26.0449 30.0282L47.0507 17.8971C47.1687 17.829 47.286 17.7714 47.4018 17.726L45.5606 16.6718C45.5591 16.6718 45.5576 16.6711 45.5568 16.6703C45.298 16.5182 44.9264 16.5621 44.5072 16.8005L23.5082 28.9316C23.0867 29.1745 22.6773 29.5983 22.3572 30.1175Z" fill="black"/>
<path d="M24.6494 12.6029L22.9894 19.3396L3.29881 3.21997L0.309937 0.310425L20.4994 8.1331L24.6494 12.6029Z" fill="white"/>
<path d="M22.9898 19.6497C22.9194 19.6497 22.8498 19.6255 22.7938 19.5793L3.10255 3.46006L0.0936137 0.532102C-0.0115779 0.429938 -0.0304973 0.266474 0.048964 0.14312C0.129182 0.0182525 0.286591 -0.0324513 0.422054 0.0212796L20.6113 7.84405C20.6552 7.8607 20.6945 7.88795 20.7263 7.922L24.8764 12.3915C24.9476 12.4679 24.9756 12.5754 24.9506 12.6768L23.291 19.4136C23.2653 19.5165 23.1888 19.5998 23.0874 19.6338C23.0557 19.6444 23.0224 19.6497 22.9898 19.6497ZM1.61549 1.14887L3.51499 2.99843L22.8059 18.7885L24.3081 12.6912L20.3207 8.3965L1.61549 1.14887Z" fill="black"/>
<path d="M0.309937 0.310425L34.2902 6.72829L24.6494 12.6029L0.309937 0.310425Z" fill="white"/>
<path d="M0.307068 0.309662L24.6471 12.6044L34.2873 6.72934L29.5452 5.70682C27.2174 7.16261 22.845 7.65363 18.0566 6.78131C12.6559 5.79342 11.351 4.93116 10.1495 2.43558L0.307068 0.309662Z" fill="#E9EDF4"/>
<path d="M24.6494 12.913C24.6018 12.913 24.5541 12.9016 24.5094 12.8797L0.17007 0.587412C0.0323368 0.517788 -0.0327458 0.357352 0.0164446 0.210538C0.0656349 0.0652375 0.210179 -0.0233049 0.367588 0.00620916L34.3475 6.42441C34.4739 6.44787 34.5723 6.54701 34.595 6.67339C34.6177 6.79901 34.5609 6.92691 34.4512 6.9935L24.8106 12.8676C24.7614 12.8979 24.7054 12.913 24.6494 12.913ZM2.40634 1.0218L24.6351 12.2485L33.4401 6.88377L2.40634 1.0218Z" fill="black"/>
<path d="M34.2903 6.72842L19.861 10.1749L24.6495 12.6031L34.2903 6.72842Z" fill="white"/>
<path d="M24.6494 12.913C24.6018 12.913 24.5533 12.9016 24.5094 12.8789L19.7213 10.4512C19.6055 10.3929 19.5382 10.268 19.5533 10.1386C19.5685 10.0092 19.6631 9.90404 19.7894 9.87377L34.2181 6.42742C34.3702 6.38807 34.5185 6.4698 34.5768 6.61056C34.6351 6.75132 34.5813 6.91402 34.4512 6.99349L24.8106 12.8676C24.7614 12.8978 24.7054 12.913 24.6494 12.913ZM20.7543 10.2802L24.6358 12.2478L32.4495 7.4869L20.7543 10.2802Z" fill="black"/>
<path d="M19.861 10.1748L15.6152 15.4125H18.9672L22.9895 19.3396L24.6495 12.6029L19.861 10.1748Z" fill="#FFD948"/>
<path d="M22.9899 19.6497C22.9104 19.6497 22.8317 19.6187 22.7734 19.5612L18.8405 15.7228H15.6151C15.4956 15.7228 15.3866 15.654 15.3351 15.5457C15.2837 15.4383 15.2988 15.3104 15.3745 15.2173L19.6207 9.97966C19.7131 9.86539 19.8712 9.83285 20.0014 9.89869L24.7895 12.3264C24.9181 12.3915 24.9847 12.5368 24.9507 12.6768L23.2911 19.4136C23.2646 19.5218 23.1821 19.6073 23.0746 19.6376C23.0466 19.6452 23.0186 19.6497 22.9899 19.6497ZM16.2652 15.1023H18.9669C19.0478 15.1023 19.1258 15.134 19.1833 15.1908L22.8189 18.7393L24.2893 12.7676L19.9446 10.5646L16.2652 15.1023Z" fill="black"/>
<path d="M21.521 14.2632L22.9895 19.3397L16.7325 14.2632H21.521Z" fill="white"/>
<path d="M22.9897 19.6498C22.9201 19.6498 22.8513 19.6263 22.7945 19.5802L16.5375 14.5037C16.4353 14.4212 16.3967 14.2835 16.4406 14.1594C16.4845 14.036 16.6018 13.9528 16.7327 13.9528H21.5208C21.6586 13.9528 21.7804 14.0444 21.8183 14.1768L23.2872 19.2532C23.325 19.3834 23.2743 19.5226 23.1608 19.5976C23.1086 19.6324 23.0495 19.6498 22.9897 19.6498ZM17.6068 14.5733L22.4169 18.476L21.2878 14.5733H17.6068Z" fill="black"/>
<path d="M0.309937 0.310425L11.114 20.2655L21.521 14.2632L0.309937 0.310425Z" fill="white"/>
<path d="M0.307068 0.309662L11.1137 20.2645L21.5223 14.2624L16.3988 10.9811C15.9945 11.7494 15.4342 12.3676 14.7122 12.7835C11.5932 14.5859 6.69508 11.9459 3.77812 6.89689C2.76731 5.14648 2.1261 3.34403 1.84886 1.65145L0.307068 0.309662Z" fill="#E9EDF4"/>
<path d="M11.1137 20.5763C11.0857 20.5763 11.057 20.5717 11.029 20.5642C10.9488 20.5414 10.8807 20.487 10.8413 20.4136L0.0375955 0.458183C-0.0305142 0.333316 -0.00402715 0.178177 0.100408 0.0820668C0.205599 -0.0140434 0.361495 -0.025395 0.480308 0.0517958L21.6912 14.0044C21.7812 14.0635 21.8342 14.1649 21.8304 14.2723C21.8274 14.3798 21.7691 14.4782 21.676 14.5319L11.2689 20.5346C11.2212 20.5619 11.1675 20.5763 11.1137 20.5763ZM1.16973 1.24674L11.2348 19.8384L20.9306 14.2458L1.16973 1.24674Z" fill="black"/>
<path d="M17.0578 11.4011L11.114 20.2654L21.521 14.263L17.0578 11.4011Z" fill="white"/>
<path d="M11.1138 20.576C11.0305 20.576 10.9473 20.5419 10.8875 20.4776C10.7891 20.3724 10.7763 20.2127 10.8565 20.0932L16.8009 11.2283C16.8955 11.0876 17.0847 11.0497 17.2255 11.1398L21.6882 14.0019C21.779 14.0602 21.8335 14.1623 21.8305 14.2705C21.8282 14.3788 21.7692 14.4771 21.6761 14.5316L11.2689 20.5344C11.2205 20.5624 11.1668 20.576 11.1138 20.576ZM17.1468 11.8254L12.1135 19.3311L20.9246 14.2486L17.1468 11.8254Z" fill="black"/>
</g>
<defs>
<clipPath id="clip0_44_252">
<rect width="50" height="50" fill="white"/>
</clipPath>
</defs>
</svg>
