<svg width="50" height="50" viewBox="0 0 50 50" fill="none" xmlns="http://www.w3.org/2000/svg">
<path d="M9.8277 13.0942L6.63698 41.2934L6.59839 41.5634V41.5826C6.59839 42.1514 6.97446 42.7105 7.71671 43.1443L15.9295 47.8869C16.6647 48.3095 17.6221 48.5234 18.578 48.5273L19.7274 19.0611L9.8277 13.0942Z" fill="#FFD63C"/>
<path d="M18.7307 44.5602L18.5785 48.524C17.6257 48.524 16.665 48.3106 15.9332 47.8838L7.71594 43.1423C6.97636 42.7078 6.59521 42.1514 6.59521 41.5796V41.5644L6.63355 41.29L9.82749 13.093L17.374 17.6439C13.1509 19.824 10.1934 24.9008 10.1934 30.8085C10.1934 37.3337 13.8064 42.8451 18.7307 44.5602Z" fill="#F4C531"/>
<path d="M18.578 48.8214C18.5773 48.8214 18.5773 48.8214 18.5766 48.8214C17.5304 48.8171 16.538 48.5759 15.7833 48.1418L7.56942 43.399C6.75299 42.9215 6.3042 42.2767 6.3042 41.5827L6.34656 41.252L9.53547 13.0613C9.54696 12.9619 9.608 12.875 9.69775 12.8304C9.78751 12.7863 9.89378 12.791 9.97923 12.8423L19.8791 18.809C19.971 18.8647 20.0256 18.9656 20.0213 19.0726L18.8717 48.5389C18.866 48.6969 18.736 48.8214 18.578 48.8214ZM10.0683 13.583L6.88942 41.6053C6.89301 42.0591 7.2384 42.5237 7.86526 42.8906L16.077 47.6323C16.6773 47.977 17.4564 48.1845 18.2951 48.2258L19.4268 19.2233L10.0683 13.583Z" fill="black"/>
<path d="M43.3056 33.6397V33.6204L40.1727 6.95386L19.7275 19.061L18.5781 48.5272C19.5407 48.5311 20.5013 48.3221 21.2313 47.8964L42.3223 35.6447C43.2477 35.1049 43.5851 34.3434 43.3056 33.6397Z" fill="white"/>
<path d="M42.3235 35.6414L21.2311 47.8989C20.4993 48.3258 19.5387 48.5316 18.5784 48.524L18.8832 40.6648C20.5299 41.2289 22.2982 41.5415 24.1355 41.5415C32.9929 41.5415 40.174 34.3607 40.174 25.503C40.174 19.5953 36.9801 14.4422 32.2307 11.6598L40.174 6.95654L43.3069 33.6213V33.6365C43.5812 34.3455 43.2458 35.1078 42.3235 35.6414Z" fill="#E9EDF4"/>
<path d="M18.6052 48.8212C18.5226 48.8205 18.4278 48.7954 18.3654 48.7308C18.3101 48.673 18.2806 48.5954 18.2842 48.5157L19.4338 19.0494C19.4374 18.9496 19.492 18.8587 19.5775 18.8077L40.0228 6.70053C40.1075 6.64918 40.2131 6.64559 40.3036 6.69011C40.3926 6.73427 40.4536 6.82044 40.4651 6.91917L43.5966 33.5779C43.9061 34.4259 43.4781 35.3109 42.4699 35.8987L21.3791 48.1506C20.6359 48.5836 19.6514 48.8212 18.6052 48.8212ZM20.0155 19.2325L18.8838 48.227C19.7218 48.1901 20.493 47.9858 21.0832 47.6422L42.1741 35.3903C42.9417 34.9426 43.2627 34.3286 43.0322 33.7481C43.0185 33.7136 43.0114 33.6766 43.0114 33.6396V33.6203L39.9338 7.43726L20.0155 19.2325Z" fill="black"/>
<path d="M39.2597 5.90614C40.4721 6.60612 40.4784 7.74315 39.28 8.43961L21.8966 18.5417C20.6921 19.2417 18.7352 19.2382 17.5228 18.5382L10.7466 14.626C9.53424 13.926 9.52177 12.7926 10.7263 12.0926L28.1097 1.99043C29.3081 1.29397 31.2711 1.29394 32.4835 1.99391L39.2597 5.90614Z" fill="white"/>
<path d="M19.7182 19.3633C18.8767 19.3633 18.0344 19.173 17.3759 18.7928L10.5996 14.8804C9.91455 14.4855 9.53686 13.9426 9.53614 13.352C9.5347 12.7672 9.90522 12.2297 10.5788 11.8383L27.9616 1.73631C29.2433 0.990965 31.3372 0.993119 32.6304 1.73918L39.4067 5.65154C40.0903 6.04611 40.4673 6.58897 40.468 7.18029C40.4688 7.76623 40.0997 8.30369 39.4283 8.6936L22.0448 18.796C21.3935 19.1741 20.5562 19.3629 19.7182 19.3633ZM30.2881 1.76647C29.5463 1.76647 28.806 1.92588 28.2574 2.2447L10.8746 12.3467C10.3899 12.6282 10.1235 12.9851 10.1242 13.3513C10.1249 13.7229 10.3978 14.0852 10.894 14.3709L17.6703 18.2837C18.7998 18.9357 20.6295 18.9375 21.7489 18.2876L39.1324 8.18521C39.615 7.90481 39.8807 7.54829 39.8799 7.18101C39.8792 6.80869 39.6071 6.44643 39.1123 6.16064L32.336 2.24829C31.7795 1.92696 31.0327 1.76647 30.2881 1.76647Z" fill="black"/>
<path d="M26.5529 19.4675C27.4 18.9784 28.0787 19.3652 28.0814 20.3271C28.0841 21.289 27.4098 22.4625 26.5628 22.9516C25.7258 23.4349 25.0423 23.0452 25.0396 22.0833C25.0368 21.1214 25.7159 19.9508 26.5529 19.4675Z" fill="white"/>
<path d="M25.8828 23.4547C25.6867 23.4547 25.5036 23.4077 25.3392 23.3129C24.9579 23.0939 24.7475 22.6573 24.7454 22.0843C24.7425 21.014 25.4713 19.7524 26.4055 19.2131C26.9125 18.9209 27.4015 18.881 27.7856 19.1015C28.1641 19.3194 28.3737 19.7545 28.3759 20.3265C28.3788 21.4003 27.6471 22.6656 26.71 23.2066C26.4242 23.3714 26.1427 23.4547 25.8828 23.4547ZM26.6999 19.7222C25.9567 20.1516 25.3313 21.2323 25.3342 22.0828C25.3349 22.4318 25.444 22.6946 25.6329 22.8031C25.8225 22.9133 26.109 22.8742 26.4156 22.6968C27.1616 22.2663 27.7899 21.1817 27.7871 20.3279C27.7864 19.9746 27.6815 19.7201 27.492 19.6113C27.3009 19.5007 27.0116 19.5427 26.6999 19.7222Z" fill="black"/>
<path d="M35.4058 14.3562C36.2526 13.8673 36.9363 14.2512 36.9391 15.2131C36.9418 16.175 36.2625 17.3514 35.4157 17.8403C34.5787 18.3236 33.9 17.9312 33.8972 16.9693C33.8945 16.0074 34.5688 14.8394 35.4058 14.3562Z" fill="white"/>
<path d="M34.7378 18.3428C34.5432 18.3428 34.3601 18.2957 34.1964 18.2017C33.8151 17.9823 33.6047 17.545 33.6025 16.9702C33.6004 15.8992 34.3278 14.639 35.2584 14.1016C35.7668 13.8089 36.2579 13.7684 36.6435 13.9903C37.0219 14.2082 37.2316 14.6423 37.2338 15.2124C37.2359 16.2863 36.5021 17.5526 35.5628 18.095C35.2778 18.2598 34.997 18.3428 34.7378 18.3428ZM35.5528 14.611C34.8125 15.0383 34.1892 16.1182 34.1914 16.9688C34.1921 17.3195 34.3012 17.5831 34.4901 17.6919C34.6782 17.801 34.9633 17.7622 35.2684 17.5856C36.0167 17.1537 36.6471 16.0672 36.645 15.2138C36.6442 14.8623 36.5394 14.6089 36.3498 14.5001C36.1588 14.3891 35.8666 14.4301 35.5528 14.611Z" fill="black"/>
<path d="M29.259 3.96753L14.4298 12.5868C13.8436 12.9275 13.8451 13.7745 14.432 14.1134L18.6652 16.5575C18.8505 16.6644 19.2242 16.7782 19.7185 16.7782C20.2069 16.7782 20.5783 16.6632 20.7473 16.5646L30.2885 11.0186V3.75537C29.798 3.75537 29.4273 3.86964 29.259 3.96753Z" fill="white"/>
<path d="M19.7189 17.0723C19.2493 17.0723 18.8005 16.975 18.5183 16.812L14.2846 14.368C13.917 14.1559 13.6973 13.7757 13.6973 13.3513C13.6965 12.9269 13.9148 12.546 14.2818 12.3327L29.1112 3.71311C29.3208 3.59139 29.7402 3.46143 30.2888 3.46143C30.4511 3.46143 30.5832 3.59319 30.5832 3.75547V11.0187C30.5832 11.1235 30.5272 11.2204 30.4367 11.2728L20.8951 16.8188C20.6862 16.9412 20.2668 17.0723 19.7189 17.0723ZM29.407 4.22149L14.5776 12.8411C14.3945 12.9477 14.2846 13.138 14.2854 13.3502C14.2854 13.5627 14.3952 13.7527 14.579 13.8589L18.8127 16.3029C18.9578 16.3865 19.2816 16.4842 19.7189 16.4842C20.1806 16.4842 20.4959 16.3707 20.5985 16.3108L29.9944 10.8496V4.06531C29.6921 4.09835 29.486 4.17554 29.407 4.22149Z" fill="black"/>
<path d="M35.5736 6.41872L31.3404 3.9746C31.1655 3.87336 30.7844 3.75537 30.2886 3.75537V11.0186L35.5758 7.94529C36.162 7.60463 36.1606 6.75766 35.5736 6.41872Z" fill="#FFD63C"/>
<path d="M30.2888 11.3127C30.2378 11.3127 30.1875 11.2998 30.1423 11.2736C30.0511 11.2211 29.9944 11.1239 29.9944 11.0187V3.75547C29.9944 3.59319 30.1265 3.46143 30.2888 3.46143C30.8431 3.46143 31.2718 3.59499 31.488 3.71993L35.7209 6.16421C36.0886 6.37639 36.3083 6.75661 36.3083 7.18098C36.309 7.60535 36.0907 7.98628 35.7238 8.19955L30.4367 11.2728C30.3908 11.2994 30.3398 11.3127 30.2888 11.3127ZM30.5832 4.06531V10.5074L35.4279 7.69116C35.6111 7.58453 35.7209 7.39424 35.7202 7.18206C35.7202 6.96951 35.6103 6.77958 35.4265 6.67331L31.1935 4.22903C31.1103 4.18092 30.8948 4.09942 30.5832 4.06531Z" fill="black"/>
<path d="M29.2018 27.1769C28.7301 27.1769 28.2928 27.066 27.9036 26.8423C26.978 26.3095 26.466 25.2134 26.4617 23.7557L26.4509 21.1912C26.4502 21.0289 26.5816 20.8968 26.7439 20.896C26.9263 20.8946 27.0383 21.0256 27.0397 21.189L27.0505 23.7539C27.0534 24.9933 27.4612 25.9088 28.1973 26.3325C28.939 26.7597 29.9464 26.6477 31.0329 26.0212C33.3852 24.663 35.2931 21.3613 35.2852 18.6611L35.2745 16.0969C35.2737 15.9346 35.4051 15.8025 35.5674 15.8018H35.5689C35.7304 15.8018 35.8626 15.9324 35.8633 16.0947L35.874 18.6593C35.8819 21.5477 33.8426 25.0784 31.3273 26.5303C30.5834 26.9601 29.8603 27.1769 29.2018 27.1769Z" fill="black"/>
</svg>
