<svg viewBox="0 0 29 23" xmlns="http://www.w3.org/2000/svg">
  <path d="M20.2929 22.7071C20.6834 23.0976 21.3166 23.0976 21.7071 22.7071L28.0711 16.3431C28.4616 15.9526 28.4616 15.3195 28.0711 14.9289C27.6805 14.5384 27.0474 14.5384 26.6569 14.9289L21 20.5858L15.3431 14.9289C14.9526 14.5384 14.3195 14.5384 13.9289 14.9289C13.5384 15.3195 13.5384 15.9526 13.9289 16.3431L20.2929 22.7071ZM21 22L22 22L22 -4.37114e-08L21 0L20 4.37114e-08L20 22L21 22Z" />
  <path d="M8.70711 0.292893C8.31658 -0.0976314 7.68342 -0.0976315 7.2929 0.292892L0.928934 6.65685C0.538409 7.04738 0.538409 7.68054 0.928933 8.07107C1.31946 8.46159 1.95262 8.46159 2.34315 8.07107L8 2.41421L13.6569 8.07107C14.0474 8.46159 14.6805 8.46159 15.0711 8.07107C15.4616 7.68054 15.4616 7.04738 15.0711 6.65685L8.70711 0.292893ZM8 1L7 1L7 23L8 23L9 23L9 1L8 1Z" />
</svg>
