<svg width="47" height="47" viewBox="0 0 47 47" fill="none" xmlns="http://www.w3.org/2000/svg">
<path d="M33.8345 2.1543H13.1655C7.07313 2.1543 2.13428 7.09315 2.13428 13.1855V33.8545C2.13428 39.9469 7.07313 44.8857 13.1655 44.8857H33.8345C39.9269 44.8857 44.8657 39.9469 44.8657 33.8545V13.1855C44.8657 7.09315 39.9269 2.1543 33.8345 2.1543Z" fill="url(#paint0_linear_350_949)"/>
<path d="M23.5 7.99805C20.8311 7.99849 18.2094 8.70183 15.8987 10.0373C13.588 11.3727 11.6698 13.2932 10.337 15.6054C9.00418 17.9177 8.30387 20.5402 8.3065 23.2091C8.30912 25.8779 9.01459 28.499 10.3519 30.8087L8.2865 38.7151L16.3233 36.5863C18.3597 37.677 20.6179 38.289 22.9263 38.3758C25.2347 38.4625 27.5325 38.0218 29.645 37.0871C31.7575 36.1525 33.629 34.7484 35.1174 32.9817C36.6057 31.2151 37.6716 29.1323 38.234 26.8918C38.7965 24.6513 38.8407 22.312 38.3632 20.0518C37.8858 17.7917 36.8993 15.6702 35.4787 13.8485C34.0581 12.0269 32.2409 10.5532 30.1652 9.53943C28.0895 8.52565 25.81 7.99849 23.5 7.99805ZM32.4355 32.1287C30.3953 34.1678 27.7193 35.448 24.8514 35.7571C21.9836 36.0661 19.0963 35.3854 16.6685 33.8279L11.9997 35.0662L13.193 30.5057C11.7989 28.5411 10.9954 26.2189 10.8771 23.8128C10.7588 21.4066 11.3307 19.0168 12.5254 16.9249C13.7201 14.833 15.4879 13.1261 17.6203 12.0054C19.7528 10.8847 22.1612 10.3968 24.5617 10.5993C26.9622 10.8018 29.2548 11.6861 31.1695 13.1482C33.0841 14.6102 34.5409 16.5891 35.3684 18.8516C36.1958 21.114 36.3594 23.5659 35.8397 25.9182C35.3201 28.2705 34.139 30.4253 32.4355 32.1287Z" fill="white"/>
<path d="M31.1136 27.172C31.1144 27.4218 31.0932 27.6712 31.0503 27.9174C31.0099 28.1669 30.9485 28.4126 30.8667 28.6517C30.6785 29.1832 29.6504 29.8341 29.6504 29.8341C28.9197 30.3204 28.0467 30.5467 27.1719 30.4766C26.9667 30.4557 26.7629 30.4232 26.5614 30.3793C26.2199 30.3032 26.0538 30.2545 26.0538 30.2545C25.8885 30.2058 25.4598 30.0709 25.4598 30.0709C25.0312 29.9369 24.9348 29.9112 24.9348 29.9112C24.2836 29.7155 23.6526 29.4582 23.0502 29.1428C21.6613 28.3883 20.1485 27.0361 20.1485 27.0361C19.2528 26.2398 18.443 25.3519 17.7324 24.3868C17.3544 23.8219 17.0287 23.2237 16.7593 22.5996C16.7226 22.5078 16.5418 22.0956 16.5418 22.0956C16.3582 21.6843 16.2939 21.5255 16.2939 21.5255C16.2278 21.3658 16.1103 21.0353 16.1103 21.0353C16.0433 20.8403 15.9884 20.6414 15.946 20.4396C15.9122 20.2575 15.8896 20.0736 15.8781 19.8888C15.8248 18.9231 16.3049 17.9069 16.3049 17.9069C16.8328 16.8145 17.345 16.5648 17.345 16.5648C17.5741 16.4614 17.8103 16.3746 18.0518 16.305C18.2909 16.2309 18.537 16.1817 18.7862 16.1582C18.8608 16.1509 18.9361 16.1574 19.0084 16.1775C19.2011 16.2298 19.6096 16.944 19.6096 16.944C19.7363 17.1367 19.9557 17.4947 19.9557 17.4947C20.176 17.8509 20.3605 18.1373 20.3605 18.1373C20.5441 18.4265 20.7167 18.6798 20.7167 18.6798C20.7507 18.7202 20.915 18.9323 20.915 18.9323C21.0052 19.0464 21.0875 19.1666 21.161 19.2921C21.2114 19.383 21.2427 19.4833 21.2528 19.5868C21.2638 19.797 20.9829 20.1284 20.9829 20.1284C20.7921 20.3478 20.5853 20.5527 20.3642 20.7416C20.146 20.9267 19.939 21.1247 19.7446 21.3346C19.4618 21.6449 19.4692 21.834 19.4692 21.834C19.4802 21.9143 19.5022 21.9927 19.5344 22.0671C19.5949 22.2058 19.6362 22.2774 19.6362 22.2774C19.6766 22.348 19.7969 22.5206 19.7969 22.5206C19.9171 22.6932 19.9282 22.7134 19.9282 22.7134C20.4823 23.5795 21.1419 24.3735 21.8917 25.0772C22.9777 26.0484 24.462 26.7653 24.462 26.7653C24.484 26.7745 24.6686 26.8745 24.6686 26.8745C24.8521 26.9755 24.9283 27.0076 24.9283 27.0076C25.0036 27.0407 25.1487 27.0848 25.1487 27.0848C25.2255 27.1109 25.3061 27.1243 25.3873 27.1242C25.5764 27.1141 25.8537 26.7983 25.8537 26.7983C26.0401 26.5814 26.2136 26.3537 26.3732 26.1163C26.5366 25.8761 26.7173 25.6481 26.9139 25.4342C27.2122 25.1175 27.4225 25.1056 27.4225 25.1056C27.5262 25.1047 27.6291 25.1241 27.7254 25.1625C27.8575 25.2231 27.986 25.2914 28.11 25.3672C28.3395 25.5068 28.3854 25.5361 28.3854 25.5361C28.6608 25.6793 28.9656 25.8299 28.9656 25.8299C29.274 25.9814 29.6522 26.1604 29.6522 26.1604C30.0304 26.3394 30.236 26.4431 30.236 26.4431C30.9915 26.7699 31.0622 26.9553 31.0622 26.9553C31.0899 27.0246 31.1072 27.0976 31.1136 27.172Z" fill="white"/>
<defs>
<linearGradient id="paint0_linear_350_949" x1="23.5" y1="44.8857" x2="23.5" y2="2.1543" gradientUnits="userSpaceOnUse">
<stop stop-color="#00D02D"/>
<stop offset="0.25" stop-color="#10D93A"/>
<stop offset="0.75" stop-color="#3AF15D"/>
<stop offset="1" stop-color="#51FE71"/>
</linearGradient>
</defs>
</svg>
