<svg width="119" height="12" viewBox="0 0 119 12" fill="none" xmlns="http://www.w3.org/2000/svg">
<g clip-path="url(#clip0_110_1415)">
<path d="M64.103 0.772698C64.103 0.347714 63.7236 0 63.26 0H57.106C56.6423 0 56.2629 0.347714 56.2629 0.772698V11.2196C56.2629 11.6446 56.6423 11.9923 57.106 11.9923H63.26C63.7236 11.9923 64.103 11.6446 64.103 11.2196C64.103 10.7946 63.7236 10.4469 63.26 10.4469H57.9574V1.55312H63.26C63.7236 1.55312 64.103 1.20541 64.103 0.780425V0.772698Z" fill="#181818"/>
<path d="M34.0575 0.440154C33.7709 -0.0930072 32.8183 -0.0930072 32.5401 0.440154L27.0099 10.887C26.8076 11.2734 26.9846 11.737 27.3977 11.9224C27.5157 11.9765 27.6422 11.9997 27.7686 11.9997C28.0805 11.9997 28.384 11.8375 28.5273 11.5593L33.2904 2.54962L36.7804 9.14846L33.7372 7.41762C33.3409 7.19354 32.8183 7.30171 32.5738 7.66488C32.3293 8.02805 32.4473 8.50712 32.8436 8.7312L38.3653 11.8761C38.6857 12.0538 39.0987 12.0229 39.3769 11.7911C39.6551 11.5593 39.7394 11.1884 39.5708 10.8793L34.0575 0.440154Z" fill="#181818"/>
<path d="M49.1895 0.440154C48.9028 -0.0930072 47.9502 -0.0930072 47.672 0.440154L42.1503 10.887C41.948 11.2734 42.125 11.737 42.5381 11.9224C42.6561 11.9765 42.7825 11.9997 42.909 11.9997C43.2209 11.9997 43.5244 11.8375 43.6677 11.5593L48.4307 2.54962L53.1938 11.5593C53.3961 11.9456 53.9019 12.1079 54.3234 11.9147C54.7449 11.7293 54.922 11.2657 54.7112 10.8793L49.1895 0.440154Z" fill="#181818"/>
<path d="M21.016 5.22344H17.4838C17.3742 5.22344 17.2814 5.24662 17.1887 5.27753V0.772698C17.1887 0.347714 16.8094 0 16.3457 0C15.882 0 15.5027 0.347714 15.5027 0.772698V11.2196C15.5027 11.6446 15.882 11.9923 16.3457 11.9923C16.8094 11.9923 17.1887 11.6446 17.1887 11.2196V6.71475C17.2814 6.74565 17.3826 6.76883 17.4838 6.76883H21.016C21.4797 6.76883 21.859 6.42112 21.859 5.99614C21.859 5.57115 21.4797 5.22344 21.016 5.22344Z" fill="#181818"/>
<path d="M23.8574 0C23.3938 0 23.0144 0.347714 23.0144 0.772698V11.2196C23.0144 11.6446 23.3938 11.9923 23.8574 11.9923C24.3211 11.9923 24.7004 11.6446 24.7004 11.2196V0.772698C24.7004 0.347714 24.3211 0 23.8574 0Z" fill="#181818"/>
<path d="M7.13148 0.440154C6.84486 -0.0930072 5.89225 -0.0930072 5.61405 0.440154L0.0838759 10.887C-0.118448 11.2734 0.0585854 11.737 0.471663 11.9224C0.589685 11.9765 0.716137 11.9997 0.842589 11.9997C1.1545 11.9997 1.45799 11.8375 1.6013 11.5593L6.37277 2.54962L9.86285 9.14846L6.81957 7.41762C6.42335 7.19354 5.90068 7.30171 5.6562 7.66488C5.41173 8.02805 5.52975 8.50712 5.92597 8.7312L11.4561 11.8761C11.7765 12.0538 12.1896 12.0229 12.4678 11.7911C12.746 11.5593 12.8303 11.1884 12.6617 10.8793L7.13148 0.440154Z" fill="#181818"/>
<path d="M98.5656 0.440154C98.279 -0.0930072 97.3264 -0.0930072 97.0482 0.440154L95.8427 2.71189C95.6403 3.09824 95.8174 3.56185 96.2305 3.7473C96.652 3.93275 97.1578 3.77048 97.3601 3.39186L97.7985 2.55735L102.561 11.567C102.705 11.8452 103.008 12.0074 103.32 12.0074C103.447 12.0074 103.573 11.9843 103.691 11.9302C104.113 11.7447 104.29 11.2811 104.079 10.8948L98.5487 0.447881L98.5656 0.440154Z" fill="#181818"/>
<path d="M60.0813 5.22363C59.6176 5.22363 59.2383 5.57135 59.2383 5.99633C59.2383 6.42131 59.6176 6.76903 60.0813 6.76903H61.4386C61.9022 6.76903 62.2816 6.42131 62.2816 5.99633C62.2816 5.57135 61.9022 5.22363 61.4386 5.22363H60.0813Z" fill="#181818"/>
<path d="M118.916 10.887L113.394 0.440154C113.108 -0.0930072 112.155 -0.0930072 111.877 0.440154L106.347 10.887C106.144 11.2734 106.322 11.737 106.735 11.9224C106.853 11.9765 106.979 11.9997 107.106 11.9997C107.417 11.9997 107.721 11.8375 107.864 11.5593L112.627 2.54962L116.117 9.14846L113.074 7.41762C112.678 7.19354 112.155 7.30171 111.911 7.66488C111.666 8.02805 111.784 8.50712 112.18 8.7312L117.702 11.8761C118.023 12.0538 118.436 12.0229 118.714 11.7911C118.992 11.5593 119.076 11.1884 118.908 10.8793L118.916 10.887Z" fill="#181818"/>
<path d="M93.0353 0.440154C92.7487 -0.0930072 91.7961 -0.0930072 91.5179 0.440154L85.9877 10.887C85.7854 11.2734 85.9624 11.737 86.3755 11.9224C86.797 12.1079 87.3028 11.9456 87.5051 11.567L92.2681 2.55735L97.0312 11.567C97.1745 11.8452 97.478 12.0074 97.7899 12.0074C97.9163 12.0074 98.0428 11.9843 98.1608 11.9302C98.5823 11.7447 98.7594 11.2811 98.5486 10.8948L93.0269 0.447881L93.0353 0.440154Z" fill="#181818"/>
<path d="M72.6932 0.440154C72.4066 -0.0930072 71.454 -0.0930072 71.1758 0.440154L65.6456 10.887C65.4433 11.2734 65.6204 11.737 66.0334 11.9224C66.4549 12.1079 66.9607 11.9456 67.1631 11.567L71.9261 2.55735L76.6891 11.567C76.8325 11.8452 77.1359 12.0074 77.4479 12.0074C77.5743 12.0074 77.7008 11.9843 77.8188 11.9302C78.2403 11.7447 78.4173 11.2811 78.2066 10.8948L72.6848 0.447881L72.6932 0.440154Z" fill="#181818"/>
<path d="M78.2153 0.440154C77.9287 -0.0930072 76.976 -0.0930072 76.6979 0.440154L75.3322 3.02869C75.1298 3.41504 75.3069 3.87866 75.72 4.06411C76.1415 4.24956 76.6473 4.08729 76.8496 3.70867L77.4566 2.56507L82.2196 11.5747C82.3629 11.8529 82.6664 12.0152 82.9783 12.0152C83.1048 12.0152 83.2312 11.992 83.3492 11.9379C83.7707 11.7525 83.9478 11.2888 83.737 10.9025L78.2068 0.455608L78.2153 0.440154Z" fill="#181818"/>
</g>
<defs>
<clipPath id="clip0_110_1415">
<rect width="119" height="12" fill="white"/>
</clipPath>
</defs>
</svg>
